<svg height="1024" node-id="1" sillyvg="true" template-height="1024" template-width="1024" version="1.1" viewBox="0 0 1024 1024" width="1024" xmlns="http://www.w3.org/2000/svg" xmlns:xlink="http://www.w3.org/1999/xlink"><defs node-id="153"><linearGradient gradientUnits="objectBoundingBox" id="linearGradient-1" node-id="5" spreadMethod="pad" x1="0.5" x2="0.5" y1="1" y2="-0.41476682"><stop offset="0" stop-color="#ffdc4d" stop-opacity="0"/><stop offset="1" stop-color="#f4b538"/></linearGradient><linearGradient gradientUnits="objectBoundingBox" id="linearGradient-2" node-id="8" spreadMethod="pad" x1="0.5" x2="0.5" y1="1" y2="-0.41476682"><stop offset="0" stop-color="#ffdc4d" stop-opacity="0"/><stop offset="1" stop-color="#f4b538"/></linearGradient><linearGradient gradientUnits="objectBoundingBox" id="linearGradient-3" node-id="11" spreadMethod="pad" x1="0.44560224" x2="0.91049254" y1="0.27575165" y2="0.9089801"><stop offset="0" stop-color="#ffdc4d"/><stop offset="1" stop-color="#f4b538"/></linearGradient><linearGradient gradientUnits="objectBoundingBox" id="linearGradient-4" node-id="14" spreadMethod="pad" x1="0.5" x2="0.5" y1="0" y2="1"><stop offset="0" stop-color="#ffdc4d"/><stop offset="1" stop-color="#ffdc4d"/></linearGradient><linearGradient gradientUnits="objectBoundingBox" id="linearGradient-7" node-id="23" spreadMethod="pad" x1="0.49999997" x2="0.49999997" y1="1.1648775" y2="-0.1431631"><stop offset="0" stop-color="#fcbf11"/><stop offset="1" stop-color="#fcbf11"/></linearGradient><linearGradient gradientUnits="objectBoundingBox" id="linearGradient-10" node-id="32" spreadMethod="pad" x1="0.49999997" x2="0.49999997" y1="1.1648775" y2="-0.1431631"><stop offset="0" stop-color="#fcbf11"/><stop offset="1" stop-color="#fcbf11"/></linearGradient><linearGradient gradientUnits="objectBoundingBox" id="linearGradient-11" node-id="35" spreadMethod="pad" x1="0.5" x2="0.5" y1="-0.19003879" y2="1"><stop offset="0" stop-color="#ffcda5"/><stop offset="1" stop-color="#ffe8d1"/></linearGradient><linearGradient gradientUnits="objectBoundingBox" id="linearGradient-12" node-id="38" spreadMethod="pad" x1="0.5" x2="0.5" y1="0" y2="1"><stop offset="0" stop-color="#fff2df"/><stop offset="1" stop-color="#fee0bc"/></linearGradient><linearGradient gradientUnits="objectBoundingBox" id="linearGradient-13" node-id="41" spreadMethod="pad" x1="0.20414202" x2="0.6435098" y1="0.23445843" y2="1"><stop offset="0" stop-color="#fff2df"/><stop offset="1" stop-color="#fee0bc"/></linearGradient><linearGradient gradientUnits="objectBoundingBox" id="linearGradient-14" node-id="44" spreadMethod="pad" x1="0.49999997" x2="0.49999997" y1="0" y2="0.99999994"><stop offset="0" stop-color="#fff2df"/><stop offset="1" stop-color="#fee0bc"/></linearGradient><linearGradient gradientUnits="objectBoundingBox" id="linearGradient-15" node-id="47" spreadMethod="pad" x1="-0.08680927" x2="1.2003694" y1="0.66738003" y2="0.5"><stop offset="0" stop-color="#41b093"/><stop offset="1" stop-color="#184657"/></linearGradient><linearGradient gradientUnits="objectBoundingBox" id="linearGradient-16" node-id="50" spreadMethod="pad" x1="0.86275023" x2="-0.000000000000027057475" y1="-0.028050492" y2="-0.028050492"><stop offset="0" stop-color="#1d181c"/><stop offset="0.3" stop-color="#2c2422"/><stop offset="0.5" stop-color="#42352c"/><stop offset="0.7" stop-color="#57352c"/><stop offset="1" stop-color="#923629"/></linearGradient><linearGradient gradientUnits="objectBoundingBox" id="linearGradient-17" node-id="56" spreadMethod="pad" x1="0.30925605" x2="0.6502806" y1="0.12199528" y2="0.70419234"><stop offset="0" stop-color="#ffdc4d"/><stop offset="1" stop-color="#f4b538"/></linearGradient><linearGradient gradientUnits="objectBoundingBox" id="linearGradient-18" node-id="59" spreadMethod="pad" x1="0.70631" x2="0.3307674" y1="0.09061224" y2="1"><stop offset="0" stop-color="#ffdc4d"/><stop offset="1" stop-color="#f4b538"/></linearGradient><linearGradient gradientUnits="objectBoundingBox" id="linearGradient-19" node-id="62" spreadMethod="pad" x1="0.08677686" x2="0.82556427" y1="0.12199528" y2="0.70419234"><stop offset="0" stop-color="#ffdc4d"/><stop offset="1" stop-color="#f4b538"/></linearGradient><linearGradient gradientUnits="objectBoundingBox" id="linearGradient-20" node-id="65" spreadMethod="pad" x1="0.89393276" x2="0.17686361" y1="0.18911596" y2="0.87969387"><stop offset="0" stop-color="#ffdc4d"/><stop offset="1" stop-color="#f4b538"/></linearGradient><linearGradient gradientUnits="objectBoundingBox" id="linearGradient-21" node-id="68" spreadMethod="pad" x1="0.89393276" x2="0.17686361" y1="0.39524356" y2="0.6279428"><stop offset="0" stop-color="#ffdc4d"/><stop offset="1" stop-color="#f4b538"/></linearGradient><linearGradient gradientUnits="objectBoundingBox" id="linearGradient-22" node-id="71" spreadMethod="pad" x1="0.46555158" x2="0.5138005" y1="-0.33132026" y2="1.2517982"><stop offset="0" stop-color="#ffdc4d" stop-opacity="0.5"/><stop offset="1" stop-color="#f4b538"/></linearGradient><linearGradient gradientUnits="objectBoundingBox" id="linearGradient-23" node-id="74" spreadMethod="pad" x1="0.45249513" x2="0.51903105" y1="-0.33132026" y2="1.2517982"><stop offset="0" stop-color="#ffdc4d" stop-opacity="0.5"/><stop offset="1" stop-color="#f4b538"/></linearGradient><linearGradient gradientUnits="objectBoundingBox" id="linearGradient-24" node-id="77" spreadMethod="pad" x1="0.40340716" x2="0.53869635" y1="-0.33132026" y2="1.2517982"><stop offset="0" stop-color="#ffdc4d" stop-opacity="0.5"/><stop offset="1" stop-color="#f4b538"/></linearGradient><linearGradient gradientUnits="objectBoundingBox" id="linearGradient-25" node-id="80" spreadMethod="pad" x1="0.3950359" x2="0.54205" y1="-0.33132026" y2="1.2517982"><stop offset="0" stop-color="#ffdc4d" stop-opacity="0.5"/><stop offset="1" stop-color="#f4b538"/></linearGradient><linearGradient gradientUnits="objectBoundingBox" id="linearGradient-26" node-id="83" spreadMethod="pad" x1="0.41413826" x2="0.53439736" y1="-0.33132026" y2="1.2517982"><stop offset="0" stop-color="#ffdc4d" stop-opacity="0.5"/><stop offset="1" stop-color="#f4b538"/></linearGradient><linearGradient gradientUnits="objectBoundingBox" id="linearGradient-27" node-id="86" spreadMethod="pad" x1="0.5" x2="0.5" y1="0" y2="1"><stop offset="0" stop-color="#f9ab21"/><stop offset="1" stop-color="#fee127"/></linearGradient><linearGradient gradientUnits="objectBoundingBox" id="linearGradient-28" node-id="89" spreadMethod="pad" x1="0.4525116" x2="0.9923633" y1="0.9971597" y2="0.9971597"><stop offset="0" stop-color="#ffdc4d"/><stop offset="1" stop-color="#f4b538"/></linearGradient><linearGradient gradientUnits="objectBoundingBox" id="linearGradient-29" node-id="92" spreadMethod="pad" x1="0.4525116" x2="0.9923633" y1="0.9971597" y2="0.9971597"><stop offset="0" stop-color="#ffdc4d"/><stop offset="1" stop-color="#f4b538"/></linearGradient><linearGradient gradientUnits="objectBoundingBox" id="linearGradient-30" node-id="95" spreadMethod="pad" x1="-0.26255283" x2="1.3051119" y1="0.4520975" y2="0.51275104"><stop offset="0" stop-color="#ffdc4d"/><stop offset="1" stop-color="#f4b538"/></linearGradient></defs><path d="M 0.00 0.00 L 1024.00 0.00 L 1024.00 1024.00 L 0.00 1024.00 Z" fill="none" id="矩形" node-id="99" stroke="none" target-height="1024" target-width="1024" target-x="0" target-y="0"/><g node-id="316"><path d="M 68.82 556.93 C 1.73 479.65 26.32 413.65 142.60 358.92 C 236.50 336.02 214.56 342.99 225.68 277.35 C 236.81 211.70 266.37 191.55 353.25 225.05 C 440.13 258.55 521.47 242.71 575.49 184.97 C 629.51 127.22 972.94 60.25 861.53 402.34 C 802.25 547.20 908.54 612.03 925.35 616.47 C 942.17 620.91 1099.79 736.99 861.53 833.38 C 623.27 929.78 201.06 892.61 121.41 858.65 C 41.76 824.70 97.44 695.61 142.60 664.90 C 172.70 644.42 148.11 608.44 68.82 556.93 Z" fill="#f1bc01" fill-opacity="0.05" fill-rule="evenodd" group-id="1" id="路径-64" node-id="100" stroke="none" target-height="869.52655" target-width="1098.0609" target-x="1.7308801" target-y="60.25034"/></g><path d="M 251.35 323.50 L 236.58 323.50 C 236.58 293.95 212.59 270.00 183.01 270.00 C 153.42 270.00 129.44 293.95 129.44 323.50 L 118.64 323.50 C 105.03 323.50 94.00 335.48 94.00 350.25 C 94.00 365.02 105.03 377.00 118.64 377.00 L 251.36 377.00 C 264.97 377.00 276.00 365.02 276.00 350.25 C 276.00 335.48 264.97 323.50 251.35 323.50 Z" fill="url(#linearGradient-1)" fill-rule="evenodd" id="云" node-id="101" stroke="none" target-height="107" target-width="182" target-x="94" target-y="270"/><path d="M 797.26 187.50 L 786.62 187.50 C 786.62 166.24 769.36 149.00 748.07 149.00 C 726.77 149.00 709.51 166.24 709.51 187.50 L 701.74 187.50 C 691.94 187.50 684.00 196.12 684.00 206.75 C 684.00 217.38 691.94 226.00 701.74 226.00 L 797.26 226.00 C 807.06 226.00 815.00 217.38 815.00 206.75 C 815.00 196.12 807.06 187.50 797.26 187.50 Z" fill="url(#linearGradient-2)" fill-rule="evenodd" id="云" node-id="102" stroke="none" target-height="77" target-width="131" target-x="684" target-y="149"/><path d="M 604.00 917.50 C 604.00 926.61 575.57 934.00 540.50 934.00 C 505.43 934.00 477.00 926.61 477.00 917.50 C 477.00 908.39 505.43 901.00 540.50 901.00 C 575.57 901.00 604.00 908.39 604.00 917.50 Z" fill="#f1bc01" fill-opacity="0.3" fill-rule="evenodd" group-id="2" id="椭圆形" node-id="103" stroke="none" target-height="33" target-width="127" target-x="477" target-y="901"/><path d="M 653.51 633.00 L 506.28 633.00 L 502.92 633.24 L 500.20 633.92 L 498.01 634.97 L 496.25 636.37 L 494.86 638.14 L 493.82 640.35 L 493.14 643.10 L 492.90 646.50 L 493.14 649.90 L 493.82 652.65 L 494.86 654.86 L 496.25 656.63 L 498.01 658.03 L 500.20 659.08 L 502.92 659.76 L 506.28 660.00 L 653.51 660.00 L 656.87 659.76 L 659.59 659.08 L 661.78 658.03 L 663.54 656.63 L 664.93 654.86 L 665.98 652.65 L 666.65 649.90 L 666.90 646.50 L 666.65 643.10 L 665.98 640.35 L 664.93 638.14 L 663.54 636.36 L 661.78 634.97 L 659.59 633.92 L 656.87 633.24 L 653.51 633.00 L 653.51 633.00 Z" fill="#ffffff" fill-rule="nonzero" group-id="3" id="路径" node-id="105" stroke="none" target-height="27" target-width="174.00003" target-x="492.89658" target-y="633"/><path d="M 653.37 700.00 L 546.17 700.00 L 542.80 700.24 L 540.09 700.92 L 537.89 701.97 L 536.13 703.37 L 534.74 705.14 L 533.69 707.35 L 533.01 710.10 L 532.77 713.50 L 533.01 716.90 L 533.69 719.65 L 534.74 721.86 L 536.13 723.63 L 537.89 725.03 L 540.09 726.08 L 542.80 726.75 L 546.17 727.00 L 653.37 727.00 L 656.73 726.75 L 659.45 726.08 L 661.65 725.03 L 663.41 723.63 L 664.80 721.86 L 665.85 719.65 L 666.52 716.90 L 666.77 713.50 L 666.52 710.10 L 665.85 707.35 L 664.80 705.14 L 663.41 703.37 L 661.65 701.97 L 659.45 700.92 L 656.73 700.24 L 653.37 700.00 L 653.37 700.00 Z" fill="#ffffff" fill-rule="nonzero" group-id="3" id="路径" node-id="106" stroke="none" target-height="27" target-width="134" target-x="532.76935" target-y="700"/><path d="M 349.14 687.00 L 349.47 698.21 L 350.42 709.15 L 351.98 719.85 L 354.13 730.34 L 356.89 740.72 L 360.18 750.80 L 364.00 760.59 L 368.35 770.12 L 373.23 779.41 L 378.58 788.34 L 384.38 796.94 L 390.66 805.21 L 397.38 813.13 L 404.50 820.64 L 412.01 827.76 L 419.93 834.48 L 428.20 840.76 L 436.80 846.56 L 445.73 851.90 L 455.02 856.79 L 464.55 861.14 L 474.34 864.96 L 484.42 868.25 L 494.80 871.01 L 505.28 873.16 L 515.99 874.72 L 526.93 875.66 L 538.14 876.00 L 549.35 875.66 L 560.29 874.72 L 570.99 873.16 L 581.48 871.01 L 591.86 868.25 L 601.94 864.96 L 611.73 861.14 L 621.26 856.79 L 630.54 851.91 L 639.48 846.56 L 648.08 840.76 L 656.35 834.48 L 664.27 827.76 L 671.78 820.64 L 678.90 813.13 L 685.62 805.21 L 691.90 796.94 L 697.70 788.34 L 703.04 779.41 L 707.93 770.12 L 712.28 760.59 L 716.10 750.80 L 719.39 740.72 L 722.15 730.34 L 724.30 719.85 L 725.86 709.15 L 726.80 698.21 L 727.14 687.00 L 726.80 675.79 L 725.86 664.85 L 724.30 654.15 L 722.15 643.66 L 719.39 633.28 L 716.10 623.20 L 712.28 613.41 L 707.93 603.88 L 703.04 594.59 L 697.70 585.66 L 691.90 577.06 L 685.62 568.79 L 678.90 560.87 L 671.78 553.36 L 664.27 546.24 L 656.35 539.52 L 648.08 533.24 L 639.48 527.44 L 630.54 522.09 L 621.26 517.21 L 611.73 512.86 L 601.94 509.04 L 591.86 505.75 L 581.48 502.99 L 570.99 500.84 L 560.29 499.28 L 549.35 498.34 L 538.14 498.00 L 526.93 498.34 L 515.99 499.28 L 505.28 500.84 L 494.80 502.99 L 484.42 505.75 L 474.34 509.04 L 464.55 512.86 L 455.02 517.21 L 445.73 522.09 L 436.80 527.44 L 428.20 533.24 L 419.93 539.52 L 412.01 546.24 L 404.50 553.36 L 397.38 560.87 L 390.66 568.79 L 384.38 577.06 L 378.58 585.66 L 373.23 594.59 L 368.35 603.88 L 364.00 613.41 L 360.18 623.20 L 356.89 633.28 L 354.13 643.66 L 351.98 654.15 L 350.42 664.85 L 349.47 675.79 L 349.14 687.00 Z" fill="url(#linearGradient-3)" fill-rule="evenodd" group-id="3" id="椭圆形" node-id="107" stroke="none" target-height="378" target-width="378" target-x="349.13928" target-y="498"/><path d="M 439.94 582.29 L 440.74 584.18 L 441.86 585.91 L 443.33 587.48 L 445.19 588.92 L 447.93 590.43 L 451.20 591.67 L 455.08 592.61 L 459.05 593.13 L 463.42 593.31 L 468.23 593.11 L 473.01 592.54 L 478.01 591.56 L 483.25 590.16 L 488.37 588.38 L 493.05 586.39 L 497.33 584.18 L 501.42 581.64 L 504.94 579.04 L 507.93 576.38 L 510.62 573.43 L 512.63 570.57 L 514.05 567.78 L 514.79 565.54 L 515.12 563.41 L 515.08 561.36 L 514.68 559.34 L 513.88 557.45 L 512.76 555.73 L 511.29 554.15 L 509.43 552.72 L 506.69 551.20 L 503.42 549.96 L 499.53 549.03 L 495.56 548.50 L 491.19 548.32 L 486.38 548.53 L 481.60 549.10 L 476.61 550.07 L 471.37 551.47 L 466.25 553.25 L 461.56 555.25 L 457.29 557.46 L 453.19 559.99 L 449.68 562.59 L 446.68 565.25 L 443.99 568.21 L 441.98 571.07 L 440.56 573.86 L 439.83 576.09 L 439.50 578.22 L 439.54 580.28 L 439.94 582.29 Z" fill="#ffffff" fill-opacity="0.5" fill-rule="nonzero" group-id="3,9" id="椭圆形" node-id="108" stroke="none" target-height="44.985535" target-width="75.62134" target-x="439.49683" target-y="548.3245"/><path d="M 532.99 654.50 L 533.22 658.81 L 533.85 662.92 L 534.86 666.86 L 536.26 670.65 L 538.02 674.31 L 540.09 677.71 L 542.46 680.89 L 545.15 683.85 L 548.11 686.53 L 551.28 688.90 L 554.69 690.97 L 558.34 692.74 L 562.13 694.13 L 566.07 695.15 L 570.19 695.77 L 574.49 696.00 L 578.80 695.77 L 582.92 695.15 L 586.86 694.13 L 590.65 692.74 L 594.30 690.97 L 597.71 688.90 L 600.88 686.53 L 603.84 683.85 L 606.53 680.89 L 608.90 677.71 L 610.97 674.31 L 612.73 670.65 L 614.13 666.86 L 615.14 662.92 L 615.76 658.81 L 615.99 654.50 L 615.76 650.19 L 615.14 646.08 L 614.13 642.14 L 612.73 638.35 L 610.97 634.69 L 608.90 631.29 L 606.53 628.11 L 603.84 625.16 L 600.88 622.47 L 597.71 620.10 L 594.30 618.03 L 590.65 616.26 L 586.86 614.87 L 582.92 613.85 L 578.80 613.23 L 574.49 613.00 L 570.19 613.23 L 566.07 613.85 L 562.13 614.87 L 558.34 616.26 L 554.69 618.03 L 551.28 620.10 L 548.11 622.47 L 545.15 625.16 L 542.46 628.11 L 540.09 631.29 L 538.02 634.69 L 536.26 638.35 L 534.86 642.14 L 533.85 646.08 L 533.22 650.19 L 532.99 654.50 Z" fill="#825852" fill-opacity="0.3" fill-rule="evenodd" group-id="3,10" id="椭圆形" node-id="109" stroke="none" target-height="83" target-width="83" target-x="532.99426" target-y="613"/><path d="M 647.86 589.57 L 646.81 590.92 L 646.12 592.49 L 645.81 594.36 L 645.86 596.28 L 646.26 598.35 L 647.05 600.58 L 648.12 602.71 L 649.54 604.82 L 651.32 606.92 L 653.35 608.80 L 655.40 610.30 L 657.47 611.46 L 659.67 612.35 L 661.72 612.84 L 663.64 612.97 L 665.51 612.74 L 667.12 612.12 L 668.51 611.13 L 669.56 609.78 L 670.25 608.21 L 670.56 606.34 L 670.51 604.42 L 670.11 602.36 L 669.32 600.12 L 668.25 597.99 L 666.83 595.88 L 665.05 593.78 L 663.02 591.90 L 660.97 590.40 L 658.90 589.24 L 656.70 588.35 L 654.65 587.86 L 652.73 587.73 L 650.86 587.96 L 649.25 588.58 L 647.86 589.57 Z" fill="#825852" fill-opacity="0.2" fill-rule="evenodd" group-id="3,11" id="椭圆形" node-id="110" stroke="none" target-height="25.24768" target-width="24.754028" target-x="645.80786" target-y="587.72644"/><path d="M 351.65 719.47 L 352.31 722.98 L 353.24 727.59 L 353.96 731.08 L 345.68 736.86 L 338.54 742.25 L 332.43 747.28 L 327.25 751.96 L 322.05 757.21 L 318.01 761.89 L 314.96 766.06 L 312.76 769.79 L 311.24 773.20 L 310.39 776.17 L 310.09 778.77 L 310.27 781.09 L 310.90 783.17 L 312.21 785.73 L 314.02 788.12 L 316.39 790.36 L 319.40 792.47 L 323.16 794.44 L 327.82 796.28 L 333.34 797.91 L 339.83 799.31 L 347.42 800.41 L 357.32 801.27 L 368.59 801.67 L 381.37 801.52 L 394.09 800.90 L 407.85 799.80 L 422.72 798.17 L 437.51 796.17 L 452.98 793.72 L 469.16 790.78 L 485.26 787.51 L 501.66 783.84 L 518.39 779.75 L 535.02 775.34 L 551.60 770.59 L 568.10 765.51 L 589.59 758.30 L 610.91 750.51 L 631.93 742.18 L 652.21 733.53 L 665.56 727.49 L 678.32 721.43 L 690.50 715.35 L 702.59 709.02 L 713.83 702.81 L 724.26 696.72 L 734.57 690.34 L 743.78 684.24 L 751.98 678.41 L 759.96 672.22 L 766.63 666.49 L 772.12 661.19 L 776.08 656.82 L 779.17 652.82 L 781.50 649.17 L 783.18 645.82 L 784.23 642.86 L 784.75 640.15 L 784.81 637.65 L 784.44 635.30 L 783.64 633.06 L 781.60 630.63 L 779.08 628.41 L 776.00 626.42 L 772.69 624.77 L 769.01 623.30 L 764.91 622.02 L 758.57 620.52 L 751.76 619.39 L 744.84 618.60 L 737.95 618.09 L 724.85 617.64 L 713.86 617.60 L 712.80 615.24 L 711.27 611.90 L 709.72 608.57 L 708.62 606.23 L 720.97 606.00 L 732.20 606.21 L 742.37 606.81 L 752.54 607.92 L 761.40 609.41 L 769.10 611.23 L 774.88 613.06 L 779.86 615.06 L 784.10 617.22 L 787.71 619.53 L 791.08 622.32 L 793.72 625.27 L 795.70 628.39 L 797.09 631.73 L 797.79 634.92 L 797.99 638.23 L 797.69 641.72 L 796.83 645.42 L 795.37 649.39 L 793.10 653.91 L 790.05 658.76 L 786.09 663.95 L 781.12 669.54 L 776.04 674.59 L 770.16 679.90 L 763.41 685.46 L 755.71 691.30 L 745.35 698.53 L 733.65 706.03 L 720.49 713.82 L 707.13 721.16 L 692.60 728.63 L 676.83 736.20 L 660.91 743.37 L 644.01 750.50 L 626.10 757.59 L 608.06 764.28 L 589.25 770.78 L 569.65 777.11 L 549.93 783.01 L 530.75 788.31 L 512.10 793.03 L 493.32 797.34 L 475.36 801.05 L 458.18 804.17 L 440.89 806.86 L 424.69 808.95 L 409.53 810.47 L 394.27 811.51 L 380.38 811.97 L 367.76 811.89 L 358.10 811.44 L 349.38 810.69 L 341.53 809.65 L 334.48 808.36 L 327.22 806.58 L 321.02 804.54 L 315.76 802.28 L 311.33 799.84 L 307.88 797.40 L 305.08 794.84 L 302.85 792.13 L 301.14 789.29 L 299.91 786.26 L 299.17 782.75 L 299.03 779.08 L 299.51 775.20 L 300.67 771.04 L 302.59 766.55 L 304.82 762.53 L 307.65 758.28 L 311.15 753.77 L 315.39 748.98 L 320.45 743.89 L 326.73 738.21 L 333.96 732.25 L 342.24 726.01 L 351.65 719.47 Z" fill="url(#linearGradient-4)" fill-rule="evenodd" group-id="3" id="路径" node-id="111" stroke="none" target-height="205.9696" target-width="498.95813" target-x="299.03284" target-y="605.99976"/><path d="M 376.56 733.50 L 376.78 736.73 L 377.40 739.77 L 378.40 742.65 L 379.78 745.38 L 381.45 747.86 L 383.44 750.12 L 385.70 752.11 L 388.18 753.78 L 390.91 755.15 L 393.79 756.16 L 396.83 756.78 L 400.06 757.00 L 403.29 756.78 L 406.32 756.16 L 409.21 755.15 L 411.93 753.78 L 414.42 752.11 L 416.67 750.12 L 418.66 747.86 L 420.34 745.38 L 421.71 742.65 L 422.72 739.77 L 423.33 736.73 L 423.56 733.50 L 423.33 730.27 L 422.72 727.23 L 421.71 724.35 L 420.34 721.62 L 418.66 719.14 L 416.67 716.88 L 414.42 714.89 L 411.93 713.22 L 409.21 711.85 L 406.32 710.84 L 403.29 710.22 L 400.06 710.00 L 396.83 710.22 L 393.79 710.84 L 390.91 711.85 L 388.18 713.22 L 385.70 714.89 L 383.44 716.88 L 381.45 719.14 L 379.78 721.62 L 378.40 724.35 L 377.40 727.23 L 376.78 730.27 L 376.56 733.50 Z" fill="#825852" fill-opacity="0.3" fill-rule="evenodd" group-id="3,12" id="椭圆形" node-id="112" stroke="none" target-height="47" target-width="47" target-x="376.55777" target-y="710"/><path d="M 529.34 748.00 L 529.58 750.56 L 530.22 752.90 L 531.25 755.07 L 532.64 757.03 L 534.31 758.70 L 536.27 760.09 L 538.44 761.12 L 540.78 761.76 L 543.34 762.00 L 545.89 761.76 L 548.24 761.12 L 550.41 760.09 L 552.37 758.70 L 554.04 757.03 L 555.43 755.07 L 556.46 752.90 L 557.10 750.56 L 557.34 748.00 L 557.10 745.44 L 556.46 743.10 L 555.43 740.93 L 554.04 738.97 L 552.37 737.30 L 550.41 735.91 L 548.24 734.88 L 545.89 734.24 L 543.34 734.00 L 540.78 734.24 L 538.44 734.88 L 536.27 735.91 L 534.31 737.30 L 532.64 738.97 L 531.25 740.93 L 530.22 743.10 L 529.58 745.44 L 529.34 748.00 Z" fill="#825852" fill-opacity="0.3" fill-rule="evenodd" group-id="3,13" id="椭圆形" node-id="113" stroke="none" target-height="28" target-width="28" target-x="529.3395" target-y="734"/><path d="M 747.09 466.72 L 756.55 457.26 L 761.22 461.92 L 764.07 464.31 L 767.08 466.04 L 770.27 467.19 L 773.61 467.76 L 776.94 467.73 L 780.29 467.12 L 783.49 465.93 L 786.52 464.15 L 789.42 461.73 L 794.15 457.00 L 796.57 454.10 L 798.35 451.07 L 799.54 447.87 L 800.15 444.52 L 800.18 441.19 L 799.61 437.85 L 798.46 434.66 L 796.73 431.65 L 794.34 428.80 L 791.49 426.41 L 788.48 424.68 L 785.30 423.54 L 781.95 422.97 L 778.63 422.99 L 775.27 423.61 L 772.07 424.79 L 769.04 426.57 L 766.15 428.99 L 761.41 433.73 L 752.08 424.39 L 756.81 419.66 L 760.33 416.58 L 764.02 414.10 L 767.91 412.18 L 772.01 410.78 L 776.16 409.93 L 780.38 409.63 L 784.60 409.87 L 788.74 410.66 L 792.82 412.01 L 796.68 413.88 L 800.34 416.31 L 803.81 419.33 L 806.84 422.81 L 809.26 426.46 L 811.13 430.33 L 812.48 434.41 L 813.27 438.54 L 813.51 442.76 L 813.21 446.98 L 812.37 451.13 L 810.96 455.23 L 809.04 459.12 L 806.56 462.81 L 803.48 466.33 L 798.75 471.06 L 795.73 473.73 L 792.56 475.95 L 789.25 477.75 L 785.76 479.14 L 782.12 480.14 L 778.47 480.72 L 774.79 480.89 L 771.04 480.65 L 767.36 480.01 L 763.79 478.95 L 760.31 477.48 L 756.89 475.58 L 746.96 485.52 L 737.62 476.19 L 747.09 466.72 L 747.09 466.72 Z M 733.46 481.00 L 742.65 490.19 L 733.46 499.38 L 724.27 490.19 L 733.46 481.00 Z" fill="url(#linearGradient-7)" fill-rule="nonzero" group-id="4" id="形状" node-id="115" stroke="none" target-height="89.7561" target-width="89.24933" target-x="724.26514" target-y="409.62866"/><path d="M 679.15 425.46 L 681.66 416.10 L 686.30 417.34 L 688.96 417.81 L 691.48 417.81 L 693.91 417.37 L 696.22 416.52 L 698.30 415.31 L 700.19 413.71 L 701.77 411.80 L 703.03 409.59 L 703.97 407.02 L 705.22 402.34 L 705.70 399.65 L 705.71 397.11 L 705.29 394.67 L 704.46 392.34 L 703.26 390.24 L 701.68 388.35 L 699.80 386.76 L 697.62 385.50 L 695.08 384.57 L 692.41 384.11 L 689.89 384.11 L 687.47 384.54 L 685.15 385.39 L 683.07 386.61 L 681.18 388.21 L 679.60 390.11 L 678.34 392.32 L 677.40 394.89 L 676.15 399.57 L 666.88 397.09 L 668.13 392.41 L 669.24 389.18 L 670.66 386.28 L 672.39 383.68 L 674.44 381.35 L 676.79 379.29 L 679.31 377.59 L 682.03 376.23 L 684.96 375.21 L 687.98 374.58 L 691.08 374.37 L 694.27 374.57 L 697.58 375.21 L 700.78 376.31 L 703.64 377.73 L 706.21 379.47 L 708.52 381.52 L 710.55 383.87 L 712.22 386.41 L 713.56 389.14 L 714.56 392.10 L 715.17 395.14 L 715.36 398.26 L 715.15 401.48 L 714.50 404.83 L 713.24 409.51 L 711.95 413.15 L 710.20 416.39 L 708.01 419.28 L 705.41 421.81 L 702.51 423.89 L 699.30 425.55 L 695.88 426.71 L 692.31 427.36 L 688.55 427.48 L 685.92 437.31 L 676.64 434.82 L 679.15 425.46 L 679.15 425.46 Z M 674.52 440.00 L 684.18 442.59 L 681.59 452.25 L 671.94 449.66 L 674.52 440.00 Z" fill="url(#linearGradient-10)" fill-rule="nonzero" group-id="5" id="形状" node-id="117" stroke="none" target-height="77.88013" target-width="48.487244" target-x="666.877" target-y="374.3673"/><path d="M 635.00 536.00 L 634.70 538.36 L 633.85 540.70 L 632.39 543.06 L 630.21 545.48 L 627.80 547.53 L 624.83 549.59 L 621.21 551.65 L 616.86 553.72 L 611.05 556.00 L 604.31 558.18 L 596.52 560.21 L 588.67 561.86 L 580.09 563.29 L 570.71 564.47 L 561.32 565.30 L 551.43 565.81 L 541.00 566.00 L 530.57 565.81 L 520.68 565.30 L 511.29 564.47 L 501.91 563.29 L 493.33 561.86 L 485.48 560.21 L 477.69 558.18 L 470.95 556.00 L 465.14 553.72 L 460.79 551.65 L 457.17 549.59 L 454.20 547.53 L 451.79 545.48 L 449.61 543.06 L 448.15 540.70 L 447.30 538.36 L 447.00 536.00 L 447.30 533.64 L 448.15 531.30 L 449.61 528.94 L 451.79 526.52 L 454.20 524.47 L 457.17 522.41 L 460.79 520.35 L 465.14 518.28 L 470.95 516.00 L 477.69 513.82 L 485.48 511.79 L 493.33 510.14 L 501.91 508.71 L 511.29 507.53 L 520.68 506.70 L 530.57 506.19 L 541.00 506.00 L 551.43 506.19 L 561.32 506.70 L 570.71 507.53 L 580.09 508.71 L 588.67 510.14 L 596.52 511.79 L 604.31 513.82 L 611.05 516.00 L 616.86 518.28 L 621.21 520.35 L 624.83 522.41 L 627.80 524.47 L 630.21 526.52 L 632.39 528.94 L 633.85 531.30 L 634.70 533.64 L 635.00 536.00 Z" fill="#be841d" fill-opacity="0.2" fill-rule="evenodd" group-id="6,14" id="椭圆形" node-id="119" stroke="none" target-height="60" target-width="188" target-x="447" target-y="506"/><path d="M 469.50 442.00 L 457.85 462.63 L 457.34 463.78 L 457.05 464.92 L 457.05 466.27 L 457.51 467.59 L 458.17 468.58 L 459.06 469.50 L 493.76 489.00 L 494.00 471.93 L 479.14 463.03 L 489.99 446.45 L 469.50 442.00 Z" fill="#fee0bc" fill-rule="evenodd" group-id="6" id="胳膊-path" node-id="120" stroke="none" target-height="47" target-width="36.94992" target-x="457.05008" target-y="442"/><path d="M 613.50 442.00 L 625.15 462.66 L 625.66 463.82 L 625.95 464.96 L 625.95 466.31 L 625.49 467.63 L 624.83 468.63 L 623.94 469.55 L 589.35 490.00 L 589.00 471.98 L 603.86 463.07 L 593.01 446.46 L 613.50 442.00 Z" fill="#fee0bc" fill-rule="evenodd" group-id="6" id="胳膊-path" node-id="121" stroke="none" target-height="48" target-width="36.949646" target-x="589" target-y="442"/><path d="M 529.00 383.00 L 549.00 383.00 L 549.00 403.00 L 529.00 403.00 Z" fill="url(#linearGradient-11)" fill-rule="evenodd" group-id="6,15" id="矩形" node-id="123" stroke="none" target-height="20" target-width="20" target-x="529" target-y="383"/><path d="M 567.00 362.50 L 566.73 366.14 L 566.00 369.56 L 564.80 372.81 L 563.17 375.88 L 561.18 378.68 L 558.80 381.24 L 556.12 383.48 L 553.16 385.37 L 549.90 386.92 L 546.47 388.05 L 542.85 388.75 L 539.00 389.00 L 535.15 388.75 L 531.53 388.05 L 528.10 386.92 L 524.84 385.37 L 521.88 383.48 L 519.20 381.24 L 516.82 378.68 L 514.83 375.88 L 513.20 372.81 L 512.00 369.56 L 511.27 366.14 L 511.00 362.50 L 511.27 358.86 L 512.00 355.44 L 513.20 352.19 L 514.83 349.12 L 516.82 346.32 L 519.20 343.76 L 521.88 341.52 L 524.84 339.63 L 528.10 338.08 L 531.53 336.95 L 535.15 336.25 L 539.00 336.00 L 542.85 336.25 L 546.47 336.95 L 549.90 338.08 L 553.16 339.63 L 556.12 341.52 L 558.80 343.76 L 561.18 346.32 L 563.17 349.12 L 564.80 352.19 L 566.00 355.44 L 566.73 358.86 L 567.00 362.50 Z" fill="url(#linearGradient-12)" fill-rule="evenodd" group-id="6,15,21" id="椭圆形" node-id="125" stroke="none" target-height="53" target-width="56" target-x="511" target-y="336"/><path d="M 573.00 363.50 L 572.80 365.29 L 572.31 366.81 L 571.54 368.10 L 570.49 369.14 L 569.33 369.76 L 568.00 370.00 L 566.67 369.76 L 565.51 369.14 L 564.46 368.10 L 563.69 366.81 L 563.20 365.29 L 563.00 363.50 L 563.20 361.71 L 563.69 360.19 L 564.46 358.90 L 565.51 357.86 L 566.67 357.24 L 568.00 357.00 L 569.33 357.24 L 570.49 357.86 L 571.54 358.90 L 572.31 360.19 L 572.80 361.71 L 573.00 363.50 Z" fill="url(#linearGradient-13)" fill-rule="evenodd" group-id="6,15,21" id="椭圆形" node-id="126" stroke="none" target-height="13" target-width="10" target-x="563" target-y="357"/><path d="M 514.59 366.53 L 514.65 368.37 L 514.39 369.96 L 513.83 371.35 L 512.96 372.55 L 511.92 373.33 L 510.67 373.75 L 509.36 373.69 L 508.15 373.22 L 506.98 372.31 L 506.06 371.13 L 505.36 369.67 L 504.92 367.89 L 504.86 366.06 L 505.12 364.47 L 505.69 363.07 L 506.55 361.88 L 507.59 361.10 L 508.84 360.68 L 510.15 360.74 L 511.36 361.20 L 512.53 362.11 L 513.45 363.30 L 514.15 364.75 L 514.59 366.53 Z" fill="url(#linearGradient-14)" fill-rule="evenodd" group-id="6,15,21,22" id="椭圆形备份" node-id="127" stroke="none" target-height="13.065186" target-width="9.797943" target-x="504.85672" target-y="360.6799"/><path d="M 513.90 368.00 L 511.86 366.68 L 510.01 364.87 L 508.34 362.50 L 506.84 359.46 L 505.55 355.63 L 505.10 351.85 L 505.00 348.21 L 505.25 344.71 L 506.15 339.59 L 507.50 335.09 L 509.28 330.95 L 511.14 327.75 L 512.60 325.83 L 513.89 324.52 L 515.03 323.67 L 518.50 321.72 L 520.98 320.59 L 522.56 320.21 L 523.95 320.27 L 525.22 320.75 L 526.26 319.57 L 528.31 318.09 L 530.82 316.85 L 534.30 315.75 L 536.78 315.28 L 539.64 315.04 L 542.93 315.05 L 546.20 315.38 L 549.85 316.11 L 553.94 317.30 L 557.84 318.96 L 561.17 320.93 L 564.00 323.20 L 566.53 325.82 L 568.62 328.55 L 570.31 331.41 L 571.70 334.43 L 572.73 337.34 L 573.43 340.15 L 573.97 344.30 L 573.90 347.62 L 573.18 351.64 L 571.84 355.87 L 569.80 360.37 L 566.98 365.17 L 566.98 356.84 L 565.79 361.14 L 564.58 363.74 L 563.40 365.17 L 563.80 362.63 L 563.98 360.10 L 563.89 357.71 L 563.54 356.12 L 563.21 355.66 L 562.98 355.97 L 562.51 358.15 L 561.75 361.14 L 559.12 357.92 L 556.22 355.13 L 553.03 352.73 L 549.52 350.72 L 545.66 349.08 L 544.93 350.76 L 536.41 342.41 L 533.14 339.60 L 531.48 338.64 L 530.32 338.37 L 529.47 338.56 L 528.80 339.17 L 528.27 340.35 L 527.08 339.62 L 526.32 339.37 L 525.54 339.42 L 524.87 339.87 L 524.18 341.12 L 522.28 345.59 L 521.33 348.31 L 520.37 351.85 L 519.63 355.76 L 519.03 360.86 L 518.36 359.97 L 517.89 359.69 L 517.50 359.75 L 517.00 360.34 L 516.58 361.77 L 516.43 363.50 L 516.54 365.75 L 514.49 365.10 L 513.90 368.00 Z" fill="#000000" fill-rule="evenodd" group-id="6,15,21" id="路径-67" node-id="128" stroke="none" target-height="52.961884" target-width="68.9613" target-x="505.00452" target-y="315.03812"/><path d="M 529.16 391.00 L 532.20 393.32 L 538.87 399.61 L 547.77 391.00 L 572.46 395.08 L 574.09 395.46 L 575.70 395.97 L 577.79 396.84 L 579.84 398.00 L 581.77 399.56 L 588.20 406.25 L 595.09 413.79 L 601.36 420.84 L 605.91 426.06 L 607.67 428.10 L 619.00 440.74 L 616.03 444.02 L 612.79 447.01 L 609.28 449.70 L 606.31 451.59 L 603.29 453.24 L 598.13 455.71 L 595.93 456.64 L 587.03 448.08 L 587.03 508.00 L 496.38 508.00 L 496.38 447.26 L 491.11 453.78 L 488.84 453.26 L 483.33 451.65 L 480.02 450.44 L 476.54 448.89 L 472.14 446.37 L 467.96 443.52 L 464.00 440.33 L 490.71 407.31 L 493.27 404.79 L 495.97 402.42 L 498.54 400.50 L 501.23 398.75 L 504.63 397.41 L 508.11 396.30 L 514.88 394.51 L 521.73 392.79 L 527.03 391.51 L 529.16 391.00 Z" fill="url(#linearGradient-15)" fill-rule="nonzero" group-id="6" id="衣服" node-id="129" stroke="none" target-height="117" target-width="155" target-x="464" target-y="391"/><path d="M 595.36 485.11 L 597.03 484.52 L 601.34 483.46 L 604.10 483.10 L 607.24 483.01 L 610.43 483.34 L 613.67 484.24 L 615.72 485.18 L 617.69 486.49 L 619.59 488.21 L 621.20 490.21 L 622.65 492.77 L 623.94 496.01 L 624.78 499.58 L 625.01 502.56 L 624.74 505.06 L 624.01 507.47 L 623.00 509.52 L 621.72 511.24 L 619.39 513.44 L 616.97 515.04 L 614.49 516.26 L 612.59 516.96 L 610.66 517.49 L 610.66 517.49 L 596.34 520.13 L 590.10 540.00 L 539.44 530.64 L 488.74 540.00 L 482.49 520.12 L 468.32 517.50 L 466.40 516.97 L 464.50 516.27 L 462.02 515.05 L 459.60 513.45 L 457.28 511.25 L 455.99 509.53 L 454.98 507.49 L 454.26 505.07 L 453.99 502.58 L 454.22 499.60 L 455.06 496.03 L 456.35 492.79 L 457.80 490.23 L 459.40 488.24 L 461.30 486.51 L 463.27 485.20 L 465.31 484.26 L 468.55 483.37 L 471.74 483.04 L 474.88 483.13 L 477.63 483.49 L 481.94 484.55 L 483.61 485.14 L 539.42 500.04 L 595.36 485.11 Z" fill="url(#linearGradient-16)" fill-rule="nonzero" group-id="6" id="裤子" node-id="130" stroke="none" target-height="56.986694" target-width="171.022" target-x="453.98898" target-y="483.0133"/><path d="M 483.58 525.00 L 477.54 525.40 L 471.91 525.40 L 466.73 525.25 L 464.46 525.23 L 463.31 525.22 L 460.67 525.36 L 457.75 525.89 L 456.52 526.42 L 455.76 527.07 L 454.89 528.74 L 454.34 530.70 L 454.07 532.76 L 454.00 534.74 L 454.20 538.02 L 454.39 539.37 L 454.69 540.31 L 455.57 542.36 L 456.23 543.43 L 457.01 544.32 L 457.81 544.80 L 458.71 544.99 L 460.35 544.85 L 461.09 544.65 L 462.52 544.28 L 466.13 543.38 L 470.93 542.27 L 478.43 540.71 L 480.76 540.27 L 488.00 538.26 L 483.58 525.00 Z M 594.56 525.00 L 600.77 525.40 L 606.56 525.40 L 610.32 525.28 L 613.13 525.24 L 614.24 525.23 L 615.42 525.22 L 618.13 525.36 L 621.14 525.89 L 622.41 526.42 L 623.18 527.07 L 624.09 528.74 L 624.65 530.70 L 624.93 532.76 L 625.00 534.74 L 624.79 538.02 L 624.60 539.37 L 624.29 540.31 L 623.39 542.36 L 622.71 543.43 L 621.91 544.32 L 621.08 544.80 L 620.16 544.99 L 618.46 544.85 L 617.70 544.65 L 616.24 544.28 L 612.52 543.38 L 607.57 542.27 L 599.86 540.71 L 597.45 540.27 L 590.00 538.26 L 594.56 525.00 Z" fill="#fee0bc" fill-rule="evenodd" group-id="6" id="脚" node-id="131" stroke="none" target-height="19.986023" target-width="170.99893" target-x="454.00052" target-y="525"/><path d="M 495.89 416.00 L 584.11 416.00 L 585.44 416.18 L 586.58 416.62 L 587.57 417.34 L 588.34 418.28 L 588.81 419.34 L 589.00 420.58 L 589.00 485.00 L 491.00 485.00 L 491.00 420.58 L 491.19 419.34 L 491.66 418.28 L 492.43 417.34 L 493.42 416.62 L 494.56 416.18 L 495.89 416.00 Z M 492.80 485.00 L 588.20 485.00 L 589.19 485.16 L 590.10 485.60 L 590.87 486.30 L 591.49 487.25 L 591.87 488.34 L 592.00 489.50 L 591.87 490.66 L 591.49 491.75 L 590.87 492.70 L 590.10 493.40 L 589.19 493.84 L 588.20 494.00 L 492.80 494.00 L 491.78 493.83 L 490.90 493.40 L 490.11 492.68 L 489.31 491.28 L 489.00 489.50 L 489.31 487.72 L 490.11 486.32 L 490.90 485.60 L 491.78 485.17 L 492.80 485.00 L 492.80 485.00 Z" fill="#825852" fill-rule="evenodd" group-id="6" id="电脑" node-id="132" stroke="none" target-height="78" target-width="103" target-x="489" target-y="416"/><path d="M 149.79 648.66 L 147.95 644.73 L 146.16 640.29 L 143.09 631.46 L 140.76 624.21 L 140.00 621.31 L 139.48 618.14 L 139.01 611.86 L 139.05 610.79 L 139.38 609.88 L 140.01 609.37 L 140.76 609.16 L 142.99 609.01 L 145.16 609.26 L 147.32 609.91 L 150.41 611.43 L 153.46 613.54 L 156.33 615.99 L 159.06 618.66 L 162.01 621.98 L 164.87 625.78 L 167.63 630.07 L 171.35 636.84 L 174.72 644.13 L 177.69 651.61 L 180.20 658.96 L 180.76 662.73 L 180.95 665.04 L 180.99 667.53 L 180.82 670.01 L 180.38 672.25 L 179.59 674.25 L 178.43 675.73 L 177.11 676.58 L 175.77 676.97 L 174.37 676.95 L 172.25 676.35 L 170.06 675.23 L 166.13 672.42 L 162.43 669.08 L 159.20 665.35 L 156.38 661.38 L 154.13 657.66 L 150.97 651.42 L 149.79 648.66 Z" fill="url(#linearGradient-17)" fill-rule="evenodd" group-id="7" id="路径" node-id="134" stroke="none" target-height="67.96094" target-width="41.98668" target-x="139.00658" target-y="609.0133"/><path d="M 194.95 701.53 L 196.64 700.42 L 198.08 698.73 L 199.21 696.70 L 200.07 694.44 L 201.60 690.28 L 203.30 686.55 L 205.18 683.21 L 208.40 678.50 L 211.86 674.25 L 219.28 666.30 L 222.99 662.33 L 226.61 658.12 L 231.94 651.05 L 234.41 647.34 L 236.74 643.43 L 239.09 639.01 L 240.25 636.51 L 241.20 634.03 L 241.84 631.58 L 241.99 629.54 L 241.77 628.30 L 241.24 627.34 L 240.38 626.59 L 239.30 626.17 L 237.67 626.01 L 235.28 626.24 L 232.64 626.93 L 229.86 628.04 L 226.90 629.61 L 222.65 632.42 L 218.37 635.81 L 214.27 639.48 L 210.50 643.20 L 204.12 650.17 L 200.07 655.10 L 197.75 658.43 L 195.47 662.31 L 193.39 666.39 L 191.53 670.54 L 189.88 674.69 L 188.59 678.38 L 187.56 681.89 L 187.00 684.41 L 187.28 690.76 L 187.91 695.22 L 188.76 698.23 L 189.76 700.16 L 190.83 701.31 L 192.00 701.88 L 193.34 701.98 L 194.95 701.53 Z" fill="url(#linearGradient-18)" fill-rule="evenodd" group-id="7" id="路径" node-id="135" stroke="none" target-height="75.97162" target-width="54.9888" target-x="187" target-y="626.00507"/><path d="M 160.80 739.63 L 161.53 740.75 L 162.34 741.46 L 163.25 741.86 L 164.75 741.98 L 166.21 741.58 L 167.48 740.75 L 168.36 739.63 L 169.81 736.92 L 170.31 735.66 L 170.70 733.93 L 170.91 731.87 L 171.00 728.48 L 170.77 724.67 L 170.13 720.59 L 169.16 716.57 L 167.99 712.93 L 166.58 709.58 L 165.26 707.23 L 164.57 705.88 L 162.73 703.30 L 160.32 700.58 L 156.71 697.26 L 154.02 695.18 L 150.82 693.08 L 147.03 690.98 L 143.25 689.16 L 139.25 687.92 L 135.16 687.22 L 131.35 687.00 L 127.72 687.20 L 124.94 687.73 L 123.22 688.34 L 122.17 688.98 L 121.59 689.63 L 121.14 690.83 L 120.99 691.99 L 121.14 693.16 L 121.74 694.87 L 122.67 696.47 L 124.72 699.06 L 126.73 701.09 L 129.10 703.09 L 134.90 707.50 L 138.33 710.17 L 142.59 713.73 L 146.41 717.50 L 150.15 721.90 L 153.80 727.01 L 157.35 732.90 L 160.80 739.63 Z" fill="url(#linearGradient-19)" fill-rule="evenodd" group-id="7" id="路径" node-id="136" stroke="none" target-height="54.97699" target-width="50.008545" target-x="120.991455" target-y="687.0001"/><path d="M 236.18 671.03 L 240.34 669.01 L 242.43 667.90 L 243.95 667.14 L 246.38 666.22 L 251.22 664.60 L 254.20 663.90 L 259.19 663.27 L 264.75 663.00 L 267.39 663.09 L 269.44 663.35 L 271.13 663.91 L 271.84 664.60 L 271.97 665.66 L 271.60 666.88 L 270.56 668.38 L 268.44 670.44 L 265.40 672.78 L 258.58 677.17 L 252.27 680.90 L 249.79 682.48 L 248.69 683.36 L 244.14 686.39 L 239.86 689.85 L 235.87 693.51 L 232.51 696.86 L 227.39 702.08 L 226.18 703.41 L 224.98 705.06 L 222.76 708.70 L 220.72 712.18 L 218.22 716.41 L 216.98 718.31 L 215.42 720.26 L 214.15 721.56 L 212.81 722.66 L 211.35 723.51 L 209.83 723.95 L 208.05 723.87 L 206.32 723.15 L 204.84 721.89 L 203.64 720.11 L 202.71 717.88 L 202.23 716.03 L 202.02 714.20 L 202.03 712.33 L 202.37 708.01 L 202.90 704.64 L 203.99 700.90 L 204.77 699.30 L 205.56 698.38 L 206.88 696.97 L 208.52 694.95 L 209.83 693.50 L 210.80 692.38 L 211.27 691.31 L 211.77 688.96 L 212.18 687.79 L 213.05 686.49 L 214.46 684.96 L 216.79 682.54 L 219.17 680.22 L 220.72 679.02 L 223.95 677.44 L 228.15 675.12 L 231.34 673.41 L 236.18 671.03 Z" fill="url(#linearGradient-20)" fill-rule="evenodd" group-id="7" id="路径" node-id="137" stroke="none" target-height="60.95337" target-width="69.95401" target-x="202.01825" target-y="663"/><path d="M 224.08 728.16 L 227.06 725.47 L 230.28 723.32 L 237.11 719.71 L 240.31 718.27 L 243.48 717.34 L 246.70 716.94 L 249.89 717.13 L 253.24 717.82 L 254.93 718.12 L 256.61 718.24 L 258.28 718.06 L 259.97 717.47 L 260.45 717.16 L 260.76 716.72 L 260.78 716.17 L 260.55 715.34 L 259.77 713.61 L 259.10 712.21 L 257.80 709.59 L 256.04 707.35 L 253.90 705.47 L 251.44 704.02 L 248.74 703.05 L 245.83 702.57 L 242.33 702.65 L 238.75 703.37 L 235.27 704.65 L 231.86 706.46 L 228.68 708.72 L 225.75 711.39 L 223.15 714.40 L 220.89 717.63 L 218.96 721.10 L 217.36 724.74 L 216.11 728.43 L 215.19 732.18 L 214.87 735.27 L 215.00 736.80 L 215.38 738.16 L 215.84 738.75 L 216.54 738.93 L 217.18 738.66 L 217.76 738.15 L 219.36 736.05 L 220.65 733.71 L 221.89 731.32 L 223.31 729.08 L 224.08 728.16 Z" fill="url(#linearGradient-21)" fill-rule="evenodd" group-id="7,16" id="路径" node-id="138" stroke="none" target-height="36.367737" target-width="45.912888" target-x="214.86818" target-y="702.5651"/><path d="M 179.77 690.29 L 182.04 705.16 L 183.77 720.19 L 185.23 735.68 L 186.53 751.20 L 188.83 782.79 L 190.67 814.63 L 190.87 818.67 L 190.99 819.41 L 191.27 820.00 L 191.70 820.43 L 192.26 820.60 L 192.79 820.48 L 193.30 820.08 L 193.64 819.51 L 193.76 818.78 L 191.97 786.62 L 189.67 754.33 L 186.94 722.80 L 185.30 707.75 L 183.18 692.84 L 181.84 685.37 L 180.29 677.97 L 178.49 670.66 L 176.41 663.51 L 175.25 660.01 L 174.90 659.43 L 174.40 659.12 L 173.84 659.06 L 173.30 659.26 L 172.85 659.75 L 172.60 660.39 L 172.55 661.09 L 172.70 661.81 L 174.87 668.73 L 176.75 675.82 L 178.37 683.01 L 179.77 690.29 Z" fill="url(#linearGradient-22)" fill-rule="evenodd" group-id="7,17" id="路径" node-id="139" stroke="none" target-height="161.54553" target-width="21.208054" target-x="172.55267" target-y="659.05774"/><path d="M 197.52 679.73 L 193.61 689.16 L 190.14 698.90 L 187.08 708.96 L 184.43 719.41 L 182.21 730.04 L 180.44 740.86 L 178.99 752.83 L 178.00 764.86 L 177.49 776.97 L 177.42 789.11 L 177.74 801.21 L 178.46 813.28 L 178.81 817.67 L 179.03 818.36 L 179.45 818.83 L 180.00 819.08 L 180.55 819.06 L 181.08 818.74 L 181.43 818.20 L 181.61 817.53 L 181.63 816.77 L 180.81 805.00 L 180.37 793.19 L 180.30 781.35 L 180.64 769.50 L 181.43 757.72 L 182.66 745.98 L 184.26 735.12 L 186.31 724.43 L 188.80 713.91 L 191.60 704.07 L 194.81 694.53 L 198.42 685.26 L 202.52 676.17 L 207.02 667.53 L 211.93 659.32 L 213.89 656.35 L 214.20 655.72 L 214.34 655.02 L 214.27 654.32 L 213.97 653.67 L 213.51 653.26 L 212.96 653.09 L 212.41 653.18 L 211.93 653.60 L 206.72 661.84 L 201.91 670.54 L 197.52 679.73 Z" fill="url(#linearGradient-23)" fill-rule="evenodd" group-id="7,18" id="路径" node-id="140" stroke="none" target-height="165.99597" target-width="36.91896" target-x="177.41846" target-y="653.08826"/><path d="M 212.70 705.19 L 208.63 712.00 L 205.03 719.26 L 201.88 727.00 L 199.16 735.31 L 196.96 743.87 L 195.27 752.71 L 193.94 763.10 L 193.19 773.57 L 193.00 784.13 L 193.32 794.72 L 194.03 805.26 L 195.15 815.74 L 195.64 819.62 L 195.88 820.30 L 196.32 820.75 L 196.89 820.98 L 197.44 820.94 L 197.96 820.60 L 198.31 820.05 L 198.47 819.38 L 198.46 818.62 L 197.27 808.46 L 196.45 798.24 L 195.99 787.94 L 195.94 780.28 L 196.17 772.62 L 196.69 764.99 L 197.54 757.44 L 198.67 750.35 L 200.12 743.38 L 201.65 737.47 L 202.52 734.51 L 203.41 731.75 L 205.52 726.00 L 207.88 720.46 L 210.50 715.12 L 211.94 712.50 L 213.25 710.26 L 216.42 705.44 L 219.80 700.98 L 223.46 696.84 L 227.26 693.21 L 229.28 691.51 L 229.70 691.02 L 229.95 690.36 L 229.99 689.64 L 229.81 688.93 L 229.41 688.38 L 228.91 688.07 L 228.35 688.01 L 227.80 688.26 L 223.69 691.87 L 219.81 695.88 L 216.14 700.31 L 212.70 705.19 Z" fill="url(#linearGradient-24)" fill-rule="evenodd" group-id="7" id="路径" node-id="141" stroke="none" target-height="132.97107" target-width="36.986115" target-x="193.00424" target-y="688.0122"/><path d="M 214.39 734.85 L 211.61 740.65 L 209.08 746.67 L 206.81 752.90 L 204.76 759.35 L 202.98 765.94 L 201.45 772.67 L 199.70 782.91 L 198.55 793.31 L 198.04 803.46 L 198.14 813.63 L 198.25 816.10 L 198.40 816.83 L 198.70 817.44 L 199.17 817.86 L 199.74 818.00 L 200.29 817.84 L 200.79 817.43 L 201.13 816.85 L 201.23 816.10 L 200.98 806.03 L 201.34 795.97 L 201.74 790.89 L 201.86 789.68 L 201.89 789.38 L 201.87 789.60 L 201.89 789.43 L 201.97 788.67 L 202.79 782.41 L 203.83 776.20 L 206.00 766.34 L 208.74 756.76 L 208.92 756.19 L 209.01 755.91 L 209.07 755.74 L 209.05 755.78 L 209.04 755.83 L 209.09 755.66 L 209.19 755.38 L 209.40 754.74 L 211.95 747.83 L 213.84 743.33 L 215.87 738.94 L 218.06 734.67 L 220.37 730.54 L 220.94 729.58 L 221.02 729.45 L 220.93 729.60 L 221.08 729.36 L 221.41 728.83 L 222.64 726.88 L 226.57 721.22 L 226.88 720.61 L 227.00 719.88 L 226.90 719.15 L 226.57 718.54 L 226.07 718.14 L 225.52 718.00 L 224.97 718.12 L 224.47 718.54 L 220.87 723.68 L 217.51 729.11 L 214.39 734.85 Z" fill="url(#linearGradient-25)" fill-rule="evenodd" group-id="7" id="路径" node-id="142" stroke="none" target-height="99.9978" target-width="28.96341" target-x="198.03622" target-y="718.0004"/><path d="M 154.18 718.14 L 154.52 718.67 L 154.65 718.86 L 154.70 718.94 L 154.75 719.02 L 156.04 721.08 L 158.53 725.35 L 160.81 729.69 L 162.94 734.18 L 164.92 738.78 L 166.76 743.50 L 166.95 744.03 L 167.01 744.18 L 166.95 744.04 L 167.06 744.34 L 168.33 748.00 L 169.86 752.80 L 172.60 762.75 L 174.90 772.91 L 176.85 783.28 L 178.51 793.75 L 179.06 797.62 L 179.15 798.29 L 179.21 798.72 L 179.90 804.02 L 181.18 814.54 L 181.48 817.15 L 181.65 817.87 L 181.96 818.46 L 182.43 818.87 L 183.00 818.98 L 183.53 818.80 L 184.02 818.37 L 184.34 817.78 L 184.41 817.04 L 181.69 795.33 L 180.08 784.76 L 178.19 774.27 L 175.96 763.98 L 173.31 753.89 L 171.24 747.21 L 168.93 740.71 L 166.37 734.37 L 163.53 728.21 L 160.42 722.35 L 157.05 716.76 L 155.51 714.43 L 155.03 714.02 L 154.46 713.92 L 153.89 714.09 L 153.43 714.51 L 153.14 715.17 L 153.07 715.85 L 153.20 716.53 L 153.52 717.17 L 154.18 718.14 Z" fill="url(#linearGradient-26)" fill-rule="evenodd" group-id="7,19" id="路径" node-id="143" stroke="none" target-height="105.05823" target-width="31.344894" target-x="153.06589" target-y="713.9198"/><path d="M 198.95 796.74 L 201.65 802.19 L 204.31 807.00 L 206.14 809.80 L 207.19 810.95 L 208.29 811.71 L 209.52 812.00 L 210.75 811.69 L 211.78 810.83 L 212.59 809.24 L 212.93 807.35 L 213.00 805.30 L 212.86 795.83 L 212.31 786.44 L 211.65 780.21 L 210.71 774.19 L 209.50 768.38 L 207.92 762.68 L 205.98 757.34 L 203.68 752.34 L 201.87 749.36 L 199.74 746.69 L 197.35 744.42 L 195.03 742.87 L 193.39 742.21 L 191.95 742.01 L 190.64 742.21 L 189.52 742.84 L 188.53 744.04 L 187.66 746.03 L 187.21 748.20 L 187.01 751.32 L 187.19 755.66 L 188.10 762.81 L 189.54 769.99 L 191.42 777.07 L 193.66 783.92 L 196.23 790.57 L 198.95 796.74 Z" fill="url(#linearGradient-27)" fill-rule="evenodd" group-id="7" id="路径" node-id="144" stroke="none" target-height="69.99121" target-width="25.990173" target-x="187.00784" target-y="742.00867"/><path d="M 167.50 899.00 L 219.50 899.00 L 220.72 899.17 L 221.77 899.61 L 222.68 900.32 L 223.39 901.23 L 223.83 902.28 L 224.00 903.50 L 224.00 903.50 L 223.83 904.72 L 223.39 905.77 L 222.68 906.68 L 221.77 907.39 L 220.72 907.83 L 219.50 908.00 L 167.50 908.00 L 166.28 907.83 L 165.23 907.39 L 164.32 906.68 L 163.61 905.77 L 163.17 904.72 L 163.00 903.50 L 163.00 903.50 L 163.17 902.28 L 163.61 901.23 L 164.32 900.32 L 165.23 899.61 L 166.28 899.17 L 167.50 899.00 Z" fill="#f1bc01" fill-opacity="0.3" fill-rule="evenodd" group-id="7,20" id="矩形" node-id="145" stroke="none" target-height="9" target-width="61" target-x="163" target-y="899"/><path d="M 168.80 818.00 L 219.20 818.00 L 220.83 818.23 L 222.23 818.81 L 223.44 819.76 L 224.39 820.97 L 224.97 822.37 L 225.20 824.00 L 225.15 824.75 L 215.99 897.75 L 215.62 899.20 L 214.96 900.44 L 214.01 901.50 L 212.84 902.31 L 211.53 902.81 L 210.04 903.00 L 177.96 903.00 L 176.47 902.81 L 175.16 902.31 L 173.99 901.50 L 173.04 900.44 L 172.38 899.20 L 172.01 897.75 L 162.85 824.75 L 162.87 823.10 L 163.28 821.64 L 164.06 820.32 L 165.15 819.23 L 166.47 818.48 L 168.05 818.05 L 168.80 818.00 Z" fill="#825852" fill-rule="evenodd" group-id="7" id="矩形" node-id="146" stroke="none" target-height="85" target-width="62.353302" target-x="162.8467" target-y="818"/><path d="M 843.16 840.23 L 843.00 840.83 L 842.51 841.43 L 841.57 842.07 L 839.85 842.77 L 837.37 843.38 L 834.66 843.74 L 831.47 843.88 L 828.29 843.74 L 825.57 843.38 L 823.09 842.77 L 821.38 842.07 L 820.43 841.43 L 819.95 840.83 L 819.78 840.23 L 819.95 839.63 L 820.43 839.02 L 821.38 838.38 L 823.09 837.68 L 825.57 837.07 L 828.29 836.71 L 831.47 836.57 L 834.66 836.71 L 837.37 837.07 L 839.85 837.68 L 841.57 838.38 L 842.51 839.02 L 843.00 839.63 L 843.16 840.23 Z" fill="#825852" fill-rule="evenodd" group-id="8" id="椭圆形" node-id="148" stroke="none" target-height="7.305359" target-width="23.377197" target-x="819.78436" target-y="836.57465"/><path d="M 819.06 838.80 L 819.88 829.47 L 821.09 821.58 L 822.61 814.96 L 824.40 809.44 L 826.41 804.88 L 828.60 801.16 L 830.95 798.16 L 833.47 795.78 L 836.17 793.96 L 839.07 792.64 L 842.49 792.24 L 844.07 792.20 L 845.24 792.39 L 846.10 792.89 L 846.45 793.78 L 846.27 794.97 L 845.25 797.09 L 844.01 798.67 L 842.42 800.08 L 838.43 803.40 L 836.24 805.75 L 833.57 809.40 L 831.08 813.81 L 828.14 820.42 L 825.45 828.04 L 822.41 838.78 L 821.68 839.72 L 820.97 840.00 L 820.15 839.77 L 819.06 838.80 Z" fill="url(#linearGradient-28)" fill-rule="evenodd" group-id="8" id="路径-42" node-id="149" stroke="none" target-height="47.79962" target-width="27.387878" target-x="819.0627" target-y="792.20374"/><path d="M 818.84 838.46 L 816.11 818.11 L 813.99 804.64 L 812.38 796.31 L 811.17 791.63 L 809.16 785.08 L 808.19 781.48 L 807.44 778.05 L 807.03 774.73 L 807.12 772.18 L 807.53 770.69 L 808.25 769.72 L 809.29 769.13 L 810.51 768.99 L 812.35 769.37 L 815.06 770.54 L 816.88 771.76 L 818.58 773.35 L 820.16 775.36 L 821.63 777.86 L 823.17 781.35 L 824.50 785.38 L 825.59 790.04 L 826.35 794.75 L 826.87 799.74 L 827.13 805.03 L 827.06 812.94 L 826.45 820.77 L 825.31 828.40 L 823.74 835.20 L 822.48 838.28 L 821.53 839.76 L 820.81 840.30 L 820.21 840.30 L 819.58 839.81 L 818.84 838.46 Z" fill="url(#linearGradient-29)" fill-rule="evenodd" group-id="8" id="路径-41" node-id="150" stroke="none" target-height="71.31036" target-width="20.106262" target-x="807.02704" target-y="768.9943"/><path d="M 655.50 285.00 L 655.50 284.90 C 650.16 269.61 632.76 262.42 618.00 264.64 C 628.95 257.73 647.01 255.89 655.50 266.48 L 655.50 266.58 C 663.97 256.08 682.14 257.83 693.00 264.73 C 678.25 262.61 660.85 269.80 655.50 284.99 L 655.50 285.00 Z M 739.00 273.00 L 739.00 272.94 C 735.29 262.35 723.24 257.38 713.00 258.90 C 720.59 254.12 733.12 252.85 739.00 260.18 L 739.00 260.25 C 744.88 252.98 757.47 254.19 765.00 258.97 C 754.76 257.50 742.71 262.48 739.00 273.00 L 739.00 273.00 Z M 704.00 238.00 L 704.00 237.94 C 700.29 227.35 688.24 222.38 678.00 223.90 C 685.59 219.12 698.12 217.85 704.00 225.18 L 704.00 225.25 C 709.88 217.98 722.47 219.19 730.00 223.97 C 719.76 222.50 707.71 227.48 704.00 238.00 L 704.00 238.00 Z M 810.00 278.00 L 810.00 277.96 C 807.44 270.90 799.08 267.58 792.00 268.60 C 797.25 265.42 805.93 264.56 810.00 269.45 L 810.00 269.50 C 814.08 264.65 822.79 265.46 828.00 268.65 C 820.92 267.66 812.56 270.99 810.00 278.00 Z" fill="url(#linearGradient-30)" fill-rule="evenodd" id="大雁" node-id="151" stroke="none" target-height="67.152374" target-width="210" target-x="618" target-y="217.84763"/></svg>