<?xml version="1.0" standalone="no"?>
<!DOCTYPE svg PUBLIC "-//W3C//DTD SVG 1.1//EN" "http://www.w3.org/Graphics/SVG/1.1/DTD/svg11.dtd"><svg t="1718545836838"
  class="icon" viewBox="0 0 1024 1024" version="1.1" xmlns="http://www.w3.org/2000/svg" p-id="16898"
  xmlns:xlink="http://www.w3.org/1999/xlink" width="200" height="200">
  <path
    d="M761.173333 614.4h-54.613333a23.893333 23.893333 0 0 0 0 47.786667h54.613333V716.8a23.893333 23.893333 0 0 0 47.786667 0v-54.613333h54.613333a23.893333 23.893333 0 0 0 0-47.786667h-54.613333v-54.613333a23.893333 23.893333 0 0 0-47.786667 0V614.4zM136.533333 136.533333h750.933334a102.4 102.4 0 0 1 102.4 102.4v546.133334a102.4 102.4 0 0 1-102.4 102.4H136.533333a102.4 102.4 0 0 1-102.4-102.4V238.933333a102.4 102.4 0 0 1 102.4-102.4z m350.0032 518.826667a93.525333 93.525333 0 0 0-7.543466-36.9664 95.709867 95.709867 0 0 0-20.241067-30.378667 95.573333 95.573333 0 0 0-30.276267-20.206933 92.535467 92.535467 0 0 0-36.864-7.611733h-126.293333c-26.3168 0-48.503467 9.3184-66.730667 27.8528a92.637867 92.637867 0 0 0-27.2384 67.2768v95.163733h315.1872V655.36zM329.557333 307.2c-24.849067 0-48.7424 9.591467-66.6624 26.8288a92.296533 92.296533 0 0 0-20.718933 30.378667 95.163733 95.163733 0 0 0-7.543467 37.956266c0 13.448533 2.491733 25.941333 7.543467 37.444267 10.001067 22.869333 28.194133 41.096533 51.029333 51.0976 11.4688 5.051733 23.620267 7.5776 36.352 7.5776 14.165333 0 27.101867-2.525867 38.912-7.5776 11.776-5.051733 21.845333-12.014933 30.3104-20.753067 8.430933-8.772267 15.1552-18.909867 20.206934-30.378666a92.501333 92.501333 0 0 0 7.5776-37.410134c0-27.716267-9.079467-50.4832-27.272534-68.334933C381.064533 316.074667 357.888 307.2 329.5232 307.2h0.034133z m420.215467-34.133333l43.144533 43.144533-81.1008 81.1008-69.051733-69.0176L546.133333 424.925867l24.1664 27.648 72.465067-72.4992 69.051733 69.0176 107.008-107.008L853.333333 376.6272V273.066667h-103.560533z"
    fill="#FFF" p-id="16899"></path>
</svg>