<?xml version="1.0" encoding="UTF-8"?>
<svg width="30px" height="30px" viewBox="0 0 30 30" version="1.1" xmlns="http://www.w3.org/2000/svg" xmlns:xlink="http://www.w3.org/1999/xlink">
    <title>g</title>
    <defs>
        <linearGradient x1="50%" y1="24.9353444%" x2="50%" y2="100%" id="linearGradient-1">
            <stop stop-color="#FFFFFF" offset="0%"></stop>
            <stop stop-color="#C4E9FF" offset="100%"></stop>
        </linearGradient>
    </defs>
    <g id="页面-1" stroke="none" stroke-width="1" fill="none" fill-rule="evenodd">
        <g id="个人中心-Security-Center" transform="translate(-501, -775)">
            <g id="03" transform="translate(479, 562)">
                <g id="g" transform="translate(22, 213)">
                    <rect id="矩形" fill="#D8D8D8" opacity="0" x="0" y="0" width="30" height="30"></rect>
                    <g id="1" transform="translate(6, 3)" fill="url(#linearGradient-1)" fill-rule="nonzero">
                        <path d="M17.9345794,3.125 C17.9345794,3.125 16.5140187,3.125 14.2056075,2.23214285 C11.7196262,1.33928569 10.2102804,0.357142847 10.2102804,0.357142847 L9.5,0 L8.87850466,0.357142847 C8.87850466,0.357142847 7.28037383,1.33928569 4.88317755,2.23214285 C2.48598129,3.03571428 1.15420558,3.125 1.15420558,3.125 L0,3.21428572 L0,15.5357143 C0,20.0892857 8.43457943,25 9.5,25 C10.4766355,25 19,20.0892857 19,15.5357143 L19,3.21428572 L17.9345794,3.125 Z M8.87850466,17.3214286 L4.43925232,13.2142857 L5.77102802,11.5178572 L8.61214951,14.1071429 L13.9392523,7.41071431 L15.5373831,8.92857146 L8.87850466,17.3214286 L8.87850466,17.3214286 Z" id="形状"></path>
                    </g>
                </g>
            </g>
        </g>
    </g>
</svg>