<?xml version="1.0" encoding="UTF-8"?>
<svg width="25px" height="25px" viewBox="0 0 25 25" version="1.1" xmlns="http://www.w3.org/2000/svg" xmlns:xlink="http://www.w3.org/1999/xlink">
    <title>Bet Records</title>
    <g id="页面-1" stroke="none" stroke-width="1" fill="none" fill-rule="evenodd">
        <g id="个人中心" transform="translate(-1447, -200)">
            <g id="内容" transform="translate(1438, 79)">
                <g id="Bet-Records" transform="translate(9, 121)">
                    <rect id="矩形" fill="#D8D8D8" opacity="0" x="0" y="0" width="25" height="25"></rect>
                    <g id="投注记录" transform="translate(4, 3)" fill="#BFDBFF" fill-rule="nonzero">
                        <path d="M14.8652714,0 L2.1236102,0 C0.945062132,0 0,0.967397308 0,2.1571848 L0,16.5013518 C0,17.6911393 0.95618051,18.6585366 2.1236102,18.6585366 L14.8763898,18.6585366 C16.0438195,18.6585366 17,17.6911393 17,16.5013518 L17,2.1571848 C16.9888816,0.967397308 16.0438195,0 14.8652714,0 L14.8652714,0 Z M7.41595814,4.69243292 C7.41595814,4.10309893 7.8940484,3.61384052 8.48332243,3.61384052 C9.07259647,3.61384052 9.55068672,4.09197942 9.55068672,4.69243292 C9.55068672,5.28176691 9.07259647,5.77102532 8.48332243,5.77102532 C7.88293002,5.77102532 7.41595814,5.29288642 7.41595814,4.69243292 L7.41595814,4.69243292 Z M2.82406802,4.69243292 C2.82406802,4.10309893 3.30215827,3.61384052 3.89143231,3.61384052 C4.48070634,3.61384052 4.9587966,4.09197942 4.9587966,4.69243292 C4.9587966,5.28176691 4.48070634,5.77102532 3.89143231,5.77102532 C3.30215827,5.77102532 2.82406802,5.29288642 2.82406802,4.69243292 L2.82406802,4.69243292 Z M3.53564421,8.62873921 L11.351864,8.62873921 C11.7410072,8.62873921 12.0634402,8.95120498 12.0634402,9.3403878 C12.0634402,9.74069014 11.7521256,10.0631559 11.351864,10.0631559 L3.53564421,10.0631559 C3.14650098,10.0631559 2.82406802,9.74069014 2.82406802,9.3403878 C2.82406802,8.95120498 3.1353826,8.62873921 3.53564421,8.62873921 L3.53564421,8.62873921 Z M13.4310007,14.344167 L3.53564421,14.344167 C3.14650098,14.344167 2.82406802,14.0217012 2.82406802,13.6213989 C2.82406802,13.2210965 3.1353826,12.9097503 3.53564421,12.9097503 L13.4310007,12.9097503 C13.8201439,12.9097503 14.1425768,13.2322161 14.1425768,13.6213989 C14.1425768,14.0217012 13.8201439,14.344167 13.4310007,14.344167 Z M13.0863309,5.77102532 C12.4970569,5.77102532 12.0189666,5.29288642 12.0189666,4.69243292 C12.0189666,4.10309893 12.4970569,3.61384052 13.0863309,3.61384052 C13.675605,3.61384052 14.1536952,4.09197942 14.1536952,4.69243292 C14.1425768,5.29288642 13.6644866,5.77102532 13.0863309,5.77102532 Z" id="形状"></path>
                        <path d="M14.8300813,1.45121951 L2.15886179,1.45121951 C1.77186992,1.45121951 1.45121951,1.77345282 1.45121951,2.16235509 L1.45121951,16.4961815 C1.45121951,16.8850838 1.76081301,17.2073171 2.15886179,17.2073171 L14.8411382,17.2073171 C15.2281301,17.2073171 15.5487805,16.8850838 15.5487805,16.4961815 L15.5487805,2.16235509 C15.5377236,1.77345282 15.2170732,1.45121951 14.8300813,1.45121951 L14.8300813,1.45121951 Z M7.42195122,4.70688706 C7.42195122,4.11797791 7.89739837,3.62907221 8.48341463,3.62907221 C9.06943089,3.62907221 9.54487805,4.10686642 9.54487805,4.70688706 C9.54487805,5.29579621 9.06943089,5.78470192 8.48341463,5.78470192 C7.88634146,5.78470192 7.42195122,5.3069077 7.42195122,4.70688706 L7.42195122,4.70688706 Z M2.85544715,4.70688706 C2.85544715,4.11797791 3.33089431,3.62907221 3.91691057,3.62907221 C4.50292683,3.62907221 4.97837398,4.10686642 4.97837398,4.70688706 C4.97837398,5.29579621 4.50292683,5.78470192 3.91691057,5.78470192 C3.33089431,5.78470192 2.85544715,5.3069077 2.85544715,4.70688706 L2.85544715,4.70688706 Z M3.56308943,8.64035571 L11.3360976,8.64035571 C11.7230894,8.64035571 12.0437398,8.96258901 12.0437398,9.35149128 C12.0437398,9.75150504 11.7341463,10.0737383 11.3360976,10.0737383 L3.56308943,10.0737383 C3.17609756,10.0737383 2.85544715,9.75150504 2.85544715,9.35149128 C2.85544715,8.96258901 3.16504065,8.64035571 3.56308943,8.64035571 L3.56308943,8.64035571 Z M13.4037398,14.3516633 L3.56308943,14.3516633 C3.17609756,14.3516633 2.85544715,14.02943 2.85544715,13.6294162 C2.85544715,13.2294025 3.16504065,12.9182806 3.56308943,12.9182806 L13.4037398,12.9182806 C13.7907317,12.9182806 14.1113821,13.2405139 14.1113821,13.6294162 C14.1113821,14.02943 13.7907317,14.3516633 13.4037398,14.3516633 Z M13.0609756,5.78470192 C12.4749593,5.78470192 11.9995122,5.3069077 11.9995122,4.70688706 C11.9995122,4.11797791 12.4749593,3.62907221 13.0609756,3.62907221 C13.6469919,3.62907221 14.122439,4.10686642 14.122439,4.70688706 C14.1113821,5.3069077 13.635935,5.78470192 13.0609756,5.78470192 Z" id="形状"></path>
                    </g>
                </g>
            </g>
        </g>
    </g>
</svg>