<?xml version="1.0" encoding="UTF-8"?>
<svg width="50px" height="50px" viewBox="0 0 50 50" version="1.1" xmlns="http://www.w3.org/2000/svg" xmlns:xlink="http://www.w3.org/1999/xlink">
    <title>编辑</title>
    <g id="APP" stroke="none" stroke-width="1" fill="none" fill-rule="evenodd">
        <g id="个人中心" transform="translate(-667, -13)" fill="#BFDBFF">
            <g id="编辑" transform="translate(667, 13)">
                <rect id="矩形" opacity="0" x="0" y="0" width="50" height="50"></rect>
                <path d="M31,41.5333333 L27.3181818,38 L25,44 L31,41.5333333 L31,41.5333333 Z M43,29.9041096 L39.1805556,26 L28,36.890411 L32.0277778,41 L43,29.9041096 L43,29.9041096 Z M45.7743831,26.8555957 C46.2820212,26.3357401 45.7743831,25.2310469 45.7743831,25.2310469 C45.7743831,25.2310469 44.8225617,24.1913357 43.7438308,23.3465704 C42.6650999,22.566787 41.840188,23.3465704 41.840188,23.3465704 L40,25.2310469 L43.680376,29 C43.7438308,29 45.266745,27.3754513 45.7743831,26.8555957 Z M26.8697917,27.8039604 C26.6666667,27.6019802 26.6666667,27.1980198 26.6666667,26.5920792 L26.8020833,26.1881188 L26.9375,25.9188119 C27.0052083,25.8514851 27.0729167,25.5821782 27.2083333,25.3128713 C27.4114583,24.8415842 27.6822917,24.2356436 27.8854167,23.7643564 L27.953125,23.5623762 L27.953125,23.4950495 L28.0208333,23.360396 C28.4270833,23.0910891 28.8333333,22.6871287 29.578125,21.8118812 C30.6614583,20.1960396 30.3229167,18.6475248 29.4427083,17.6376238 C29.9166667,16.2237624 30.0520833,14.6752475 29.984375,12.9247525 C29.8489583,10.5009901 27.6145833,7 22.1979167,7 C17.0520833,7 14.546875,10.0970297 14.4114583,12.9247525 C14.2760417,14.6752475 14.4791667,16.2237624 14.953125,17.570297 C14.140625,18.580198 13.8020833,20.1287129 14.8177083,21.8118812 C15.359375,22.619802 15.96875,23.0910891 16.2395833,23.2257426 L16.4427083,23.4950495 L16.5104167,23.6970297 C16.8489583,24.370297 17.1875,25.1108911 17.4583333,25.8514851 L17.6614583,26.2554455 L17.7291667,26.5247525 C17.7291667,26.9287129 17.7291667,27.5346535 17.5260417,27.7366337 C17.5260417,27.7366337 15.6979167,30.160396 11.5677083,31.1029703 C7.16666667,32.1128713 5,34.8732673 5,39.5188119 C5,40.1920792 5.609375,41 6.48958333,41 L20.3020833,41 L31,30.4970297 C28.2239583,29.4871287 26.8697917,27.8039604 26.8697917,27.8039604 Z M34,41 L38.3703704,41 C39.1111111,41 40,40.4 40,39.5333333 C40,38.2 39.8518519,37 39.4814815,36 L34,41 Z" id="形状" fill-rule="nonzero"></path>
            </g>
        </g>
    </g>
</svg>