<?xml version="1.0" encoding="UTF-8"?>
<svg width="48px" height="35px" viewBox="0 0 48 35" version="1.1" xmlns="http://www.w3.org/2000/svg" xmlns:xlink="http://www.w3.org/1999/xlink">
    <title>编组 2</title>
    <g id="页面-1" stroke="none" stroke-width="1" fill="none" fill-rule="evenodd">
        <g id="首页" transform="translate(-37, -193)">
            <g id="左侧" transform="translate(0, 79)">
                <g id="Blockchain01" transform="translate(11, 107)">
                    <g id="编组-2" transform="translate(26, 7)">
                        <rect id="矩形" fill="#D8D8D8" opacity="0" x="0" y="0" width="48" height="35"></rect>
                        <g id="blockchain-(1)" transform="translate(9, 2)" fill="#BFDBFF" fill-rule="nonzero">
                            <path d="M24.8002815,18.5999867 C27.5720705,18.6009814 30.006496,20.4414035 30.7630021,23.1077947 C31.5195082,25.7741858 30.4143015,28.618746 28.0559822,30.0750719 C25.6976628,31.5313978 22.6591847,31.2456748 20.6137352,29.375241 C18.5682857,27.5048072 18.012807,24.5040846 19.2531825,22.02547 L11.7452229,18.2744882 C10.4581492,20.8464123 7.57124951,22.1956403 4.77242282,21.5333118 C1.97359613,20.8709833 -0.00229506459,18.3710001 2.00073436e-06,15.4950404 C0.00230307451,12.6190808 1.98218876,10.1222594 4.78207081,9.46440604 C7.58195287,8.80655269 10.4666917,10.160394 11.7496517,12.7343723 L19.2631474,8.99224763 C18.0139802,6.51588248 18.5615706,3.51118523 20.6040349,1.63462919 C22.6464993,-0.241926858 25.6868923,-0.533762921 28.0490617,0.920008638 C30.4112311,2.3737802 31.5204451,5.21944692 30.7652001,7.88820818 C30.0099551,10.5569694 27.5740073,12.3994976 24.8002815,12.4000168 L24.8002815,18.5999867 L24.8002815,18.5999867 Z M23.2501939,18.79595 L23.2501939,12.2040535 C22.0442639,11.8925669 20.9601023,11.2251346 20.1389468,10.2887056 L12.2645022,14.2101866 C12.4460839,15.0626824 12.4460839,15.9461781 12.2645022,16.798674 L20.123446,20.729012 C20.9463143,19.7834206 22.0364894,19.1094373 23.2501939,18.79595 L23.2501939,18.79595 Z" id="形状"></path>
                        </g>
                    </g>
                </g>
            </g>
        </g>
    </g>
</svg>