<?xml version="1.0" encoding="UTF-8"?>
<svg width="18px" height="16px" viewBox="0 0 18 16" version="1.1" xmlns="http://www.w3.org/2000/svg" xmlns:xlink="http://www.w3.org/1999/xlink">
    <title>播放列表</title>
    <g id="页面-1" stroke="none" stroke-width="1">
        <g id="首页" transform="translate(-186, -360)">
            <g id="左侧" transform="translate(0, 79)">
                <g id="07" transform="translate(11, 267)">
                    <g id="播放列表" transform="translate(175, 14)">
                        <path d="M13.5,3.69230769 C13.8490079,3.69230769 14.1342582,3.95888832 14.1426562,4.29288462 C14.1525,4.68442308 14.249933,5.26134615 14.6583482,5.78615385 C14.7839646,5.9471997 14.9301456,6.09256043 15.0934821,6.21884615 C15.8590495,6.48186705 16.4496726,7.07584339 16.6863616,7.82076923 C16.7897362,8.14587089 16.5982591,8.48964447 16.2586607,8.58865385 C15.9190456,8.68761068 15.559925,8.50431643 15.4564955,8.17923077 C15.3312302,7.78574856 15.0095305,7.47779672 14.5984821,7.35788462 C14.5270575,7.33709731 14.459961,7.30455978 14.4002009,7.26173077 C14.3110045,7.19775641 14.2252232,7.13057692 14.1428571,7.06019231 L14.1428571,14.1538462 C14.1428571,15.1890385 13.0134375,16 11.5714286,16 C10.1294196,16 9,15.1890385 9,14.1538462 C9,13.1186538 10.1294196,12.3076923 11.5714286,12.3076923 C12.0429241,12.3076923 12.4810714,12.3934615 12.8571429,12.5473077 L12.8571429,4.30769231 C12.8571167,3.97073229 13.1401884,3.69641439 13.4921652,3.69230769 Z M17.2380952,12.952381 C17.6588836,12.952381 18,13.2934973 18,13.7142857 C18,14.1350741 17.6588836,14.4761905 17.2380952,14.4761905 L15.63147,14.4761905 C15.2106816,14.4761905 14.8695652,14.1350741 14.8695652,13.7142857 C14.8695652,13.2934973 15.2106816,12.952381 15.63147,12.952381 L17.2380952,12.952381 Z M7.06418219,12.952381 C7.48497058,12.952381 7.82608696,13.2934973 7.82608696,13.7142857 C7.82608696,14.1350741 7.48497058,14.4761905 7.06418219,14.4761905 L0.761904762,14.4761905 C0.341116381,14.4761905 2.57658572e-17,14.1350741 0,13.7142857 C-5.15317144e-17,13.2934973 0.341116381,12.952381 0.761904762,12.952381 L7.06418219,12.952381 Z M10.194617,6.0952381 C10.6154054,6.0952381 10.9565217,6.43635448 10.9565217,6.85714286 C10.9565217,7.27793124 10.6154054,7.61904762 10.194617,7.61904762 L0.761904762,7.61904762 C0.341116381,7.61904762 2.57658572e-17,7.27793124 0,6.85714286 C-5.15317144e-17,6.43635448 0.341116381,6.0952381 0.761904762,6.0952381 L10.194617,6.0952381 Z M0,0.761904762 C0,0.341116381 0.287816947,0 0.642857143,0 L17.3571429,0 C17.7121831,0 18,0.341116381 18,0.761904762 C18,1.18269314 17.7121831,1.52380952 17.3571429,1.52380952 L0.642857143,1.52380952 C0.287816947,1.52380952 0,1.18269314 0,0.761904762 Z" id="形状结合"></path>
                    </g>
                </g>
            </g>
        </g>
    </g>
</svg>