<?xml version="1.0" encoding="UTF-8"?>
<svg width="12px" height="7px" viewBox="0 0 12 7" version="1.1" xmlns="http://www.w3.org/2000/svg" xmlns:xlink="http://www.w3.org/1999/xlink">
    <title>向下</title>
    <g id="页面-1" stroke="none" stroke-width="1" fill="none" fill-rule="evenodd">
        <g id="首页" transform="translate(-582, -38)" fill="#BFDBFF" fill-rule="nonzero">
            <g id="编组" transform="translate(443, 22)">
                <g id="向下" transform="translate(139, 16)">
                    <path d="M10.9831355,0 C11.2488028,0 11.4640849,0.0508728006 11.6289819,0.152618402 C11.7938788,0.254364003 11.9038101,0.388483205 11.9587758,0.554976007 C12.0137414,0.721468809 12.0137414,0.908773211 11.9587758,1.11688921 C11.9038101,1.32500522 11.7847179,1.53080882 11.6014991,1.73430002 C10.8594628,2.56676403 10.1449094,3.38072884 9.45783885,4.17619445 C8.77076827,4.97166006 8.10660004,5.71625287 7.46533417,6.40997288 C7.29127629,6.59496488 7.08744535,6.73833368 6.85384135,6.84007928 C6.62023735,6.94182488 6.37976265,6.99501008 6.13241724,6.99963488 C5.88507183,7.00425968 5.64688736,6.96494888 5.41786384,6.88170248 C5.18884031,6.79845608 4.99646055,6.66896168 4.84072455,6.49321928 C4.48344785,6.09548647 4.11242973,5.68850407 3.72767021,5.27227206 L2.54590881,4.02357605 C2.16114928,3.60734404 1.77867999,3.19804924 1.39850094,2.79569163 C1.01832188,2.39333403 0.663335415,2.00253842 0.333541537,1.62330482 C0.177805538,1.44756242 0.0770351863,1.26488282 0.0312304809,1.07526601 C-0.0145742244,0.885649211 -0.0099937539,0.712219209 0.0449718926,0.554976007 C0.099937539,0.397732805 0.205288361,0.268238403 0.36102436,0.166492802 C0.516760358,0.0647472008 0.718301062,0.0138744002 0.965646471,0.0138744002 C1.28627941,0.0138744002 1.72829482,0.0115620001 2.29169269,0.00693720008 C2.85509057,0.00231240003 3.47116386,0 4.13991255,0 L6.2011243,0 L8.22111181,0 L9.91130543,0 L10.9831355,0 Z" id="路径"></path>
                </g>
            </g>
        </g>
    </g>
</svg>