<?xml version="1.0" encoding="UTF-8"?>
<svg width="19px" height="19px" viewBox="0 0 19 19" version="1.1" xmlns="http://www.w3.org/2000/svg" xmlns:xlink="http://www.w3.org/1999/xlink">
    <title>关闭</title>
    <g id="页面-1" stroke="none" stroke-width="1" fill-rule="evenodd">
        <g id="首页" transform="translate(-499, -99)"  fill-rule="nonzero">
            <g id="下载" transform="translate(479, 79)">
                <g id="关闭" transform="translate(20, 20)">
                    <path d="M11.5357143,9.5 L18.5928571,2.44285715 C19.1357143,1.9 19.1357143,0.950000004 18.5928571,0.407142859 C18.05,-0.135714286 17.1,-0.135714286 16.5571429,0.407142859 L9.5,7.46428571 L2.44285715,0.407142859 C1.9,-0.135714286 0.950000004,-0.135714286 0.407142859,0.407142859 C-0.135714286,0.950000004 -0.135714286,1.9 0.407142859,2.44285715 L7.46428571,9.5 L0.407142859,16.5571429 C-0.135714286,17.1 -0.135714286,18.05 0.407142859,18.5928571 C0.950000004,19.1357143 1.9,19.1357143 2.44285715,18.5928571 L9.5,11.5357143 L16.5571429,18.5928571 C17.1,19.1357143 18.05,19.1357143 18.5928571,18.5928571 C19.1357143,18.05 19.1357143,17.1 18.5928571,16.5571429 L11.5357143,9.5 Z" id="路径"></path>
                </g>
            </g>
        </g>
    </g>
</svg>