<?xml version="1.0" encoding="UTF-8"?>
<svg width="18px" height="18px" viewBox="0 0 18 18" version="1.1" xmlns="http://www.w3.org/2000/svg" xmlns:xlink="http://www.w3.org/1999/xlink">
    <title>复制</title>
    <g id="页面-1" stroke="none" stroke-width="1" fill="none" fill-rule="evenodd">
        <g id="首页" transform="translate(-1608, -40)" fill-rule="nonzero">
            <g id="复制" transform="translate(1608, 40)">
                <path d="M4.72472967,8.52362169 C4.61523274,9.33407679 4.61523274,10.3307855 4.61523274,11.4168457 L4.61523274,13.291967 C4.61523274,13.5411442 4.61523274,13.6644743 4.53468327,13.7399825 C4.45413381,13.8142323 4.33330961,13.805423 4.09166121,13.7878044 C3.89224173,13.7736804 3.69329449,13.7535357 3.49509172,13.7273978 C2.68959705,13.6191693 2.02128819,13.4014539 1.45744192,12.9383367 C1.25568948,12.7731037 1.07063066,12.5884833 0.904922918,12.3871266 C0.416591774,11.79187 0.202632253,11.0795756 0.0994282483,10.2150062 C0,9.37183091 0,8.30716474 0,6.96311809 L0,6.8813175 C0,5.53727085 0,4.47134621 0.100686834,3.62942934 C0.201373667,2.76360154 0.416591774,2.05256562 0.906181503,1.45730901 C1.06979761,1.25595371 1.25606825,1.07095852 1.45744192,0.904840395 C2.05275282,0.416553784 2.76511217,0.202613774 3.62976036,0.0994191811 C4.47301259,0 5.53777585,0 6.8806865,0 L6.96249455,0 C8.30666378,0 9.37142705,0 10.2146793,0.100677652 C11.0793275,0.201355303 11.7916868,0.416553784 12.3869977,0.906098866 C12.5883714,1.06970005 12.7733834,1.25595371 12.9382581,1.45730901 C13.4014176,2.02110386 13.6178943,2.69061024 13.7273912,3.49603146 C13.7525629,3.68228511 13.7727003,3.88112347 13.7878033,4.09128807 C13.8054235,4.33291444 13.8142336,4.45372762 13.739977,4.53426974 C13.6644619,4.61481186 13.5411205,4.61481186 13.2919206,4.61481186 L11.4166284,4.61481186 C10.3304691,4.61481186 9.33492807,4.61481186 8.52188189,4.72429881 C7.62828624,4.84385352 6.68183,5.12700941 5.90402421,5.90474427 C5.12621842,6.68247913 4.8430367,7.62884906 4.72347109,8.52236322 L4.72472967,8.52362169 Z" id="路径" fill="#5F94D8"></path>
                <path d="M12.4586738,6 L11.5400848,6 C10.4092273,6 9.49684494,6 8.77935244,6.09682425 C8.03455053,6.19613117 7.4076756,6.41088238 6.90865832,6.90865832 C6.41088238,7.4076756 6.19613117,8.03455053 6.09682425,8.77935244 C6,9.49684494 6,10.4092273 6,11.5400848 L6,12.4586738 C6,13.5907727 6,14.5031551 6.09682425,15.2206476 C6.19613117,15.9654495 6.41088238,16.5923244 6.90865832,17.0901003 C7.4076756,17.5891176 8.03455053,17.8026275 8.77935244,17.9031758 C9.49684494,18 10.4092273,18 11.5400848,18 L12.4586738,18 C13.5907727,18 14.5031551,18 15.2206476,17.9031758 C15.9654495,17.8038688 16.5923244,17.5891176 17.0901003,17.0901003 C17.5891176,16.5935657 17.8026275,15.9654495 17.9031758,15.2206476 C18,14.5031551 18,13.5907727 18,12.4586738 L18,11.5400848 C18,10.4092273 18,9.49684494 17.9031758,8.77935244 C17.8038688,8.03455053 17.5891176,7.4076756 17.0901003,6.90865832 C16.5935657,6.41088238 15.9654495,6.19613117 15.2206476,6.09682425 C14.5031551,6 13.5907727,6 12.4586738,6 L12.4586738,6 Z" id="路径" fill="#BFDBFF"></path>
            </g>
        </g>
    </g>
</svg>