<?xml version="1.0" encoding="UTF-8"?>
<svg width="28px" height="29px" viewBox="0 0 28 29" version="1.1" xmlns="http://www.w3.org/2000/svg" xmlns:xlink="http://www.w3.org/1999/xlink">
    <title>循环01</title>
    <g id="PC" stroke="none" stroke-width="1">
        <g id="个人中心-Music" transform="translate(-666, -338)">
            <g id="内容" transform="translate(655, 40)">
                <g id="02" transform="translate(0, 150)">
                    <g id="循环01" transform="translate(11, 148)">
                        <path d="M1.88667532,8.58012273 C2.28347589,7.99309864 3.10925366,7.82314838 3.72743467,8.20174126 C4.34273485,8.58287133 4.52108015,9.37075727 4.12157603,9.96057228 C3.16873165,11.3693117 2.66401088,13.0045387 2.66401088,14.6887337 C2.66401092,19.499185 6.76657347,23.4134965 11.8084184,23.4134965 L20.6621602,23.4134965 L20.6621602,21.1652391 C20.6621602,20.4416289 21.1911686,20.1635938 21.8363407,20.5445547 L27.5123663,23.9001319 C28.1575827,24.2813043 28.1629011,24.9121797 27.5259726,25.3037546 L21.8227786,28.8188795 C21.1858501,29.2127802 20.6648637,28.9424412 20.6648637,28.2188734 L20.6648637,25.9578031 L11.8084184,25.9578031 C8.65324879,25.9578031 5.68697272,24.7860807 3.45743478,22.6563107 C1.22811842,20.5292892 0,17.7016194 0,14.6912286 C0,12.5151123 0.65323844,10.4008615 1.88667532,8.58012273 Z M7.94634683,0.177050785 C8.56202991,-0.208989143 9.0609845,0.0577081492 9.0609845,0.768511868 L9.0609845,2.99733926 L16.6354828,2.99733926 C19.670125,2.99733926 22.5255787,4.15241617 24.6743472,6.25168819 C26.8177827,8.34608315 28,11.1385264 28,14.1034183 C28,15.1136416 27.864798,16.1165285 27.5920476,17.0837335 C27.4336791,17.6345522 26.9190668,18 26.3579082,18 C26.2435263,18 26.1293576,17.9849102 26.0149756,17.94927 C25.3316702,17.7666086 24.93144,17.0784812 25.1211664,16.4108626 C25.3342727,15.6647105 25.4406765,14.8878785 25.4406765,14.1009589 C25.4406765,9.36151701 21.4914052,5.50040881 16.6380853,5.50040881 L9.0609845,5.50040881 L9.0609845,7.72148292 C9.0609845,8.43224493 8.5517479,8.70902986 7.93585152,8.3332443 L2.46940836,5.02549757 C1.84830695,4.64992041 1.84318731,4.02790462 2.45631053,3.639572 Z" id="形状结合" fill-rule="nonzero"></path>
                        <text id="1" font-family="PingFangSC-Semibold, PingFang SC" font-size="15" font-weight="500" transform="translate(-1, 0)">
                            <tspan x="11" y="20">1</tspan>
                        </text>
                    </g>
                </g>
            </g>
        </g>
    </g>
</svg>