<?xml version="1.0" encoding="UTF-8"?>
<svg width="65px" height="65px" viewBox="0 0 65 65" version="1.1" xmlns="http://www.w3.org/2000/svg" xmlns:xlink="http://www.w3.org/1999/xlink">
    <title>Depositar</title>
    <defs>
        <linearGradient x1="50%" y1="24.9353444%" x2="50%" y2="100%" id="linearGradient-1">
            <stop stop-color="#DBF2FF" offset="0%"></stop>
            <stop stop-color="#98D9FF" offset="100%"></stop>
        </linearGradient>
    </defs>
    <g id="APP" stroke="none" stroke-width="1" fill="none" fill-rule="evenodd">
        <g id="个人中心" transform="translate(-340, -299)">
            <g id="01" transform="translate(0, 115)">
                <g id="编组-5" transform="translate(88, 184)">
                    <g id="Depositar" transform="translate(252, 0)">
                        <rect id="矩形" fill="#D8D8D8" opacity="0" x="0" y="0" width="65" height="65"></rect>
                        <g id="钱包" transform="translate(6, 10)" fill="url(#linearGradient-1)" fill-rule="nonzero">
                            <path d="M49.5135205,13 C51.4331773,13 53,14.6656913 53,16.7055596 L53,19.867959 L41.7870515,19.867959 C39.8135725,19.867959 38.2048882,21.5758961 38.2048882,23.6700805 C38.2048882,25.7582297 39.8195528,27.4722019 41.7870515,27.4722019 L53,27.4722019 L53,42.2944404 C53,44.3343087 51.4331773,46 49.5135205,46 L10.4864795,46 C8.56682267,46 7,44.3343087 7,42.2944404 L7,16.7055596 C7,14.6656913 8.56682267,13 10.4864795,13 Z M38.3164837,0.198319373 C40.1933732,-0.461467154 42.2520863,0.579663879 42.8914018,2.51059876 L46,11.874725 L8.9021064,11.874725 C6.91964189,11.874725 5.30082471,13.5453771 5.30082471,15.5913206 L5.30082471,33 L0.192166163,17.6191049 C-0.447149316,15.6821169 0.561678779,13.5574833 2.43270298,12.8976967 Z M42.5,22 C43.8807119,22 45,23.1192881 45,24.5 C45,25.8807119 43.8807119,27 42.5,27 C41.1192881,27 40,25.8807119 40,24.5 C40,23.1192881 41.1192881,22 42.5,22 Z" id="形状结合"></path>
                        </g>
                    </g>
                </g>
            </g>
        </g>
    </g>
</svg>