<?xml version="1.0" encoding="UTF-8"?>
<svg width="55px" height="52px" viewBox="0 0 55 52" version="1.1" xmlns="http://www.w3.org/2000/svg" xmlns:xlink="http://www.w3.org/1999/xlink">
    <title>Depósito</title>
    <defs>
        <linearGradient x1="50%" y1="13.1005188%" x2="50%" y2="100%" id="linearGradient-1">
            <stop stop-color="#F7FFD5" offset="0%"></stop>
            <stop stop-color="#CFFF00" offset="23.9064166%"></stop>
            <stop stop-color="#BFEB00" offset="82.4720742%"></stop>
            <stop stop-color="#98BB00" offset="100%"></stop>
        </linearGradient>
    </defs>
    <g id="APP" stroke="none" stroke-width="1" fill="none" fill-rule="evenodd">
        <g transform="translate(-421, -727)" id="导航栏2">
            <g transform="translate(0, 708)">
                <g id="Depósito01" transform="translate(401, 19)">
                    <g id="Depósito" transform="translate(20, 0)">
                        <rect id="矩形" fill="#D8D8D8" opacity="0" x="0" y="0" width="55" height="52"></rect>
                        <path d="M30.4954656,3 C34.6477585,3 37.9059199,3 40.4765482,3.33153315 C43.1013663,3.67476748 45.2317026,4.38463846 46.9996446,5.99549955 C47.5279951,6.47524752 48.0190901,7.00960096 48.4661559,7.5829583 C49.9699226,9.52925293 50.6405213,11.8811881 50.9622732,14.7713771 C50.9961419,15.1029103 51.016463,15.2706271 50.9825944,15.4149415 C50.9275427,15.6532763 50.7800683,15.8490183 50.5829447,15.9453945 C50.4610176,16 50.3086088,16 50.0037913,16 L3.99665657,16 C3.69183898,16 3.53943018,16 3.42089001,15.9453945 C3.22085801,15.8514683 3.07048497,15.6552054 3.01446656,15.4149415 C2.98910765,15.2005015 2.99713584,14.9825731 3.03817459,14.7713771 C3.35653963,11.8850885 4.03052519,9.52925293 5.53429196,7.5829583 C5.98220785,7.00580581 6.47289681,6.4746483 7.00080324,5.99549955 C8.76874526,4.38463846 10.8956947,3.67476748 13.5205128,3.33153315 C16.094528,3 19.3526893,3 23.5049822,3 L30.4954656,3 L30.4954656,3 Z M52,26.0705032 C52,30.6184372 52,34.2172371 51.685503,37.0646393 C51.3607507,39.991136 50.6838984,42.37979 49.1661086,44.3492431 C48.7141018,44.9357368 48.2188382,45.4756157 47.6859216,45.962771 C45.901493,47.5960725 43.7547091,48.3158325 41.1054137,48.6638484 C38.507395,49 35.2188503,49 31.0278359,49 L23.9721641,49 C19.7811497,49 16.4891865,49 13.8945863,48.6638484 C11.2487094,48.3158325 9.09850705,47.5960725 7.31407841,45.962771 C6.78113922,45.475646 6.28587339,44.9357647 5.83389145,44.3492431 C4.31610158,42.37979 3.63583089,39.9950907 3.314497,37.0646393 C3,34.2172371 3,30.6184372 3,26.0705032 L3,25.7936724 C3,24.275058 3,22.8632211 3.01367378,21.5462976 C3.02051067,20.8225828 3.02051067,20.4587481 3.21878052,20.2293741 C3.42388726,20 3.73838426,20 4.37079671,20 L50.6292033,20 C51.2616157,20 51.5761127,20 51.777801,20.2293741 C51.9760709,20.4587481 51.9829078,20.8225828 51.9863262,21.5462976 C52,22.8632211 52,24.275058 52,25.7897177 L52,26.0705032 Z M23,37 C23,38.1045695 23.7835017,39 24.75,39 L28.25,39 C29.2164983,39 30,38.1045695 30,37 C30,35.8954305 29.2164983,35 28.25,35 L24.75,35 C23.7835017,35 23,35.8954305 23,37 Z M35.7996401,35 C34.8057263,35 34,35.8954305 34,37 C34,38.1045695 34.8057263,39 35.7996401,39 L44.2003599,39 C45.1942737,39 46,38.1045695 46,37 C46,35.8954305 45.1942737,35 44.2003599,35 L35.7996401,35 Z" id="形状" fill="url(#linearGradient-1)" fill-rule="nonzero"></path>
                    </g>
                </g>
            </g>
        </g>
    </g>
</svg>