<?xml version="1.0" encoding="UTF-8"?>
<svg width="26px" height="26px" viewBox="0 0 26 26" version="1.1" xmlns="http://www.w3.org/2000/svg" xmlns:xlink="http://www.w3.org/1999/xlink">
    <title>2</title>
    <g id="页面-1" stroke="none" stroke-width="1"  fill-rule="evenodd">
        <g id="Login" transform="translate(-1142, -212.5)">
            <g id="内容" transform="translate(742, 135.6195)">
                <g id="编组" transform="translate(29, 74)">
                    <g id="2" transform="translate(371, 2.8805)">
                        <rect id="矩形"  opacity="0" x="0" y="0" width="26" height="26"></rect>
                        <path d="M19.752672,2.5 L6.24980278,2.5 C5.55991164,2.5 5,3.06859664 5,3.76918893 L5,22.2308111 C5,22.9314034 5.55991164,23.5 6.24980278,23.5 L19.7501724,23.5 C20.4400635,23.5 20.9999835,22.9314034 20.9999835,22.2308111 L20.9999835,3.76918893 C21.0024748,3.06859664 20.4425631,2.5 19.752672,2.5 L19.752672,2.5 Z M9.80174227,3.73111326 C9.80174227,3.52296628 9.96921584,3.35289496 10.1741835,3.35289496 L15.7882976,3.35289496 C15.9932652,3.35289496 16.1607388,3.52296628 16.1607388,3.73111326 C16.1607388,3.93926024 15.9932652,4.10933156 15.7882976,4.10933156 L10.1741835,4.10933156 C9.96921584,4.10933156 9.80174227,3.93926024 9.80174227,3.73111326 L9.80174227,3.73111326 Z M13.0062366,22.2993473 C12.3338427,22.2993473 11.7914283,21.7459809 11.7914283,21.0656956 C11.7914283,20.382872 12.3363423,19.832044 13.0062366,19.832044 C13.6786305,19.832044 14.2210535,20.3854104 14.2210535,21.0656956 C14.2235445,21.7459809 13.6786305,22.2993473 13.0062366,22.2993473 Z M19.2852457,18.6136226 L6.64724006,18.6136226 L6.64724006,5.72881663 L19.2852457,5.72881663 L19.2852457,18.6136226 L19.2852457,18.6136226 Z" id="形状" fill-rule="nonzero"></path>
                    </g>
                </g>
            </g>
        </g>
    </g>
</svg>