<?xml version="1.0" encoding="UTF-8"?>
<svg width="28px" height="28px" viewBox="0 0 28 28" version="1.1" xmlns="http://www.w3.org/2000/svg" xmlns:xlink="http://www.w3.org/1999/xlink">
    <title>下载</title>
    <g id="页面-1" stroke="none" stroke-width="1" fill="none" fill-rule="evenodd">
        <g id="首页" transform="translate(-23, -805)" fill="#BFDBFF" fill-rule="nonzero">
            <g id="左侧" transform="translate(0, 79)">
                <g id="10" transform="translate(11, 659)">
                    <g id="下载" transform="translate(12, 67)">
                        <path d="M14.0778575,5.82326843e-16 C17.0692229,5.82326843e-16 19.4213376,5.82326843e-16 21.2550856,0.245865652 C23.1359579,0.497877945 24.6275428,1.0264891 25.7995024,2.20049759 C26.9735109,3.37245719 27.5000732,4.86404215 27.7541343,6.74491439 C28,8.57866237 28,10.9287282 28,13.9221425 L28,14.0778575 C28,17.0692229 28,19.4213376 27.7541343,21.2550856 C27.5021221,23.1359579 26.9735109,24.6275428 25.7995024,25.7995024 C24.6275428,26.971462 23.1359579,27.5000732 21.2550856,27.7541343 C19.4213376,28 17.0712718,28 14.0778575,28 L13.9221425,28 C10.9307771,28 8.57866237,28 6.74491439,27.7541343 C4.86404215,27.5021221 3.37245719,26.9735109 2.20049759,25.7995024 C1.02853798,24.6275428 0.499926826,23.1359579 0.245865652,21.2550856 C-5.82326843e-16,19.4213376 -5.82326843e-16,17.0712718 -5.82326843e-16,14.0778575 L-5.82326843e-16,13.9221425 C-5.82326843e-16,10.9307771 -5.82326843e-16,8.57866237 0.245865652,6.74491439 C0.499926826,4.86404215 1.02853798,3.37245719 2.20049759,2.20049759 C3.37245719,1.0264891 4.86404215,0.499926826 6.74491439,0.245865652 C8.57866237,5.82326843e-16 10.9287282,5.82326843e-16 13.9221425,5.82326843e-16 L14.0778575,5.82326843e-16 L14.0778575,5.82326843e-16 Z M15.3747988,8.53563588 C15.3747988,7.78088175 14.7629497,7.16903264 14.0081955,7.16903264 C13.2534414,7.16903264 12.6415923,7.78088175 12.6415923,8.53563588 L12.6415923,14.6822772 L11.8302356,14.6822772 C11.5905166,14.6822772 11.2975267,14.6822772 11.0557588,14.7130104 L11.0496122,14.7130104 C10.8775062,14.7334992 10.0907361,14.8318455 9.71783989,15.6063223 C9.34084589,16.3787502 9.75267086,17.0610274 9.84077272,17.2105956 L9.84487048,17.2167423 C9.97190107,17.4257281 10.1542514,17.6593005 10.3058686,17.8518952 L10.3386507,17.8928728 C10.7402312,18.4050929 11.2606469,19.0668813 11.7810625,19.6016391 C12.0412703,19.8679936 12.338358,20.1425435 12.6538856,20.3597249 C12.9325333,20.5523196 13.4119713,20.8309674 14,20.8309674 C14.5880287,20.8309674 15.0654178,20.5523196 15.3461144,20.3597249 C15.661642,20.1425435 15.9607786,19.8679936 16.2189375,19.6016391 C16.7373043,19.0668813 17.2597688,18.4050929 17.6633982,17.8908239 L17.6941314,17.8498463 C17.8457486,17.6593005 18.0280989,17.4257281 18.1551295,17.2146934 L18.1571784,17.2105956 C18.2473291,17.0630762 18.6591541,16.3787502 18.284209,15.6063223 C17.9092639,14.8318455 17.1224938,14.7355481 16.9503878,14.7130104 L16.9442412,14.7130104 C16.7045222,14.6822772 16.4115323,14.6822772 16.1697644,14.6822772 L15.3747988,14.6822772 L15.3747988,8.53563588 L15.3747988,8.53563588 Z" id="形状"></path>
                    </g>
                </g>
            </g>
        </g>
    </g>
</svg>