<?xml version="1.0" encoding="UTF-8"?>
<svg width="20px" height="13.336718px" viewBox="0 0 20 13.336718" version="1.1" xmlns="http://www.w3.org/2000/svg" xmlns:xlink="http://www.w3.org/1999/xlink">
    <title>对勾</title>
    <g id="页面-1" stroke="none" stroke-width="1" fill="none" fill-rule="evenodd">
        <g id="个人中心-Music" transform="translate(-1275, -482)" fill="#FFFFFF" fill-rule="nonzero">
            <g id="内容" transform="translate(655, 40)">
                <g id="03" transform="translate(74, 352)">
                    <g id="对勾" transform="translate(546, 90)">
                        <path d="M8.93814634,12.9080686 C8.35517196,13.4796012 7.40071536,13.4796012 6.80917357,12.9080686 L0.436599398,6.66978227 C0.157334309,6.39571967 0,6.02087485 0,5.62959579 C0,5.23831673 0.157334309,4.86347192 0.436599398,4.58940931 C1.01957378,4.01787674 1.97116992,4.01787674 2.56269776,4.58940931 L7.86936928,9.78177431 L17.4339724,0.428649426 C18.0197933,-0.142883142 18.9713894,-0.142883142 19.5629312,0.428649426 C19.8425329,0.703697613 20,1.07948644 20,1.47169636 C20,1.86390628 19.8425329,2.23969511 19.5629312,2.5147433 L8.93813239,12.9080686 L8.93814634,12.9080686 Z" id="路径"></path>
                    </g>
                </g>
            </g>
        </g>
    </g>
</svg>