<?xml version="1.0" encoding="UTF-8"?>
<svg width="26px" height="26px" viewBox="0 0 26 26" version="1.1" xmlns="http://www.w3.org/2000/svg" xmlns:xlink="http://www.w3.org/1999/xlink">
    <title>兑换</title>
    <defs>
        <linearGradient x1="50%" y1="24.9353444%" x2="50%" y2="100%" id="linearGradient-1">
            <stop stop-color="#FFFFFF" offset="0%"></stop>
            <stop stop-color="#C4E9FF" offset="100%"></stop>
        </linearGradient>
    </defs>
    <g id="页面-1" stroke="none" stroke-width="1" fill="none" fill-rule="evenodd">
        <g id="Event-弹窗" transform="translate(-798, -245.5)">
            <g id="01" transform="translate(697, 83)">
                <g id="编组-16" transform="translate(92, 151)">
                    <g id="兑换" transform="translate(9, 11.5)">
                        <rect id="矩形" fill="#D8D8D8" opacity="0" x="0" y="0" width="26" height="26"></rect>
                        <g id="兑换券" transform="translate(2, 3.5)" fill-rule="nonzero">
                            <path d="M18.9682729,18 L3.03172575,18 C1.90989842,18 1,17.0821813 1,15.9505888 L1,13 L21,13 L21,15.9505888 C21.0012677,17.0821813 20.0913693,18 18.9682729,18 Z" id="路径" fill-opacity="0.329926177" fill="#BFDBFF"></path>
                            <path d="M18.7077207,0 C20.5235371,0 22,1.44212993 22,3.21572712 L22,5.40242156 C22,6.18409061 21.5188173,6.89649785 20.7755228,7.21930738 C19.8524195,7.62003645 19.2547449,8.51549277 19.2547449,9.5 C19.2547449,10.4845072 19.8511532,11.3799635 20.7755228,11.7806926 C21.5200835,12.1035021 22,12.8171462 22,13.5975784 L22,15.7842729 C22.0012622,17.5578701 20.5235371,19 18.708987,19 L3.29227521,19 C1.4764588,19 0,17.5578701 0,15.7842729 L0,13.5963416 C0,12.8159094 0.479912424,12.1035021 1.22320687,11.7806926 C2.14504392,11.3799635 2.74145224,10.4845072 2.74145224,9.50123682 C2.74145224,8.51672959 2.14631018,7.62251009 1.22320687,7.22178102 C0.479912424,6.89897149 0,6.18532743 0,5.40613201 L0,3.21572712 C0,1.44212993 1.4764588,0 3.29227521,0 L18.7077207,0 Z M18.7077207,1.48418175 L3.29227521,1.48418175 C2.31472272,1.48418175 1.51951163,2.26090353 1.51951163,3.21572712 L1.51951163,5.40365838 C1.51951163,5.60154928 1.64233882,5.77717745 1.8411416,5.86375472 C3.3112691,6.50318969 4.25969761,7.9304778 4.25969761,9.5 C4.25969761,11.0695222 3.31000284,12.4968103 1.8411416,13.1362453 C1.64233882,13.2228225 1.51951163,13.3984507 1.51951163,13.5963416 L1.51951163,15.7842729 C1.51951163,16.7390965 2.31472272,17.5158183 3.29227521,17.5158183 L18.7077207,17.5158183 C19.6852732,17.5158183 20.4804843,16.7390965 20.4804843,15.7842729 L20.4804843,13.5975784 C20.4804843,13.3996875 20.3576571,13.2228225 20.1588543,13.1374821 C18.6861943,12.4992839 17.7352333,11.0719958 17.7352333,9.5 C17.7352333,7.92800417 18.6861943,6.50071605 20.1588543,5.8625179 C20.3576571,5.77594063 20.4804843,5.60031246 20.4804843,5.40242156 L20.4804843,3.21572712 C20.4804843,2.26090353 19.6852732,1.48418175 18.7077207,1.48418175 Z M14.1927346,11.4036488 C14.638076,11.4036488 15,11.7614975 15,12.2018244 C15,12.6421513 14.638076,13 14.1927346,13 L7.80726539,13 C7.36192398,13 7,12.6421513 7,12.2018244 C7,11.7614975 7.36192398,11.4036488 7.80726539,11.4036488 L14.1927346,11.4036488 Z M14.1927346,6 C14.638076,6 15,6.35784873 15,6.7981756 C15,7.23850247 14.638076,7.5963512 14.1927346,7.5963512 L7.80726539,7.5963512 C7.36192398,7.5963512 7,7.23850247 7,6.7981756 C7,6.35784873 7.36192398,6 7.80726539,6 L14.1927346,6 Z" id="形状结合" fill="url(#linearGradient-1)"></path>
                        </g>
                    </g>
                </g>
            </g>
        </g>
    </g>
</svg>