<?xml version="1.0" encoding="utf-8"?>
<!-- Generator: Adobe Illustrator 19.0.0, SVG Export Plug-In . SVG Version: 6.00 Build 0)  -->
<svg version="1.1" xmlns="http://www.w3.org/2000/svg" xmlns:xlink="http://www.w3.org/1999/xlink" x="0px" y="0px"
	 viewBox="0 0 600 600" enable-background="new 0 0 600 600" xml:space="preserve">
<g id="SHADOW_1">
	<ellipse id="XMLID_112_" opacity="0.55" fill="#E1ECFF" cx="293.3" cy="511" rx="74.1" ry="17.3"/>
</g>
<g id="SHADOW_2">
	<ellipse id="XMLID_289_" opacity="0.55" fill="#E1ECFF" cx="392.3" cy="516" rx="73.9" ry="5.6"/>
</g>
<g id="TRASH">
	<g id="XMLID_41_">
		<path id="XMLID_80_" fill="#99ADF9" d="M390.5,331l-11.8,65.6l-1.1,5.9l-7,39l-0.5,3l-11.3,62.9c0,0-8.5,8.9-32.6,13.4
			c-8.1,1.5-18,2.5-29.9,2.5c-49.4,0-70.9-15.9-70.9-15.9l-10.8-63l-0.5-3l-6.6-38.8l-1-5.8l-11.2-65.6c0,0,19.2-23.8,98.4-23.8
			c17.3,0,32.6,2,45.7,4.7C372,318.9,390.5,331,390.5,331z"/>
		<polygon id="XMLID_39_" fill="#8EA6F4" points="286,351.3 290.3,381.7 331,376 324.7,349.3 		"/>
		<polygon id="XMLID_45_" fill="#8EA6F4" points="267.3,351 262,379.7 235.3,373.3 238,346.3 		"/>
		<path id="XMLID_78_" fill="#8EA6F4" d="M390.5,331l-11.8,65.6l-1.1,5.9l-7,39l-0.5,3l-11.3,62.9c0,0-8.5,8.9-32.6,13.4L334,317
			l5.5-5C372,318.9,390.5,331,390.5,331z"/>
		<ellipse id="XMLID_43_" fill="#F0F4FF" cx="293" cy="330.2" rx="97.6" ry="23"/>
		<path id="XMLID_184_" fill="#CCD6ED" d="M379.4,329.1c0,1-0.3,1.9-1,2.8c-2.5,3.5-9.5,6.6-19.8,9.1c-4.3,1.1-9.2,2-14.5,2.9
			c-11.2,1.7-24.4,2.9-38.8,3.4c-4.1,0.1-8.4,0.2-12.7,0.2c-3.9,0-7.8-0.1-11.6-0.2h0c-13.5-0.4-26-1.4-36.8-3
			c-2.2-0.3-4.3-0.6-6.4-1c-16.4-2.8-27.8-6.9-31.1-11.5c-0.3-0.5-0.6-1-0.8-1.4c-0.2-0.4-0.2-0.9-0.2-1.3c0-4.7,8.2-8.9,21.6-12.2
			c15.9-3.8,39.2-6.3,65.2-6.3c30.4,0,57.1,3.3,72.6,8.3c8.5,2.7,13.6,6,14.1,9.5C379.4,328.7,379.4,328.9,379.4,329.1z"/>
		<path id="XMLID_152_" fill="#E1ECFF" d="M378.8,396.6l-1,5.9l-7,39l-0.5,3c-22.5,7.7-49.1,12.2-77.6,12.2
			c-28.6,0-55.2-4.5-77.8-12.3l-0.5-3l-6.6-38.8l-1-5.8c24.1,8.3,53.8,13.1,85.9,13.1C324.8,409.8,354.6,404.9,378.8,396.6z"/>
	</g>
</g>
<g id="MOUTH">
	<g id="XMLID_48_">
		<path id="XMLID_96_" fill="#293475" d="M311.4,478.9c-1.1,3.1-2.3,3.2-5,2.7c-2.2-0.4-5.4-1.3-10.4-1.2c-4.8,0.1-8.1,0.8-10.6,1.1
			c-3.2,0.4-4.7,0.2-5.7-3c-2-6.5,7.5-11.7,16.1-11.7C305.9,466.9,313.7,472.1,311.4,478.9z"/>
		<path id="XMLID_82_" fill="#FF97C9" d="M306.4,481.3c0,0.1,0,0.2,0,0.3c-2.2-0.4-5.4-1.3-10.4-1.2c-4.8,0.1-8.1,0.8-10.6,1.1
			c0-0.1,0-0.2,0-0.2c0-4.7,4.7-8.5,10.5-8.5S306.4,476.6,306.4,481.3z"/>
	</g>
</g>
<g id="EYE_1B">
	<circle id="XMLID_40_" fill="#FFFFFF" cx="252.5" cy="430.6" r="13"/>
</g>
<g id="EYE_2B">
	<circle id="XMLID_272_" fill="#FFFFFF" cx="337" cy="430.6" r="13"/>
</g>
<g id="EYE_1A">
	<circle id="XMLID_42_" fill="#293475" cx="252.9" cy="425.5" r="7.6"/>
</g>
<g id="EYE_2A">
	<circle id="XMLID_269_" fill="#293475" cx="337.4" cy="425.5" r="7.6"/>
</g>
<g id="FIRE_1">
	<g id="XMLID_9_">
		<path id="XMLID_101_" fill="#FEC272" d="M381.7,327.1c-0.8,1.1-1.6,2.2-2.5,3.2c-1.8,2.1-3.8,3.9-6.1,5.6
			c-3.5,1.9-8.5,3.6-14.5,5.1c-4.3,1.1-9.2,2-14.5,2.9c-11.2,1.8-24.4,3-38.8,3.4c-4.1,0.1-8.4,0.2-12.7,0.2c-3.9,0-7.8,0-11.6-0.2
			h0c-13.5-0.4-26-1.4-36.8-2.9c-2.2-0.3-4.3-0.7-6.4-1c-9.3-1.6-16.9-3.6-22.5-5.9c0,0,0,0,0,0c-3.6-2.1-6.8-4.6-9.5-7.6
			c-6.1-6.9-9.5-16.3-9-29.3c0.5-12,4.8-20.8,7.6-29.6c2.3-7.2,3.5-14.3,0.9-23.3c-5.8-19.6-11.3-19.8-11.5-19.8
			c0.5,0,13.3-0.4,24.1,5c11,5.6,16.9,17.5,16.9,17.5s-1.3-33.6,28-61.9c29.3-28.3,58.6-57.2,58.6-57.2s-2.6,20.1,10.5,42.9
			c13.1,22.8,23.6,36.8,29,51.9c5.4,15.1,2.3,30.2,2.3,30.2s7.2-9.3,14.6-13.1c7.5-3.8,15.2-7.8,15.2-7.8s-2.3,15.1-0.5,31.2
			c0.4,3.3,0.7,6.9,0.9,10.8C394.2,292.5,392.6,311.5,381.7,327.1z"/>
		<path id="XMLID_91_" fill="#FFB65F" d="M381.7,327.1c-0.8,1.1-1.6,2.2-2.5,3.2c-1.8,2.1-3.8,3.9-6.1,5.6
			c-3.5,1.9-8.5,3.6-14.5,5.1c-4.3,1.1-9.2,2-14.5,2.9c-11.2,1.8-24.4,3-38.8,3.4c-4.1,0.1-8.4,0.2-12.7,0.2c-3.9,0-7.8,0-11.6-0.2
			h0c-13.5-0.4-26-1.4-36.8-2.9c-2.2-0.3-4.3-0.7-6.4-1c-9.3-1.6-16.9-3.6-22.5-5.9c0,0,0,0,0,0c-3.6-2.1-6.8-4.6-9.5-7.6
			c-6.1-6.9-9.5-16.3-9-29.3c0.5-12,4.8-20.8,7.6-29.6c3.3,14.8,19.7,50,93.8,50c59.7,0,84.6-23.8,95.1-43.8
			C394.2,292.5,392.6,311.5,381.7,327.1z"/>
	</g>
</g>
<g id="FIRE_2">
	<path id="XMLID_261_" fill="#FF8D76" d="M299,346.3c-22.6,0.4-37.3-1.4-54.1-13.3c-15.6-11.1-22.2-23-21.4-42.1
		c0.8-19.1-5-29.1-5-29.1s10.2,2.4,22.4,11s19.5,21.3,19.5,21.3s-9.7-35.4,8.7-70.4c16.4-31.2,38.4-48.7,38.4-48.7
		s31.5,40.2,33.1,72.8c1.6,32.5-7.7,51.3-7.7,51.3s9-7.1,19.3-12.4s23.6-7.9,23.6-7.9s-5.2,18.7-8.7,32.3
		C362.6,327.2,344.3,345.6,299,346.3z"/>
</g>
<g id="PAPERS">
	<g id="XMLID_2_">
		<g id="XMLID_27_">
			<path id="XMLID_76_" fill="#6C85C2" d="M281,347.3c-13.5-0.4-26-1.4-36.8-3l-5.8-12.9l25.4-19.2L281,347.3z"/>
			<path id="XMLID_37_" fill="#6C85C2" d="M352.4,320l-8.3,23.9c-11.2,1.7-24.4,2.9-38.8,3.4l12.7-34.9L352.4,320z"/>
			<path id="XMLID_31_" fill="#9DAAD6" d="M237.9,343.4c-16.4-2.8-27.8-6.9-31.1-11.5l-0.8-1.4l-14.2-27l26.3-10.1l9.3,23.5
				L237.9,343.4z"/>
			<path id="XMLID_30_" fill="#9DAAD6" d="M382.9,316l-3.5,12.5l-1,3.5c-2.5,3.5-9.5,6.6-19.8,9.1l6.6-22.1l2-6.5L382.9,316z"/>
		</g>
		<g id="XMLID_6_">
			<g id="XMLID_186_">
				<g id="XMLID_189_">
					<path id="XMLID_190_" fill="#E0E7F4" d="M238,343.3l-7.9,22.2c0,0,21.7,10.8,22.8,11.4s15-30.3,15-30.3L238,343.3z"/>
				</g>
				<g id="XMLID_187_">
					<polygon id="XMLID_188_" fill="#E0E7F4" points="289,347.4 290.4,375.2 333.5,372 323.8,346.1 					"/>
				</g>
			</g>
		</g>
	</g>
</g>
<g id="FLAME_1">
	<path id="XMLID_228_" fill="#FEC272" d="M308.9,105.1c0,0,3.8,6.8,3.3,11.9s-2.7,10.2-2.7,10.2s8.3-2.4,9.3-10.4
		S308.9,105.1,308.9,105.1z"/>
</g>
<g id="FLAME_2">
	<path id="XMLID_139_" fill="#FEC272" d="M236,206.3c0,0-0.3-7.7,6.9-14.8c5.9-5.8,9.1-8,10.4-14.8c1.3-6.9-2.2-11.6-2.2-11.6
		s-1.4,7.5-8.8,15C234,188.5,233,199.5,236,206.3z"/>
</g>
<g id="FLAME_3">
	<path id="XMLID_222_" fill="#FEC272" d="M367.4,220.7c0,0-0.7-10.7-5.4-17s-9-9.8-10-14.4c-1-4.7-0.1-6.6-0.1-6.6
		s8.3,3.7,13.9,13.1C373,207.6,367.4,220.7,367.4,220.7z"/>
</g>
<g id="FLAME_4">
	<path id="XMLID_137_" fill="#FEC272" d="M170.5,233c0,0,7.9,1.9,10.2,12.3c2.7,12.2,1.7,16.5,2.1,21.2c0.7,7.6,4.8,11.8,4.8,11.8
		s-1.8-7.5,0.4-15.2c1.8-6.2,5.8-13.2,3.5-21.7C189,232.1,176.2,227.7,170.5,233z"/>
</g>
<g id="FLAME_5">
	<path id="XMLID_210_" fill="#FEC272" d="M416.7,250.1c0,0-11.3,4-13.2,12.6c-1.9,8.5,1.2,15.5,1.2,15.5s6.4-3.7,6.7-9.8
		S412.9,253.4,416.7,250.1z"/>
</g>
<g id="PAPER_1">
	<path id="XMLID_121_" fill="#99ADF9" d="M138.8,279.8l11.4-14c0,0,4.2,9.5,11.6,18.3c7.4,8.7,13.5,13.6,13.5,13.6l-16.8,9
		C158.5,306.6,143,292.1,138.8,279.8z"/>
	<g id="XMLID_1_">
		<g id="XMLID_50_">
			<path id="XMLID_150_" fill="#1C3177" d="M281,347.3c-13.5-0.4-26-1.4-36.8-3l-5.8-12.9l25.4-19.2L281,347.3z"/>
			<path id="XMLID_151_" fill="#1C3177" d="M352.4,320l-8.3,23.9c-11.2,1.7-24.4,2.9-38.8,3.4l12.7-34.9L352.4,320z"/>
			<path id="XMLID_153_" fill="#99ADF9" d="M237.9,343.4c-16.4-2.8-27.8-6.9-31.1-11.5l-0.8-1.4l-14.2-27l26.3-10.1l9.3,23.5
				L237.9,343.4z"/>
			<path id="XMLID_181_" fill="#99ADF9" d="M382.9,316l-3.5,12.5l-1,3.5c-2.5,3.5-9.5,6.6-19.8,9.1l6.6-22.1l2-6.5L382.9,316z"/>
		</g>
		<g id="XMLID_66_">
			<path id="XMLID_110_" fill="#E1ECFF" d="M238,343.3l-7.9,22.2c0,0,21.7,10.8,22.8,11.4s15-30.3,15-30.3L238,343.3z"/>
			<polygon id="XMLID_111_" fill="#E1ECFF" points="289,347.4 290.4,375.2 333.5,372 323.8,346.1 			"/>
		</g>
	</g>
</g>
<g id="PAPER_2">
	<path id="XMLID_158_" fill="#1C3177" d="M152,152.7l29.9-14.8c0,0,0,10.6,5.8,26.5s9.8,21.7,9.8,21.7L174,202.2
		c0,0-7.7-12.7-14.6-28.1C152.5,158.8,152,152.7,152,152.7z"/>
</g>
<g id="PAPER_3">
	<path id="XMLID_133_" fill="#99ADF9" d="M373,123.6c0,0,4.8,13,6.6,21.7c1.9,8.7,1.9,11.9,1.9,11.9l18.3,1.1c0,0,2.6-10.1-2.6-24.9
		c-5.3-14.8-8.2-18.8-8.2-18.8L373,123.6z"/>
</g>
<g id="PAPER_4">
	<path id="XMLID_142_" fill="#1C3177" d="M443.4,223.4c0,0,0,8.2-6.4,24.1c-6.4,15.9-7.4,18.8-7.4,18.8l18.8,11.1c0,0,7.1-9.3,13-27
		S468,220,468,220L443.4,223.4z"/>
</g>
<g id="ORNAMENT_1">
	<polygon id="XMLID_132_" fill="#E1ECFF" points="127.8,202.3 149.1,222.5 122.8,212.6 	"/>
</g>
<g id="ORNAMENT_2">
	<polygon id="XMLID_113_" fill="#E1ECFF" points="421.9,187.1 415,207.2 431.5,198 	"/>
</g>
<g id="ORNAMENT_3">
	<polygon id="XMLID_131_" fill="#E1ECFF" points="229.7,110.7 251.2,132.4 245.1,94.3 	"/>
</g>
<g id="SIGN">
	<g id="XMLID_11_">
		<path id="XMLID_77_" fill="#FEC272" d="M467.3,513.4c-1.2,0.9-2.7,1.4-4.4,1.4H348.8c-5.7,0-9.3-6-6.7-11l41.5-79.6l15.3-29.3
			c2.8-5.4,10.5-5.4,13.4,0l57.3,108.9C471.5,507.3,470.2,511.4,467.3,513.4z"/>
		<path id="XMLID_74_" fill="#FFB96C" d="M467.3,513.4c-1.2,0.9-2.7,1.4-4.4,1.4H348.8c-5.7,0-9.3-6-6.7-11l41.5-79.6L371,491.1
			c-1.1,5.7,2.9,11.1,8.7,11.8L467.3,513.4z"/>
		<g id="XMLID_32_">
			<g id="XMLID_34_">
				<path id="XMLID_35_" fill="#1C3177" d="M400.3,474.7l-5.9-42.6c-0.2-1.4,0.9-2.7,2.4-2.7h16.9c1.4,0,2.6,1.3,2.4,2.7l-5.9,42.6
					c-0.2,1.2-1.2,2.1-2.4,2.1h-5.1C401.4,476.7,400.4,475.9,400.3,474.7z"/>
			</g>
			<circle id="XMLID_33_" fill="#1C3177" cx="405.2" cy="492.4" r="8.5"/>
		</g>
	</g>
</g>
</svg>
