<?xml version="1.0" encoding="UTF-8"?>
<svg width="26.0001279px" height="26px" viewBox="0 0 26.0001279 26" version="1.1" xmlns="http://www.w3.org/2000/svg" xmlns:xlink="http://www.w3.org/1999/xlink">
    <title>facebook</title>
    <g id="页面-1" stroke="none" stroke-width="1" fill="none" fill-rule="evenodd">
        <g id="个人中心-Support" transform="translate(-808.9999, -408)">
            <g id="03" transform="translate(479, 388)">
                <g id="facebook" transform="translate(330, 20)">
                    <circle id="椭圆形" fill="#FFFFFF" cx="13" cy="13" r="13"></circle>
                    <path d="M15.9507704,25.6923571 C22.5751726,24.1459622 26.8888725,17.7476476 25.8443373,11.0176798 C24.799802,4.28771198 18.7502608,-0.498044439 11.9695795,0.0414406489 C5.18889819,0.580925737 -0.0299088921,6.26321535 0,13.0738987 C0.0301669149,19.884582 5.29889192,25.520499 12.0840674,26 L12.0840674,16.922003 L10.4012664,16.922003 L10.4012664,13.5047375 L12.0604425,13.5047375 L12.0604425,11.7014337 C12.0604425,7.35177738 16.1398454,7.79193949 16.1398454,7.79193949 L18.7680471,7.79193949 L18.7396973,10.9346792 L17.0852461,10.9346792 C15.7096698,10.9346792 15.9460454,12.1132097 15.9460454,12.1132097 L15.9460454,13.5047375 L18.7207974,13.5047375 L18.1771717,16.926734 L15.9507958,16.926734 L15.9507704,25.6923571 Z" id="路径" fill="#41AADE" fill-rule="nonzero"></path>
                </g>
            </g>
        </g>
    </g>
</svg>