<?xml version="1.0" encoding="UTF-8"?>
<svg width="48px" height="35px" viewBox="0 0 48 35" version="1.1" xmlns="http://www.w3.org/2000/svg" xmlns:xlink="http://www.w3.org/1999/xlink">
    <title>编组 2</title>
    <g id="页面-1" stroke="none" stroke-width="1" fill="none" fill-rule="evenodd">
        <g id="首页" transform="translate(-145, -273)">
            <g id="左侧" transform="translate(0, 79)">
                <g id="Favorite01" transform="translate(119, 187)">
                    <g id="编组-2" transform="translate(26, 7)">
                        <rect id="矩形" fill="#D8D8D8" opacity="0" x="0" y="0" width="48" height="35"></rect>
                        <g id="favoritea" transform="translate(9, 3)" fill="#BFDBFF" fill-rule="nonzero">
                            <path d="M21.4285714,0 L8.57142858,0 C3.83755929,0 0,3.83755929 0,8.57142858 L0,21.4285714 C0,26.1624407 3.83755929,30 8.57142858,30 L21.4285714,30 C26.1624407,30 30,26.1624407 30,21.4285714 L30,8.57142858 C30,3.83755929 26.1624407,0 21.4285714,0 Z M23.5714286,13.5214286 L20.4428571,17.1428571 C20.2950085,17.3141995 20.2251364,17.539343 20.25,17.7642857 L20.8714286,23.1 C20.8992445,23.3912253 20.7686978,23.6749899 20.529448,23.8433509 C20.2901982,24.0117119 19.9790205,24.0387903 19.7142857,23.9142857 L15.4285714,21.7714286 C15.2111423,21.6704965 14.9602862,21.6704965 14.7428571,21.7714286 L10.4571429,23.9142857 C10.1924081,24.0387903 9.88123039,24.0117119 9.6419806,23.8433509 C9.4027308,23.6749899 9.2721841,23.3912253 9.3,23.1 L9.92142858,17.7642857 C9.90320518,17.5117765 9.76857185,17.2821079 9.55714286,17.1428571 L6.42857142,13.5214286 C6.2388107,13.2941339 6.18738614,12.9817461 6.29427453,12.7056178 C6.40116291,12.4294895 6.64951621,12.2331447 6.94285714,12.1928571 L10.95,11.7214286 C11.2027232,11.6871633 11.4247946,11.5364719 11.55,11.3142857 L14.2928571,6.42857142 C14.4404259,6.18501368 14.7045105,6.03624361 14.9892857,6.03624361 C15.2740609,6.03624361 15.5381455,6.18501368 15.6857143,6.42857142 L18.5142857,11.3142857 C18.6394911,11.5364719 18.8615626,11.6871633 19.1142857,11.7214286 L23.1214286,12.1928571 C23.4035128,12.2519096 23.63337,12.455671 23.7258263,12.7286372 C23.8182825,13.0016034 23.7595639,13.3031082 23.5714286,13.5214286 Z" id="形状"></path>
                        </g>
                    </g>
                </g>
            </g>
        </g>
    </g>
</svg>