<?xml version="1.0" encoding="UTF-8"?>
<svg width="25px" height="25px" viewBox="0 0 25 25" version="1.1" xmlns="http://www.w3.org/2000/svg" xmlns:xlink="http://www.w3.org/1999/xlink">
    <title>Feedback to get rew…</title>
    <g id="页面-1" stroke="none" stroke-width="1" fill="none" fill-rule="evenodd">
        <g id="个人中心" transform="translate(-1447, -629)">
            <g id="内容" transform="translate(1438, 79)">
                <g id="Feedback-to-get-rew…" transform="translate(9, 550)">
                    <rect id="矩形" fill="#D8D8D8" opacity="0" x="0" y="0" width="25" height="25"></rect>
                    <g id="投诉建议" transform="translate(4, 3)" fill="#BFDBFF" fill-rule="nonzero">
                        <path d="M15.9573188,12.7021659 C16.2379977,12.4821304 16.6435066,12.5291006 16.866455,12.8074712 L17.8516451,14.0243331 C17.9648798,14.1658352 18.0159101,14.342482 17.995685,14.5183522 C17.9754599,14.6942224 17.8856633,14.854674 17.7463398,14.9638909 L12.166326,19.3024715 C12.0876322,19.3636958 11.9959828,19.4061187 11.8983824,19.4264978 L10.08128,19.8055971 C9.83858163,19.857946 9.58730376,19.767068 9.43423712,19.5715852 C9.27868827,19.3748387 9.24787237,19.1070122 9.35467307,18.88008 L10.0648992,17.3590027 C10.1088147,17.263903 10.175045,17.1808142 10.257959,17.1168004 Z M13.0298299,0 C14.6604016,0.00709350297 15.9766652,1.33435655 15.9702132,2.96493076 L15.9702132,10.304714 C15.9704912,10.9108915 15.6879344,11.4824957 15.2061406,11.8503626 L7.21112408,17.9346719 C6.87858162,18.1881145 6.47204717,18.3254718 6.05393524,18.3254718 L2.94040692,18.3254718 C1.30983528,18.3183783 -0.00642834781,16.9911153 2.36182968e-05,15.360541 L2.36182968e-05,2.96493076 C-0.00642834781,1.33435655 1.30983528,0.00709350297 2.94040692,0 L13.0298299,0 Z M10.6171673,9.45525078 L5.05236431,9.45525078 C4.5353995,9.45525078 4.11631671,9.87433356 4.11631671,10.3912984 C4.11631671,10.9082632 4.5353995,11.327346 5.05236431,11.327346 L10.6171673,11.327346 C11.1341321,11.327346 11.5532149,10.9082632 11.5532149,10.3912984 C11.5532149,9.87433356 11.1341321,9.45525078 10.6171673,9.45525078 Z M10.6171673,4.70480923 L5.05236431,4.70480923 C4.5353995,4.70480923 4.11631671,5.12389201 4.11631671,5.64085682 C4.11631671,6.15782164 4.5353995,6.57690442 5.05236431,6.57690442 L10.6171673,6.57690442 C11.1341321,6.57690442 11.5532149,6.15782164 11.5532149,5.64085682 C11.5532149,5.12389201 11.1341321,4.70480923 10.6171673,4.70480923 Z" id="形状结合"></path>
                    </g>
                </g>
            </g>
        </g>
    </g>
</svg>