<?xml version="1.0" encoding="UTF-8"?>
<svg width="30px" height="30px" viewBox="0 0 30 30" version="1.1" xmlns="http://www.w3.org/2000/svg" xmlns:xlink="http://www.w3.org/1999/xlink">
    <title>g</title>
    <defs>
        <linearGradient x1="50%" y1="24.9353444%" x2="50%" y2="100%" id="linearGradient-1">
            <stop stop-color="#FFFFFF" offset="0%"></stop>
            <stop stop-color="#C4E9FF" offset="100%"></stop>
        </linearGradient>
    </defs>
    <g id="页面-1" stroke="none" stroke-width="1" fill="none" fill-rule="evenodd">
        <g id="个人中心-Security-Center" transform="translate(-501, -481)">
            <g id="02" transform="translate(479, 177)">
                <g id="g" transform="translate(22, 304)">
                    <rect id="矩形" fill="#D8D8D8" opacity="0" x="0" y="0" width="30" height="30"></rect>
                    <g id="google" transform="translate(5, 5)" fill="url(#linearGradient-1)" fill-rule="nonzero">
                        <path d="M19.8164161,8.58879479 L10.2035386,8.58879479 L10.2035386,12.651987 L15.6950911,12.651987 C15.4582945,13.965342 14.7399228,15.0762215 13.657044,15.820456 C12.7417853,16.449772 11.5737661,16.8218893 10.200878,16.8218893 C7.54290275,16.8218893 5.29466543,14.9749837 4.49115339,12.4932899 C4.28894506,11.8639739 4.17187708,11.1908795 4.17187708,10.4986319 C4.17187708,9.80638436 4.28894506,9.1332899 4.49115339,8.50397394 C5.29732606,6.02501629 7.54556339,4.17811075 10.2035386,4.17811075 C11.7014767,4.17811075 13.0450978,4.70892508 14.1040309,5.7486645 L17.0307303,2.73615635 C15.2614075,1.03973941 12.9546362,0 10.2035386,0 C6.21524544,0 2.76440069,2.35309446 1.08553944,5.78423453 C0.393774112,7.20156352 0,8.80495114 0,10.5013681 C0,12.197785 0.393774112,13.7984365 1.08553944,15.2157655 C2.76440069,18.6469055 6.21524544,21 10.2035386,21 C12.9599574,21 15.2693894,20.0587622 16.9562325,18.4553746 C18.8851936,16.6276221 20,13.9352443 20,10.7366775 C20,9.992443 19.9361447,9.27830619 19.8164161,8.58879479 Z" id="路径"></path>
                    </g>
                </g>
            </g>
        </g>
    </g>
</svg>