<?xml version="1.0" encoding="UTF-8"?>
<svg width="24px" height="20.5714286px" viewBox="0 0 24 20.5714286" version="1.1" xmlns="http://www.w3.org/2000/svg" xmlns:xlink="http://www.w3.org/1999/xlink">
    <title>不显示</title>
    <g id="页面-1" stroke="none" stroke-width="1" fill="none" fill-rule="evenodd">
        <g id="钱包-Manage-Account01" transform="translate(-1583, -235)" fill="#BFDBFF" fill-rule="nonzero">
            <g id="02" transform="translate(480, 177)">
                <g id="编组-2" transform="translate(1103, 56)">
                    <g id="不显示" transform="translate(0, 2)">
                        <path d="M12.060093,4.32039762 C15.145238,4.32039762 17.5492495,6.69859791 17.5492495,9.75061857 C17.5492495,10.384781 17.4290371,11.1775231 17.1085145,11.6928159 L20.2737835,14.8241264 C21.9165111,13.3971958 23.2387424,11.6928159 24,9.71098668 C22.1168476,4.9545861 17.4290371,1.58545817 11.9398806,1.58545817 C10.4173655,1.58545817 8.97492172,1.90256544 7.53247797,2.33856839 L9.93651578,4.71674262 C10.6577377,4.43929331 11.4190216,4.32039762 12.060093,4.32039762 Z M1.08180648,1.42690454 L4.04673903,4.36002952 C2.20367499,5.74732822 0.761231229,7.61023571 0,9.75061857 C1.88315242,14.5070191 6.57096293,17.8761471 12.0601194,17.8761471 C13.7028733,17.8761471 15.3456008,17.5590398 16.9082044,17.0041412 L20.5142347,20.5714286 L21.9565995,19.144498 L2.52417122,0 L1.0817538,1.42690454 L1.08180648,1.42690454 Z M7.13191035,7.37244434 L8.77466426,8.99753441 L8.77466426,9.75067068 C8.77466426,11.6136042 10.2170553,13.0008769 12.0601194,13.0008769 C12.2604822,13.0008769 12.5008544,13.0008769 12.8214296,12.8819551 L14.4641572,14.5070452 C13.7028733,14.9430482 12.9416684,15.1412337 12.0601457,15.1412337 C8.97502708,15.1412337 6.57101561,12.7630334 6.57101561,9.71103879 C6.57101561,8.87869084 6.81141412,8.12555456 7.13198937,7.37244434 L7.13191035,7.37244434 Z M11.8597829,6.50043844 L15.2654768,9.86954031 L15.2654768,9.67135478 C15.2654768,7.80842123 13.8230857,6.42114859 11.9799953,6.42114859 C11.9799953,6.50043844 11.9799953,6.50043844 11.8597829,6.50043844 L11.8597829,6.50043844 Z" id="形状"></path>
                    </g>
                </g>
            </g>
        </g>
    </g>
</svg>