<?xml version="1.0" encoding="UTF-8"?>
<svg width="48px" height="35px" viewBox="0 0 48 35" version="1.1" xmlns="http://www.w3.org/2000/svg" xmlns:xlink="http://www.w3.org/1999/xlink">
    <title>编组 2</title>
    <g id="页面-1" stroke="none" stroke-width="1" fill="none" fill-rule="evenodd">
        <g id="Recent最近的" transform="translate(-37, -113)">
            <g id="左侧" transform="translate(0, 79)">
                <g id="Hot01" transform="translate(11, 27)">
                    <g id="编组-2" transform="translate(26, 7)">
                        <rect id="矩形" fill="#D8D8D8" opacity="0" x="0" y="0" width="48" height="35"></rect>
                        <g id="hot" transform="translate(24.5, 17.5) scale(-1, 1) translate(-24.5, -17.5)translate(12, 2)" fill="#BFDBFF" fill-rule="nonzero">
                            <path d="M20.2529364,10.0740312 L17.9144836,12.3990313 C17.9144836,12.3990313 17.9144836,3.09903125 10.1135513,0 C10.1135513,0 9.33470805,8.525 5.43376113,11.6230625 C1.53377575,14.725 -6.2681181,24.0220937 9.33086191,30.9970938 C9.33086191,30.9970938 1.52992961,22.4720937 11.6693147,16.275 C11.6693147,16.275 10.8904715,19.3730625 14.7904568,22.475 C18.6914038,25.5740313 14.7904568,31 14.7904568,31 C14.7904568,31 33.510579,26.3490312 20.2529364,10.0740312 Z" id="路径"></path>
                        </g>
                    </g>
                </g>
            </g>
        </g>
    </g>
</svg>