<?xml version="1.0" encoding="UTF-8"?>
<svg width="26px" height="26px" viewBox="0 0 26 26" version="1.1" xmlns="http://www.w3.org/2000/svg" xmlns:xlink="http://www.w3.org/1999/xlink">
    <title>密码</title>
    <defs>
        <linearGradient x1="50%" y1="24.9353444%" x2="50%" y2="100%" id="linearGradient-1">
            <stop stop-color="#FFFFFF" offset="0%"></stop>
            <stop stop-color="#C4E9FF" offset="100%"></stop>
        </linearGradient>
    </defs>
    <g id="页面-1" stroke="none" stroke-width="1" fill="none" fill-rule="evenodd">
        <g id="个人中心-Profile" transform="translate(-796, -390.5)">
            <g id="02" transform="translate(479, 177)">
                <g id="编组-16" transform="translate(308, 202)">
                    <g id="密码" transform="translate(9, 11.5)">
                        <rect id="矩形" fill="#D8D8D8" opacity="0" x="0" y="0" width="26" height="26"></rect>
                        <path d="M5.72727272,5.5 L21.2727273,5.5 C22.2266737,5.5 23,6.29593822 23,7.27777777 L23,19.7222222 C23,20.7040618 22.2266737,21.5 21.2727273,21.5 L5.72727272,21.5 C4.77332634,21.5 4,20.7040618 4,19.7222222 L4,7.27777777 C4,6.29593822 4.77332634,5.5 5.72727272,5.5 L5.72727272,5.5 Z M9.18181819,12.6111111 C9.79891761,12.6111111 10.3691438,12.2722767 10.6776953,11.7222276 C10.9862469,11.1721785 10.9862469,10.4944882 10.6776953,9.94443907 C10.3691438,9.39438998 9.79891761,9.05555556 9.18181819,9.05555556 C8.22787887,9.05555556 7.45456357,9.85150106 7.45456357,10.8333333 C7.45456357,11.8151656 8.22787887,12.6111111 9.18181819,12.6111111 L9.18181819,12.6111111 Z M9.18181819,13.5 C8.26561576,13.5 7.38693861,13.8746021 6.73908566,14.5413981 C6.09123272,15.2081941 5.72727272,16.1125636 5.72727272,17.0555556 C5.72727272,17.5464753 6.1139359,17.9444444 6.59090909,17.9444444 L11.7727273,17.9444444 C12.2497005,17.9444444 12.6363636,17.5464753 12.6363636,17.0555556 C12.6363636,15.0918765 11.089711,13.5 9.18181819,13.5 L9.18181819,13.5 Z M15.2272727,10.8333333 C14.7503515,10.8334089 14.3637694,11.2313559 14.3637694,11.7222222 C14.3637694,12.2130885 14.7503515,12.6110355 15.2272727,12.6111111 L20.4090909,12.6111111 C20.8860121,12.6110355 21.2725942,12.2130885 21.2725942,11.7222222 C21.2725942,11.2313559 20.8860121,10.8334089 20.4090909,10.8333333 L15.2272727,10.8333333 L15.2272727,10.8333333 Z M15.2272727,14.3888889 C14.7503515,14.3889645 14.3637694,14.7869115 14.3637694,15.2777778 C14.3637694,15.7686441 14.7503515,16.1665911 15.2272727,16.1666667 L20.4090909,16.1666667 C20.8860121,16.1665911 21.2725942,15.7686441 21.2725942,15.2777778 C21.2725942,14.7869115 20.8860121,14.3889645 20.4090909,14.3888889 L15.2272727,14.3888889 L15.2272727,14.3888889 Z" id="形状" fill="url(#linearGradient-1)" fill-rule="nonzero"></path>
                    </g>
                </g>
            </g>
        </g>
    </g>
</svg>