<?xml version="1.0" encoding="UTF-8"?>
<svg width="55px" height="52px" viewBox="0 0 55 52" version="1.1" xmlns="http://www.w3.org/2000/svg" xmlns:xlink="http://www.w3.org/1999/xlink">
    <title>Inicio</title>
    <defs>
        <linearGradient x1="50%" y1="13.752876%" x2="50%" y2="100%" id="linearGradient-1">
            <stop stop-color="#E3F8FF" offset="0%"></stop>
            <stop stop-color="#A8E3FB" offset="19.728069%"></stop>
            <stop stop-color="#94D1F4" offset="76.4676909%"></stop>
            <stop stop-color="#77AEFF" offset="100%"></stop>
        </linearGradient>
    </defs>
    <g id="APP" stroke="none" stroke-width="1" fill="none" fill-rule="evenodd">
        <g transform="translate(-79, -569)" id="导航栏1">
            <g transform="translate(0, 550)">
                <g id="Inicio01" transform="translate(77, 19)">
                    <g id="Inicio" transform="translate(2, 0)">
                        <rect id="矩形" fill="#D8D8D8" opacity="0" x="0" y="0" width="55" height="52"></rect>
                        <path d="M29.7430434,3.86803528 L52.3834213,24.4925789 C52.9610004,25.0182014 53.1546425,25.8422903 52.8710433,26.5677673 C52.587444,27.2932443 51.8847798,27.7712879 51.1016217,27.7715581 L48.8608463,27.7691991 L48.8608463,44.2820442 C48.8608463,45.5333239 48.3606746,46.7333544 47.4703633,47.6181428 C46.580052,48.5029311 45.3725308,49 44.1134405,49 L10.8816004,49 C9.62251016,49 8.41498893,48.5029311 7.52467766,47.6181427 C6.63436638,46.7333544 6.13419472,45.5333239 6.13419474,44.2820442 L6.13419474,27.7691991 L3.89579292,27.7691991 C3.11374827,27.7678717 2.41249656,27.2902167 2.12912296,26.5658384 C1.84574936,25.8414602 2.03821101,25.0185126 2.61399337,24.4925789 L25.2519976,3.86803528 C26.5225114,2.71065491 28.4725296,2.71065491 29.7430434,3.86803528 Z M16.2509163,30.9656141 C15.3242656,31.8867946 15.3242656,33.3800283 16.2509163,34.3012089 C22.3337969,40.3462646 32.1959984,40.3462646 38.2788789,34.3012089 C39.1784461,33.3755957 39.1655809,31.9042875 38.2499636,30.9943501 C37.3343463,30.0844126 35.853854,30.0716273 34.922463,30.9656141 C30.6937154,35.1672927 23.8384535,35.1672927 19.6097059,30.9656141 C19.1644745,30.5226522 18.5603138,30.2737574 17.9303111,30.2737574 C17.3003084,30.2737574 16.6961476,30.5226522 16.2509163,30.9656141 L16.2509163,30.9656141 Z" id="形状" fill="url(#linearGradient-1)" fill-rule="nonzero"></path>
                    </g>
                </g>
            </g>
        </g>
    </g>
</svg>