<?xml version="1.0" encoding="UTF-8"?>
<svg width="39.047619px" height="40.0000251px" viewBox="0 0 39.047619 40.0000251" version="1.1" xmlns="http://www.w3.org/2000/svg" xmlns:xlink="http://www.w3.org/1999/xlink">
    <title>记录</title>
    <g id="页面-1" stroke="none" stroke-width="1" fill="none" fill-rule="evenodd">
        <g id="首页" transform="translate(-34, -441)" fill-rule="nonzero">
            <g id="左侧" transform="translate(0, 79)">
                <g id="08" transform="translate(11, 347)">
                    <g id="记录" transform="translate(23, 15)">
                        <path d="M22.856217,0 C24.4352375,0 25.7142857,1.25291207 25.7142857,2.79966671 L25.7142857,31.4860476 C25.7142857,33.0328022 24.4352375,34.2857143 22.856217,34.2857143 L2.8580687,34.2857143 C1.27904824,34.2857143 0,33.0328022 0,31.4860476 L0,2.79966671 C0,1.25291207 1.27904824,0 2.8580687,0 L22.856217,0 L22.856217,0 Z M20.7105824,27.2865475 L4.99953708,27.2865475 C4.21210999,27.2865475 3.57050273,27.9150441 3.57050273,28.6863809 C3.57050273,29.4577176 4.21210999,30.0862142 4.99953708,30.0862142 L20.7105824,30.0862142 C21.4980094,30.0862142 22.1396167,29.4577176 22.1396167,28.6863809 C22.1396167,27.910963 21.5021757,27.2865475 20.7105824,27.2865475 Z M20.7105824,22.3891714 L4.99953708,22.3891714 C4.21210999,22.3891714 3.57050273,23.017668 3.57050273,23.7890047 C3.57050273,24.5603415 4.21210999,25.1888381 4.99953708,25.1888381 L20.7105824,25.1888381 C21.4980094,25.1888381 22.1396167,24.5603415 22.1396167,23.7890047 C22.1396167,23.0135868 21.5021757,22.3891714 20.7105824,22.3891714 Z M20.7105824,17.4917952 L4.99953708,17.4917952 C4.21210999,17.4917952 3.57050273,18.1202918 3.57050273,18.8916285 C3.57050273,19.6629653 4.21210999,20.2914619 4.99953708,20.2914619 L20.7105824,20.2914619 C21.4980094,20.2914619 22.1396167,19.6629653 22.1396167,18.8916285 C22.1396167,18.1202918 21.5021757,17.4917952 20.7105824,17.4917952 Z M20.7105824,12.594419 L4.99953708,12.594419 C4.21210999,12.594419 3.57050273,13.2229156 3.57050273,13.9942524 C3.57050273,14.7655891 4.21210999,15.3940857 4.99953708,15.3940857 L20.7105824,15.3940857 C21.4980094,15.3940857 22.1396167,14.7655891 22.1396167,13.9942524 C22.1396167,13.2188345 21.5021757,12.594419 20.7105824,12.594419 Z M20.7105824,7.69704287 L4.99953708,7.69704287 C4.21210999,7.69704287 3.57050273,8.32553948 3.57050273,9.09687622 C3.57050273,9.86821297 4.21210999,10.4967096 4.99953708,10.4967096 L20.7105824,10.4967096 C21.4980094,10.4967096 22.1396167,9.86821297 22.1396167,9.09687622 C22.1396167,8.32553948 21.5021757,7.69704287 20.7105824,7.69704287 Z" id="形状" fill="#BFDBFF"></path>
                        <path d="M38.478925,27.6156066 C37.2570395,23.2463083 34.6484747,19.8738692 30.5728435,17.5746616 C30.1025783,17.313388 29.608197,17.0923103 29.1258738,16.8511347 C29.1298932,16.8430955 29.1298932,16.8310367 29.1419513,16.8229976 L29.3911516,16.5979003 C30.2311979,15.8261383 30.9868376,14.9378081 31.3807349,13.880655 C31.5736642,13.3701666 31.6218965,13.1490889 31.750516,12.6747769 C31.9997163,11.179488 31.7143418,10.2670402 30.7898889,9.51537623 C29.5398679,8.49439943 28.1210338,8.37381162 26.6258318,8.96871149 C26.5253478,9.01292702 26.4529993,9.04106417 26.3484959,8.94459393 C24.4192031,7.19205108 21.3242957,7.1759727 19.3829448,8.90439799 C19.2904995,8.98478986 19.2261897,9.00488783 19.1056089,8.95665271 C18.3178143,8.60694806 17.4938455,8.53459537 16.6497798,8.7034183 C15.0460551,9.02096621 13.7196663,10.3313537 13.9568085,12.1200729 C14.1617959,13.6716361 14.7888161,15.0101608 15.8660046,16.1718234 C16.0870694,16.4089794 16.3242117,16.6340767 16.5613539,16.8752523 L16.3845021,16.9556441 C10.8739593,19.3754395 7.15203173,24.6411073 6.71392147,30.6222627 C6.59334067,32.2743157 6.69382467,33.9143099 7.12791557,35.5382258 C7.80718744,38.0946874 10.1504744,40.0080139 12.9559878,40 C19.575874,39.9838964 26.1957603,40 32.8196658,39.9919356 C34.9459074,39.987916 36.5817869,39.0714486 37.7715176,37.4033172 C38.3744216,36.5511634 38.6557768,35.5904805 38.8205706,34.5775429 C39.1983904,32.2461785 39.1180032,29.9107946 38.478925,27.6156066 Z" id="路径" fill="#BFDBFF"></path>
                        <path d="M15.2380952,29.0476191 C15.2380952,33.5184956 18.8624568,37.1428571 23.3333333,37.1428571 C27.8042099,37.1428571 31.4285714,33.5184956 31.4285714,29.0476191 C31.4285714,26.1554691 29.8856278,23.4830123 27.3809524,22.0369372 C24.876277,20.5908622 21.7903896,20.5908622 19.2857142,22.0369372 C16.7810388,23.4830123 15.2380952,26.1554691 15.2380952,29.0476191 L15.2380952,29.0476191 Z" id="路径" fill="#2C6DBF"></path>
                        <polygon id="路径" fill="#BFDBFF" points="22.0406942 30.3402582 19.047619 29.047619 22.0406942 27.7549799 23.3333333 24.7619048 24.6259725 27.7549799 27.6190476 29.047619 24.6259725 30.3402582 23.3333333 33.3333333"></polygon>
                        <path d="M29.5313482,16.3702843 L29.4871215,16.4114903 L29.2941324,16.5800604 L29.0448549,16.7898365 C29.0327931,16.7973285 29.0327931,16.8085665 29.0287725,16.8160585 C29.5112451,17.0408186 30.0098002,17.2468487 30.4761905,17.4903389 L30.3193869,17.4116728 L30.2309335,17.4566249 C26.1942455,19.4120379 21.1845709,19.7604161 15.2380952,17.3929428 C15.5798467,17.2243727 15.9296394,17.0670407 16.2834527,16.9209466 L16.4603593,16.8460265 C16.219123,16.6212664 15.9859279,16.4114903 15.7647946,16.1904762 L15.9497424,16.3702843 C15.9698455,16.3740303 15.9899485,16.3777763 16.0100515,16.3852683 C21.37756,18.1196672 25.7962056,18.1196672 29.2820706,16.4039983 C29.3665033,16.3627923 29.450936,16.3515543 29.5313482,16.3702843 Z" id="路径" fill="#2C6DBF"></path>
                    </g>
                </g>
            </g>
        </g>
    </g>
</svg>