<?xml version="1.0" encoding="UTF-8"?>
<svg width="65px" height="65px" viewBox="0 0 65 65" version="1.1" xmlns="http://www.w3.org/2000/svg" xmlns:xlink="http://www.w3.org/1999/xlink">
    <title>Juros</title>
    <defs>
        <linearGradient x1="50%" y1="24.9353444%" x2="50%" y2="100%" id="linearGradient-1">
            <stop stop-color="#DBF2FF" offset="0%"></stop>
            <stop stop-color="#98D9FF" offset="100%"></stop>
        </linearGradient>
    </defs>
    <g id="APP" stroke="none" stroke-width="1" fill="none" fill-rule="evenodd">
        <g id="个人中心" transform="translate(-592, -299)">
            <g id="01" transform="translate(0, 115)">
                <g id="编组-5" transform="translate(88, 184)">
                    <g id="Juros" transform="translate(504, 0)">
                        <rect id="矩形" fill="#D8D8D8" opacity="0" x="0" y="0" width="65" height="65"></rect>
                        <g id="钱币" transform="translate(7, 9)" fill="url(#linearGradient-1)" fill-rule="nonzero">
                            <path d="M32,40 L32,46.75 C32,49.75 24.5612505,52 16,52 C7.43874955,52 0,49.75 0,46.75 L0,40 C3.35005453,42.625 9.30570702,44.125 16,44.125 C23.0665213,44.125 28.6499455,42.25 32,40 Z M52,32.1691843 L52,38.8214896 C52,41.7806384 45.0089831,44 36.1839741,44 L32.5044916,44 L32.5044916,35.8681203 C33.6083363,36.2380139 35.0801294,36.2380139 36.1839741,36.2380139 C42.8070428,36.2380139 48.3205174,34.7584395 52,32.1691843 Z M32,28 L32,34.8795402 C30.8833152,37.9397701 24.5554344,41 16,41 C7.43874955,41 1.11668484,37.9457471 0,34.8795402 L0,28 C3.72228281,30.6777011 8.92766267,32.2078161 16,32.2078161 C23.0723373,32.2078161 28.6499455,30.6777011 32,28 Z M52,21.4480494 L52,27.7304611 C50.8961552,30.6896099 44.6410349,33.6487587 36.1839741,33.6487587 C35.0801294,33.6487587 33.6083363,33.2788651 32.5044916,33.2788651 L32.5044916,25.1469854 C33.6083363,25.516879 35.0801294,25.516879 36.1839741,25.516879 C42.8070428,25.516879 48.3205174,24.0373046 52,21.4480494 Z M16,17 C24.9334787,17 32,19.9090909 32,23.1818182 C30.8833152,26.0909091 24.5554344,29 16,29 C7.43874955,29 1.11668484,26.4545455 0,23.1875 C0,19.9147727 7.43874955,17.3693182 16,17 Z M20,11 C23.7222828,13.1828517 29.305707,15.0018948 36.3722283,15.0018948 C43.0723373,15.0018948 48.6499455,13.1828517 52,11.0056845 L52,17.1790621 C50.8833152,20.089531 44.5554344,23 36,23 L34.5110869,23 C34.1388586,18.2761724 27.4387495,15.7295121 20,15.0018948 Z M36.1839741,0 C44.646784,0 52,2.58925522 52,6.28819125 C50.8961552,9.24734008 44.6410349,12.2064889 36.1839741,12.2064889 C27.3589651,12.2064889 21.1038448,9.24734008 20,6.28819125 C20,2.58925522 27.3589651,0 36.1839741,0 Z" id="形状结合"></path>
                        </g>
                    </g>
                </g>
            </g>
        </g>
    </g>
</svg>