<?xml version="1.0" encoding="UTF-8"?>
<svg width="50px" height="50px" viewBox="0 0 50 50" version="1.1" xmlns="http://www.w3.org/2000/svg" xmlns:xlink="http://www.w3.org/1999/xlink">
    <title>客服</title>
    <g id="APP" stroke="none" stroke-width="1" fill="none" fill-rule="evenodd">
        <g id="个人中心" transform="translate(-448, -13)">
            <g id="客服" transform="translate(448, 13)">
                <rect id="矩形" fill="#D8D8D8" opacity="0" x="0" y="0" width="50" height="50"></rect>
                <path d="M25.5006145,7 C34.4110764,7 41.7675178,13.8566896 43.0159514,22.7663245 C44.8220427,23.13024 46.0883747,24.7475716 45.9951746,26.5713231 C45.9019744,28.3950745 44.4772387,29.8774043 42.6432847,30.0587111 C41.4917444,34.7369155 38.6091672,38.7763439 34.6085897,41.2816018 C34.1058029,42.4958279 32.8118145,43.193613 31.5096825,42.9526919 C30.2075505,42.7117708 29.2549368,41.5983183 29.2283162,40.286141 C29.2016956,38.9739636 30.1083801,37.8234824 31.399689,37.5309119 C32.6909979,37.2383415 34.0122421,37.8840432 34.5638697,39.0772702 C38.7377372,36.0200064 41.3389511,30.9836442 41.3389511,25.4525074 C41.3389511,16.2733311 34.235923,8.8461738 25.5006145,8.8461738 C16.7653061,8.8461738 9.662278,16.2714849 9.662278,25.4543536 C9.66183752,27.3560341 9.97270254,29.2451973 10.5827649,31.0482603 C10.7003124,31.3634076 10.6357555,31.7169474 10.4142141,31.9713117 C10.1926728,32.225676 9.84913694,32.3406908 9.51728197,32.2716021 C9.185427,32.2025134 8.91766551,31.9602329 8.81818783,31.6390359 C8.64060657,31.1191352 8.48580519,30.5918675 8.35421773,30.0587111 C6.52062384,29.8762045 5.09698825,28.3932709 5.00472965,26.5697082 C4.91247106,24.7461456 6.17929576,23.1295904 7.98527766,22.7663245 C9.23371126,13.8566896 16.5901527,7 25.5006145,7 Z M25,12 C32.1797017,12 38,17.8202983 38,25 C38,32.1797017 32.1797017,38 25,38 C17.8202983,38 12,32.1797017 12,25 C12,17.8202983 17.8202983,12 25,12 Z M25,28.7142857 C20.8957143,28.7142857 17.5714286,26.248 17.5714286,27.7857143 C17.5714286,29.3234286 20.8957143,32.4285714 25,32.4285714 C29.1042857,32.4285714 32.4285714,29.3234286 32.4285714,27.7857143 C32.4285714,26.248 29.1042857,28.7142857 25,28.7142857 Z" id="形状结合" fill="#BFDBFF" fill-rule="nonzero"></path>
            </g>
        </g>
    </g>
</svg>