<?xml version="1.0" encoding="UTF-8"?>
<svg width="26px" height="26px" viewBox="0 0 26 26" version="1.1" xmlns="http://www.w3.org/2000/svg" xmlns:xlink="http://www.w3.org/1999/xlink">
    <title>钥匙</title>
    <defs>
        <linearGradient x1="50%" y1="24.9353444%" x2="50%" y2="100%" id="linearGradient-1">
            <stop stop-color="#FFFFFF" offset="0%"></stop>
            <stop stop-color="#C4E9FF" offset="100%"></stop>
        </linearGradient>
    </defs>
    <g id="页面-1" stroke="none" stroke-width="1" fill="none" fill-rule="evenodd">
        <g id="Celular-login" transform="translate(-781, -388.5)">
            <g id="内容" transform="translate(742, 135.6195)">
                <g id="编组-16" transform="translate(30, 241.3805)">
                    <g id="钥匙" transform="translate(9, 11.5)">
                        <rect id="矩形" fill="#D8D8D8" opacity="0" x="0" y="0" width="26" height="26"></rect>
                        <path d="M11.2069937,5.35246754 C13.397584,3.16105196 16.8534153,2.88041892 19.3688147,4.68968152 C21.8842142,6.49894413 22.7177601,9.86481671 21.3374446,12.6390422 C19.957129,15.4132677 16.7698043,16.7781347 13.8097698,15.8625214 L10.7196857,18.9519813 L9.82676251,18.0570639 C9.36620193,17.5962891 8.63096132,17.5609214 8.12830866,17.9753623 L8.03806641,18.0570639 C7.57790832,18.5175469 7.54255666,19.2521991 7.95637345,19.7547468 L8.03806641,19.8449986 L8.93098958,20.7399159 L7.41871972,22.2532953 C7.24459186,22.4273775 7.00304116,22.5165802 6.75757661,22.49745 L3.99046471,22.2846459 C3.5763535,22.2526314 3.24734247,21.9235857 3.21533141,21.5094309 L3.00254971,18.7420272 C2.98342158,18.4965368 3.07261488,18.2549606 3.24667871,18.0808144 L9.63677884,11.6900404 C8.94437161,9.44976277 9.54879707,7.01023016 11.2069937,5.35246754 Z M14.1868873,8.33172532 C13.6545806,8.86408816 13.4466912,9.64002392 13.6415289,10.3672451 C13.8363667,11.0944663 14.4043312,11.6624907 15.1314757,11.857349 C15.8586202,12.0522073 16.6344742,11.844296 17.1667809,11.3119331 C17.9896558,10.4889714 17.9896558,9.15468699 17.1667809,8.33172534 C16.343906,7.50876369 15.0097622,7.50876368 14.1868873,8.33172532 Z" id="形状" fill="url(#linearGradient-1)" fill-rule="nonzero"></path>
                    </g>
                </g>
            </g>
        </g>
    </g>
</svg>