<?xml version="1.0" encoding="UTF-8"?>
<svg width="16px" height="17px" viewBox="0 0 16 17" version="1.1" xmlns="http://www.w3.org/2000/svg" xmlns:xlink="http://www.w3.org/1999/xlink">
    <title>快进小</title>
    <g id="页面-1" stroke="none" stroke-width="1">
        <g id="首页" transform="translate(-98, -360)">
            <g id="左侧" transform="translate(0, 79)">
                <g id="07" transform="translate(11, 267)">
                    <g id="快进小" transform="translate(87, 14)">
                        <path d="M1.14619503,16.2125301 C0.924353416,16.3660381 0.632988457,16.3857856 0.391455931,16.2636831 C0.149923405,16.1415806 -0.00119158529,15.8981452 7.07862637e-06,15.6330987 L7.07862637e-06,1.36690132 C-0.000135279991,1.10230958 0.15113163,0.859693973 0.392247401,0.737802158 C0.633363172,0.615910344 0.924127288,0.635064981 1.14619503,0.787469889 L11.5214585,7.92198525 C11.7139342,8.0547872 11.8283296,8.27025947 11.8283296,8.5 C11.8283296,8.72974053 11.7139342,8.9452128 11.5214585,9.07801475 L1.14619503,16.2125301 L1.14619503,16.2125301 Z M13.0909117,1.41648594 C13.0910347,0.63414728 13.7422202,0 14.5454558,0 C15.3486914,0 15.999877,0.63414728 16,1.41648594 L16,15.5835141 C15.999877,16.3658527 15.3486914,17 14.5454558,17 C13.7422202,17 13.0910347,16.3658527 13.0909117,15.5835141 L13.0909117,1.41648594 L13.0909117,1.41648594 Z" id="形状"></path>
                    </g>
                </g>
            </g>
        </g>
    </g>
</svg>