<?xml version="1.0" encoding="UTF-8"?>
<svg width="28px" height="28px" viewBox="0 0 28 28" version="1.1" xmlns="http://www.w3.org/2000/svg" xmlns:xlink="http://www.w3.org/1999/xlink">
    <title>语言</title>
    <g id="页面-1" stroke="none" stroke-width="1" fill="none" fill-rule="evenodd">
        <g id="首页" transform="translate(-23, -755)" fill="#BFDBFF" fill-rule="nonzero">
            <g id="左侧" transform="translate(0, 79)">
                <g id="10" transform="translate(11, 659)">
                    <g id="语言" transform="translate(12, 17)">
                        <path d="M26.891542,8.55746151 C24.7731557,3.53804587 19.8018097,0 14,0 C6.27510368,0.000879673264 0,6.25975495 0,14.0008797 C0,21.7252906 6.25838884,28 14,28 C21.7416112,28 28,21.7420044 28,14.0008797 C28,11.4093622 26.891542,8.55746151 26.891542,8.55746151 Z M2.08583637,14.0008797 C2.08583637,12.5177505 2.36295086,11.0830035 2.85207993,9.77932768 C3.48812366,10.1382344 4.31858741,10.2033302 4.31858741,10.9202639 C4.31858741,13.2672322 4.40040216,15.7936538 6.66570315,15.8262017 C6.73080307,15.8262017 7.92107578,16.2493245 8.49113988,17.6515237 C8.68643961,18.1397424 9.46939801,17.6515237 10.3165766,17.6515237 C10.7406058,17.6515237 10.3165766,18.3359095 10.3165766,19.8023249 C10.3165766,21.2687402 13.6419505,23.5180647 13.6419505,23.5180647 C13.6243559,24.4795476 13.6736207,25.2774112 13.7387206,25.8975809 C7.28503205,25.7832234 2.08583637,20.5034244 2.08583637,14.0008797 L2.08583637,14.0008797 Z M16.8687948,25.5545083 C17.341209,23.6632108 17.5690587,22.5882501 18.5473168,21.7895068 C19.9654392,20.6327364 18.7267815,19.3290606 17.6341586,19.4759661 C16.7702652,19.6061577 17.3244942,18.4819353 16.5591303,18.4159598 C15.8087219,18.3675778 14.7987935,16.9328307 13.7228855,16.4278982 C13.1528214,16.1675149 12.5660425,15.4664153 11.6854342,15.4338674 C10.9033555,15.4013195 9.7465125,16.0689915 9.7465125,15.5640591 C9.7465125,13.9181904 9.56704788,12.7447063 9.53449793,12.2723217 C9.50194797,11.8808671 9.27321855,12.1421301 10.3332914,12.174678 C10.9033555,12.1905121 10.626241,11.0662897 11.21302,11.017028 C11.767249,10.9844801 13.1202715,11.5228401 13.478321,11.294125 C13.7879854,11.0830035 15.8254367,16.3460886 15.8254367,12.1579642 C15.8254367,11.6688658 15.5650371,10.8050267 15.8254367,10.3326422 C16.9013447,8.47477223 17.895438,6.95909519 17.8136232,6.73125982 C17.7652382,6.60106817 16.7051653,6.50254477 15.8905366,6.76380773 C15.6134221,6.84561734 15.9723514,7.26874018 15.5808722,7.36638391 C14.0492648,7.69186302 12.7287923,6.97580899 13.2012065,6.29142319 C13.6736207,5.59032359 15.4339575,5.99761232 15.5808722,4.59629281 C15.6631358,3.79893479 15.7335219,3.00039618 15.792007,2.20094251 C19.9973593,2.8302821 23.5463727,5.65757455 25.099535,9.61570845 C21.0571824,12.5652529 22.0838256,14.6351241 23.4201332,15.8086082 C24.1212769,16.4278982 24.7889908,17.373547 25.2297348,18.041219 C23.8274475,21.7411247 20.7308031,24.5930254 16.8687948,25.5536287 L16.8687948,25.5545083 Z" id="形状"></path>
                    </g>
                </g>
            </g>
        </g>
    </g>
</svg>