<?xml version="1.0" encoding="UTF-8"?>
<svg width="30px" height="30px" viewBox="0 0 30 30" version="1.1" xmlns="http://www.w3.org/2000/svg" xmlns:xlink="http://www.w3.org/1999/xlink">
    <title>g</title>
    <defs>
        <linearGradient x1="50%" y1="24.9353444%" x2="50%" y2="100%" id="linearGradient-1">
            <stop stop-color="#FFFFFF" offset="0%"></stop>
            <stop stop-color="#C4E9FF" offset="100%"></stop>
        </linearGradient>
    </defs>
    <g id="页面-1" stroke="none" stroke-width="1" fill="none" fill-rule="evenodd">
        <g id="个人中心-Security-Center" transform="translate(-501, -891)">
            <g id="04" transform="translate(479, 856)">
                <g id="g" transform="translate(22, 35)">
                    <rect id="矩形" fill="#D8D8D8" opacity="0" x="0" y="0" width="30" height="30"></rect>
                    <g id="链接-方-F" transform="translate(5, 5)" fill="url(#linearGradient-1)" fill-rule="nonzero">
                        <path d="M9.94438753,0 L10.0556125,0 C12.1923021,0 13.872384,0 15.182204,0.175618323 C16.5256842,0.35709059 17.591102,0.734669984 18.428216,1.57178399 C19.2667935,2.408898 19.6429094,3.47431582 19.8243817,4.81779599 C20,6.12761598 20,7.80623445 20,9.94438753 L20,10.0556125 C20,12.1923021 20,13.872384 19.8243817,15.182204 C19.6443729,16.5256842 19.2667935,17.591102 18.428216,18.428216 C17.591102,19.2667935 16.5256842,19.6429094 15.182204,19.8243817 C13.872384,20 12.1937655,20 10.0556125,20 L9.94438753,20 C7.80769794,20 6.12761598,20 4.81779599,19.8243817 C3.47431582,19.6443729 2.408898,19.2667935 1.57178399,18.428216 C0.734669984,17.591102 0.35709059,16.5256842 0.175618323,15.182204 C0,13.872384 0,12.1937655 0,10.0556125 L0,9.94438753 C0,7.80769794 0,6.12761598 0.175618323,4.81779599 C0.35709059,3.47431582 0.734669984,2.408898 1.57178399,1.57178399 C2.408898,0.734669984 3.47431582,0.35709059 4.81779599,0.175618323 C6.12761598,0 7.80769794,0 9.94438753,0 L9.94438753,0 Z M6.33250402,6.33250402 C6.97128802,5.69460049 8.00602795,5.69460049 8.64481194,6.33250402 L13.667496,11.3551881 C14.106528,11.7627567 14.2877271,12.3776685 14.139858,12.9581821 C13.991989,13.5386958 13.5386958,13.991989 12.9581821,14.139858 C12.3776685,14.2877271 11.7627567,14.106528 11.3551881,13.667496 L9.47168155,11.7854529 C9.25508561,11.568857 9.21557149,11.3873848 9.22142544,11.2703059 C9.23168599,11.1227923 9.30012132,10.9853952 9.41167862,10.888336 C9.53339168,10.7752986 9.69339843,10.7125508 9.85950534,10.7127177 C10.0160983,10.7141812 10.2268403,10.7756476 10.4595346,11.0068784 L11.4342163,11.9830236 C11.6179383,12.173245 11.8900028,12.2495336 12.1458417,12.1825678 C12.4016806,12.115602 12.6014794,11.9158033 12.6684452,11.6599644 C12.7354109,11.4041255 12.6591223,11.1320609 12.4689009,10.9483389 L11.4927557,9.97073028 C10.4975852,8.9740963 9.20093663,9.09263867 8.42236207,9.80681984 C8.02359598,10.1673069 7.78499679,10.6718942 7.7594029,11.2088395 C7.73452364,11.7810625 7.96429094,12.3474316 8.43699693,12.8186741 L10.3205034,14.7021806 C11.0971626,15.5154259 12.2533591,15.8442455 13.3417402,15.5614134 C14.4301213,15.2785813 15.2799537,14.4284651 15.5624223,13.3399896 C15.8448909,12.2515142 15.5156852,11.0954275 14.7021806,10.31904 L9.68096005,5.29781941 C8.90180995,4.49613297 7.75133437,4.17611537 6.67013057,4.46032364 C5.58892676,4.74453191 4.74453191,5.58892676 4.46032364,6.67013057 C4.17611537,7.75133437 4.49613297,8.90180995 5.29781941,9.68096005 L6.13493341,10.5180741 C6.3186554,10.7082955 6.59071996,10.7845841 6.84655885,10.7176183 C7.10239774,10.6506525 7.30219648,10.4508538 7.36916227,10.1950149 C7.43612805,9.93917598 7.35983944,9.66711142 7.16961803,9.48338943 L6.33250402,8.64627543 C5.69460049,8.00749144 5.69460049,6.9727515 6.33250402,6.33396751 L6.33250402,6.33250402 Z" id="形状"></path>
                    </g>
                </g>
            </g>
        </g>
    </g>
</svg>