<?xml version="1.0" encoding="UTF-8"?>
<svg width="50px" height="50px" viewBox="0 0 50 50" version="1.1" xmlns="http://www.w3.org/2000/svg" xmlns:xlink="http://www.w3.org/1999/xlink">
    <title>留言</title>
    <g id="APP" stroke="none" stroke-width="1" fill="none" fill-rule="evenodd">
        <g id="个人中心" transform="translate(-561, -13)">
            <g id="留言" transform="translate(561, 13)">
                <rect id="矩形" fill="#D8D8D8" opacity="0" x="0" y="0" width="50" height="50"></rect>
                <path d="M38.8329888,9 L11.152129,9 C8.86027285,9 7,10.8813159 7,13.199097 L7,35.5942808 C7,37.9120619 8.86027285,39.7933778 11.152129,39.7933778 L20.2674659,39.7933778 L24.0177759,43.5861105 C24.2856552,43.85702 24.6428276,44 25,44 C25.3571724,44 25.7069037,43.8645453 25.9822241,43.5861105 L29.7325341,39.7933778 L38.847871,39.7933778 C41.1397271,39.7933778 43,37.9120619 43,35.5942808 L43,13.199097 C42.9851177,10.8813159 41.1174038,9 38.8329888,9 Z M17.3728813,25.7963879 C16.2269533,25.7963879 15.2968168,24.8557299 15.2968168,23.6968394 C15.2968168,22.5379488 16.2269533,21.5972909 17.3728813,21.5972909 C18.5188094,21.5972909 19.4489458,22.5379488 19.4489458,23.6968394 C19.4489458,24.8557299 18.5188094,25.7963879 17.3728813,25.7963879 Z M25.6771393,25.7963879 C24.5312112,25.7963879 23.6010748,24.8557299 23.6010748,23.6968394 C23.6010748,22.5379488 24.5312112,21.5972909 25.6771393,21.5972909 C26.8230673,21.5972909 27.7532038,22.5379488 27.7532038,23.6968394 C27.7532038,24.8557299 26.8230673,25.7963879 25.6771393,25.7963879 Z M33.9888383,25.7963879 C32.8429103,25.7963879 31.9127738,24.8557299 31.9127738,23.6968394 C31.9127738,22.5379488 32.8429103,21.5972909 33.9888383,21.5972909 C35.1347664,21.5972909 36.0649028,22.5379488 36.0649028,23.6968394 C36.0649028,24.8557299 35.1273253,25.7963879 33.9888383,25.7963879 Z" id="形状" fill="#BFDBFF" fill-rule="nonzero"></path>
            </g>
        </g>
    </g>
</svg>