<?xml version="1.0" encoding="UTF-8"?>
<svg width="24px" height="19px" viewBox="0 0 24 19" version="1.1" xmlns="http://www.w3.org/2000/svg" xmlns:xlink="http://www.w3.org/1999/xlink">
    <title>返回</title>
    <g id="页面-1" stroke="none" stroke-width="1" fill="none" fill-rule="evenodd">
        <g id="首页" transform="translate(-24, -30)" fill="#FFFFFF">
            <g id="返回" transform="translate(24, 30)">
                <path d="M8.37120608,3.0269254 C8.38012753,3.03811218 8.38879672,3.04949783 8.39720711,3.06107374 L8.42302103,3.09660354 C8.73738756,3.52929195 8.65564965,4.13274131 8.23750621,4.46621041 L3.805,8 L23,8 C23.5522847,8 24,8.44771525 24,9 C24,9.55228475 23.5522847,10 23,10 L3.76,10 L8.23168295,13.5344557 C8.62020086,13.8415597 8.7211128,14.3811604 8.48630719,14.8037449 L8.42058383,14.906751 L8.39720711,14.9389263 C8.38957376,14.9494327 8.38172804,14.9597832 8.37367482,14.9699713 C8.04481488,15.3860126 7.44095312,15.4566871 7.02491182,15.1278271 L0.405752111,9.89571095 C0.203825039,9.73609765 0.0795879309,9.51368089 0.039795391,9.27753037 C0.0136491674,9.18967341 5.9046756e-18,9.09643067 0,9 C-2.47525931e-17,8.79787974 0.0599646756,8.60976498 0.163074296,8.45247545 C0.224118716,8.33727125 0.309705432,8.23307526 0.417754446,8.14690624 L7.02760025,2.87555892 C7.44042545,2.54633112 8.04197827,2.6141002 8.37120608,3.0269254 Z M11,17 L23,17 C23.5522847,17 24,17.4477153 24,18 C24,18.5522847 23.5522847,19 23,19 L11,19 C10.4477153,19 10,18.5522847 10,18 C10,17.4477153 10.4477153,17 11,17 Z M11,0 L23,0 C23.5522847,-1.01453063e-16 24,0.44771525 24,1 C24,1.55228475 23.5522847,2 23,2 L11,2 C10.4477153,2 10,1.55228475 10,1 C10,0.44771525 10.4477153,6.76353751e-17 11,0 Z" id="形状结合"></path>
            </g>
        </g>
    </g>
</svg>