<?xml version="1.0" encoding="UTF-8"?>
<svg width="25px" height="25px" viewBox="0 0 25 25" version="1.1" xmlns="http://www.w3.org/2000/svg" xmlns:xlink="http://www.w3.org/1999/xlink">
    <title>Message Center</title>
    <g id="页面-1" stroke="none" stroke-width="1" fill="none" fill-rule="evenodd">
        <g id="个人中心" transform="translate(-1447, -301)">
            <g id="内容" transform="translate(1438, 79)">
                <g id="Message-Center" transform="translate(9, 222)">
                    <rect id="矩形" fill="#D8D8D8" opacity="0" x="0" y="0" width="25" height="25"></rect>
                    <path d="M4.55649151,8.76269069 L12.7969886,4.0539265 C12.9227798,3.9820245 13.0772202,3.9820245 13.2030114,4.0539265 L21.4435085,8.76269069 L13,13.7520657 L4.55649151,8.76269069 Z M22,9.38425318 L15.4623437,13.2473498 L21.9291761,19.7141821 C21.9760078,19.5952994 22,19.4686611 22,19.3408867 L22,9.38425318 Z M14.7561506,13.6983725 C14.7491193,13.6913412 14.7423437,13.6840543 14.7359517,13.6766395 L13.208125,14.579452 C13.0797452,14.6553169 12.9202548,14.6553169 12.791875,14.579452 L11.2640483,13.6766395 C11.2576563,13.6840543 11.2512642,13.6913412 11.2438494,13.6983725 L4.64943184,20.2927901 C4.76831456,20.3396218 4.89495285,20.363614 5.0227273,20.363614 L20.9772727,20.363614 C21.1050472,20.363614 21.2316854,20.3396218 21.3505682,20.2927901 L14.7561506,13.6983725 Z M4,9.38425318 L4,19.3408867 C4,19.4686611 4.02399218,19.5952994 4.07082389,19.7141821 L10.5376563,13.2473498 L4,9.38425318 Z" id="形状" fill="#BFDBFF" fill-rule="nonzero"></path>
                </g>
            </g>
        </g>
    </g>
</svg>