<?xml version="1.0" encoding="UTF-8"?>
<svg width="27.0000221px" height="22px" viewBox="0 0 27.0000221 22" version="1.1" xmlns="http://www.w3.org/2000/svg" xmlns:xlink="http://www.w3.org/1999/xlink">
    <title>信封 (1)</title>
    <g id="页面-1" stroke="none" stroke-width="1" fill="none" fill-rule="evenodd">
        <g id="首页" transform="translate(-1639, -747)" fill-rule="nonzero">
            <g id="03公告" transform="translate(479, 731)">
                <g id="信封-(1)" transform="translate(1160, 16)">
                    <path d="M10.483119,12.1480851 C13.9557878,14.0648936 16.5385852,12.1480851 16.5385852,12.1480851 C23.7226688,8.41404255 27,3.8087234 27,3.8087234 C26.2620579,0.149361702 23.1366559,0 23.1366559,0 L4.08038585,0 C0.434083601,0.398297872 0,3.8087234 0,3.8087234 C4.27572347,9.16085106 10.483119,12.1480851 10.483119,12.1480851 Z" id="路径" fill="#BFDBFF"></path>
                    <path d="M18.7156548,13 L27,17.7317073 C27,17.7317073 27.0433622,21.2195122 23.2915565,22 L3.75180566,22 C3.75180566,22 0.303614331,21.5609756 0,17.9268293 L8.21927368,13.0487805 C8.21927368,13.0487805 9.15180341,13.5609756 10.9518027,14.2926829 L10.973176,14.3038827 C11.1998869,14.4196135 13.2097748,15.3715925 16.0264993,14.2926829 C16.0264993,14.2926829 17.956619,13.4390244 18.7156548,13 Z M0,7 C0,7 2.71034483,9.95856354 6,12.2458564 L0,16 L0,7 Z M27,7 L27,16 L21,12.2458564 C24.2896552,9.95856354 27,7 27,7 Z" id="形状结合" fill="#93B5E1"></path>
                </g>
            </g>
        </g>
    </g>
</svg>