<?xml version="1.0" encoding="UTF-8"?>
<svg width="25px" height="25px" viewBox="0 0 25 25" version="1.1" xmlns="http://www.w3.org/2000/svg" xmlns:xlink="http://www.w3.org/1999/xlink">
    <title>Music</title>
    <g id="页面-1" stroke="none" stroke-width="1">
        <g id="个人中心" transform="translate(-1447, -578)">
            <g id="内容" transform="translate(1438, 79)">
                <g id="Music" transform="translate(9, 499)">
                    <rect id="矩形" opacity="0" x="0" y="0" width="25" height="25"></rect>
                    <g id="音乐" transform="translate(3, 4)"  opacity="0.99">
                        <path d="M16,1.85962727 L16.0005479,10.4594746 C16.3940759,10.6915659 16.6916129,11.0030576 16.8564538,11.3741273 C17.2108035,12.1715565 16.8984729,13.1230256 16.0371191,13.8701093 C15.1757654,14.6171931 13.8962556,15.0463857 12.6805906,14.9960071 C11.4649255,14.9456285 10.4978034,14.4233328 10.1435462,13.6258727 C9.78919649,12.8284435 10.1015271,11.8769744 10.9628809,11.1298907 C11.8242346,10.3828069 13.1037444,9.95361431 14.3194094,10.0039929 C14.4079287,10.0076613 14.4951302,10.0138318 14.5808733,10.0224285 L14.5806452,3.88405443 C14.5806452,3.64480395 14.3854839,3.48837095 14.1991936,3.48837095 C14.1637097,3.48837095 14.1282259,3.49757288 14.092742,3.50677483 L6.69435519,5.95449131 C6.5258068,6.00050103 6.41935519,6.15693403 6.41935519,6.33177093 L6.42006805,12.7707653 C6.60863773,12.9471736 6.7568158,13.1497416 6.85649049,13.3740886 C7.21078872,14.1715402 6.8984303,15.1230133 6.03707763,15.8700973 C5.17572496,16.6171813 3.896238,17.0463763 2.68058712,16.9960088 C1.46493623,16.9456412 0.497807716,16.423363 0.143509521,15.6259114 C-0.210788718,14.8284598 0.101569694,13.8769867 0.962922365,13.1299027 C1.82427504,12.3828187 3.103762,11.9536237 4.31941289,12.0039912 C4.55716147,12.0138418 4.78540436,12.0417424 5.00141638,12.0862213 L5,4.30734375 C4.99947566,3.48510688 5.51855378,2.75970204 6.27741971,2.52216707 L13.6669356,0.0836525185 C14.8290323,-0.284425135 16,0.608163195 16,1.85962727 Z" id="形状结合"></path>
                    </g>
                </g>
            </g>
        </g>
    </g>
</svg>