<?xml version="1.0" encoding="UTF-8"?>
<svg width="18px" height="18px" viewBox="0 0 18 18" version="1.1" xmlns="http://www.w3.org/2000/svg" xmlns:xlink="http://www.w3.org/1999/xlink">
    <title>男</title>
    <g id="PC" stroke="none" stroke-width="1" fill="none" fill-rule="evenodd">
        <g id="个人中心-Mudar-Avatar" transform="translate(-928, -330)" fill="#BFDBFF" fill-rule="nonzero">
            <g id="内容" transform="translate(729, 218)">
                <g id="切换" transform="translate(177, 101)">
                    <g id="男" transform="translate(22, 11)">
                        <path d="M7.46804124,5.61791318 C4.67216495,5.61791318 2.4,7.86301683 2.4,10.625587 C2.4,13.3860955 4.6742268,15.6311992 7.46804124,15.6311992 C10.2618557,15.6311992 12.5381443,13.3840339 12.5381443,10.625587 C12.5360825,7.86301683 10.2618557,5.61791318 7.46804124,5.61791318 L7.46804124,5.61791318 Z M18,6.8878708 L15.6,6.8878708 L15.6,4.19951897 L13.4927835,6.28175468 C14.3958763,7.50017182 14.9360825,8.9989692 14.9360825,10.6235254 C14.9360825,14.6911007 11.5876289,18 7.46804124,18 C3.35051547,18 0,14.6911007 0,10.6235254 C0,6.55595009 3.35051545,3.24498914 7.46804124,3.24498914 C9.07835051,3.24498914 10.5649485,3.75627079 11.785567,4.6139045 L14.0556701,2.37086247 L11,2.37086245 L11,0 L18,0 L18,6.8878708 L18,6.8878708 L18,6.8878708 Z" id="形状"></path>
                    </g>
                </g>
            </g>
        </g>
    </g>
</svg>