<?xml version="1.0" encoding="UTF-8"?>
<svg width="135px" height="131px" viewBox="0 0 135 131" version="1.1" xmlns="http://www.w3.org/2000/svg" xmlns:xlink="http://www.w3.org/1999/xlink">
    <title>暂无内容 (1)</title>
    <g id="页面-1" stroke="none" stroke-width="1" fill="none" fill-rule="evenodd">
        <g id="个人中心-Commission01" transform="translate(-1068, -646)" fill-rule="nonzero">
            <g id="04" transform="translate(629, 292)">
                <g id="暂无内容-(1)" transform="translate(439, 354)">
                    <path d="M0,118.998147 C0,125.625483 28.8775184,131 64.4981249,131 C100.122482,131 129,125.625483 129,118.998147 C129,112.374517 100.122482,107 64.4981249,107 C28.8775184,107 0,112.374517 0,118.998147 Z" id="路径" fill="#1858B2" opacity="0.489"></path>
                    <path d="M116,84.6132935 L93.2807879,57.0772049 C92.2033383,55.7756436 90.6081713,55.0157462 88.9203459,55 L40.0759113,55 C38.3890242,55.0187936 36.7957472,55.779814 35.7192123,57.0809545 L13,84.617043 L13,99 L116,99 L116,84.617043 L116,84.6132935 Z" id="路径" fill="#1E5DB5"></path>
                    <path d="M31.7912672,29 L96.2012346,29 C97.2093786,29 98.1761768,29.3534904 98.8886901,29.9826154 C99.6012034,30.6117404 100.000989,31.4648963 100,32.3541739 L100,110.642515 C100.001985,111.531792 99.6031555,112.385298 98.891346,113.015044 C98.1795365,113.64479 97.213133,113.999123 96.2049883,114 L31.7912672,114 C30.7837734,113.998245 29.8183343,113.643525 29.1073365,113.013874 C28.3963387,112.384223 27.9980237,111.53122 28,110.642515 L28,32.3607961 C27.9970262,31.4715186 28.3949005,30.6176637 29.1060063,29.9872961 C29.8171121,29.3569284 30.7831214,29.0017536 31.7912672,29 Z" id="路径" fill="#62A7FF"></path>
                    <path d="M115.786649,117.867526 C115.067424,120.855535 112.431315,122.969383 109.386111,123 L19.6064052,123 C16.5630722,122.966326 13.9296753,120.853417 13.2096106,117.867526 C13.0699372,117.306487 13,116.730156 13,116.151662 L13,84.0037794 L37.9920434,84.0037794 C40.7843901,84.0534724 43.0115156,86.3732365 42.9739823,89.192945 L42.9739823,89.2307394 C42.9620194,90.5846025 43.4834642,91.8877552 44.4234919,92.8532363 C45.3635195,93.8187174 46.6450435,94.3673533 47.9858654,94.3783313 L81.0141371,94.3783313 C83.8102591,94.345119 86.0513837,92.0314425 86.0222771,89.2080628 L86.0222771,89.2005039 C85.9847075,86.3774294 88.2123525,84.0538001 91.007959,84 L116,84 L116,116.155441 C116,116.733695 115.928883,117.308169 115.790392,117.867526 L115.786649,117.867526 Z" id="路径" fill="#3B7AD1"></path>
                    <polygon id="路径" fill="#1E5DB5" points="121.646436 18 119 26 124 20.5271171"></polygon>
                    <polygon id="路径" fill="#62A7FF" points="135 0 122 17.8997789 128.696073 25"></polygon>
                    <polygon id="路径" fill="#3B7AD1" points="135 0 112 14.8155591 119.438746 26 122.252695 18.1555906"></polygon>
                    <polygon id="路径" fill="#62A7FF" points="135 0 103 16 112.365301 16"></polygon>
                </g>
            </g>
        </g>
    </g>
</svg>