<?xml version="1.0" encoding="UTF-8"?>
<svg width="18px" height="18.0000012px" viewBox="0 0 18 18.0000012" version="1.1" xmlns="http://www.w3.org/2000/svg" xmlns:xlink="http://www.w3.org/1999/xlink">
    <title>女</title>
    <g id="PC" stroke="none" stroke-width="1" fill="none" fill-rule="evenodd">
        <g id="个人中心-Mudar-Avatar" transform="translate(-1112, -330)" fill="#FF58AE" fill-rule="nonzero">
            <g id="内容" transform="translate(729, 218)">
                <g id="切换" transform="translate(177, 101)">
                    <g id="女" transform="translate(206, 11)">
                        <path d="M16.0722375,1.83700113 C14.8619971,0.652483521 13.2619359,0 11.5670694,0 C9.8252419,0 8.19411876,0.683183462 6.97445673,1.92366598 C5.7712826,3.1474031 5.1173612,4.76597942 5.13384909,6.48047465 C5.14680385,7.84522577 5.58446894,9.13991056 6.38059835,10.2173457 L4.88093666,11.7420595 L1.7598679,8.68660932 C1.497965,8.42479296 1.11530097,8.32353028 0.757787161,8.42143312 C0.400273351,8.51933597 0.123020028,8.80131275 0.0317449977,9.1598446 C-0.0595300328,9.51837644 0.0492431525,9.89819615 0.316588901,10.1544769 L3.43765767,13.2099272 L1.31366445,15.3700854 C0.924585885,15.7769633 0.935225336,16.4202315 1.33754762,16.8140774 C1.7398699,17.2079234 2.3846413,17.2062574 2.78491398,16.8103377 L4.90890718,14.6503264 L8.02997595,17.7057766 C8.22239973,17.8947036 8.48165689,18.0004054 8.75161546,18 C9.17020967,18 9.5472113,17.7473343 9.70554257,17.3606914 C9.86387383,16.9740485 9.77207142,16.5302555 9.47325496,16.2377621 L6.35218618,13.1824588 L7.85008131,11.6587732 C8.93003794,12.4240679 10.2175653,12.8384434 11.5663334,12.8384434 C13.3081609,12.8384434 14.939284,12.1554068 16.1589461,10.9147774 C17.3622674,9.6908934 18.0160416,8.07246397 17.9997009,6.35796874 C17.9835075,4.64332663 17.2988185,3.03782347 16.0722375,1.83700113 Z M14.6878438,9.47452504 C13.8588858,10.3176712 12.750517,10.7818423 11.5664806,10.7818423 C10.4143895,10.7818423 9.32692494,10.3385296 8.50459157,9.53313398 C7.67077555,8.71716235 7.20558158,7.62606651 7.1946878,6.46064457 C7.1834996,5.29522261 7.62764207,4.19546029 8.44570626,3.36362457 C9.27466424,2.52047837 10.383033,2.05630728 11.5670694,2.05630728 C12.7188661,2.05630728 13.8063306,2.49976694 14.6289585,3.30501563 C15.46248,4.12098726 15.927674,5.21222999 15.9388622,6.37750506 C15.9500504,7.54292702 15.505908,8.64268934 14.6878438,9.47452504 Z" id="形状"></path>
                    </g>
                </g>
            </g>
        </g>
    </g>
</svg>