<?xml version="1.0" standalone="no"?>
<!DOCTYPE svg PUBLIC "-//W3C//DTD SVG 1.1//EN" "http://www.w3.org/Graphics/SVG/1.1/DTD/svg11.dtd"><svg t="1718472607375"
  class="icon" viewBox="0 0 1024 1024" version="1.1" xmlns="http://www.w3.org/2000/svg" p-id="13295"
  xmlns:xlink="http://www.w3.org/1999/xlink" width="200" height="200">
  <path
    d="M978.713075 586.188478h-58.111968C904.729115 429.004564 770.533989 307.199831 609.868478 307.199831H382.131003a141.567922 141.567922 0 0 0-127.18073-79.462356h-29.900784V358.399803a311.500629 311.500629 0 0 0-112.998338 130.662328H45.081588A21.350388 21.350388 0 0 0 23.7312 510.361319v209.919885a21.350388 21.350388 0 0 0 21.350388 21.350388h70.451162a305.203032 305.203032 0 0 0 77.670357 105.830342 298.342236 298.342236 0 0 0 112.998338 63.539165v91.64795a21.350388 21.350388 0 0 0 21.350388 21.350388H457.906961a21.350388 21.350388 0 0 0 21.503988-21.350388v-77.516758h51.199972v77.516758a21.299188 21.299188 0 0 0 21.299189 21.299188h130.406328a21.350388 21.350388 0 0 0 21.350388-21.350388v-91.64795a311.347029 311.347029 0 0 0 150.067117-100.607945 308.22383 308.22383 0 0 0 67.071964-164.198309h58.111968a21.350388 21.350388 0 0 0 21.350388-21.299189v-17.35679a21.350388 21.350388 0 0 0-21.555188-21.299188z m-722.585203-32.409583a33.484782 33.484782 0 0 1-32.716782-32.972781 32.460782 32.460782 0 0 1 33.535982-33.535982 32.460782 32.460782 0 0 1 33.535981 33.535982 33.535982 33.535982 0 0 1-34.355181 32.972781z m339.609413-84.172753h-185.343898a30.003183 30.003183 0 0 1 0-60.006367h185.343898a30.003183 30.003183 0 1 1 0 60.006367z"
     p-id="13296"></path>
  <path
    d="M366.207812 135.935925a135.987125 135.987125 0 1 0 271.92305 0C639.922861 61.798366 578.124495 0 502.194937 0A135.987125 135.987125 0 0 0 366.259012 135.935925z"
     p-id="13297"></path>
</svg>