<?xml version="1.0" encoding="UTF-8"?>
<svg width="26px" height="26px" viewBox="0 0 26 26" version="1.1" xmlns="http://www.w3.org/2000/svg" xmlns:xlink="http://www.w3.org/1999/xlink">
    <title>2</title>
    <g id="页面-1" stroke="none" stroke-width="1" >
        <g id="钱包-Deposit" transform="translate(-684, -118.5)">
            <g id="内容" transform="translate(652, 29)">
                <g id="编组" transform="translate(29, 86.6195)">
                    <g id="2" transform="translate(3, 2.8805)">
                        <rect id="矩形"  opacity="0" x="0" y="0" width="26" height="26"></rect>
                        <path d="M13.5,13 C17.2778333,13 20.6271111,12.1342105 22.4780278,10.6894737 C22.8163333,11.1 23,11.5410526 23,12 C23,14.2089474 18.7466389,16 13.5,16 C8.25336112,16 4,14.2089474 4,12 C4,11.5410526 4.18366666,11.1 4.52197221,10.6894737 C6.37288888,12.1342105 9.72216667,13 13.5,13 Z M13.5,17 C17.2778333,17 20.6271111,16.1342105 22.4780278,14.6894737 C22.8163333,15.1 23,15.5410526 23,16 C23,18.2089474 18.7466389,20 13.5,20 C8.25336112,20 4,18.2089474 4,16 C4,15.5410526 4.18366666,15.1 4.52197221,14.6894737 C6.37288888,16.1342105 9.72216667,17 13.5,17 L13.5,17 Z M13.5,21 C17.2778333,21 20.6271111,20.1342105 22.4780278,18.6894737 C22.8163333,19.1 23,19.5410527 23,20 C23,22.2089474 18.7466389,24 13.5,24 C8.25336112,24 4,22.2089474 4,20 C4,19.5410527 4.18366666,19.1 4.52197221,18.6894737 C6.37288888,20.1342105 9.72216667,21 13.5,21 Z M13.5,12 C8.2533611,12 4,10.2089474 4,8 C4,5.79105263 8.2533611,4 13.5,4 C18.7466389,4 23,5.79105263 23,8 C23,10.2089473 18.7466389,12 13.5,12 Z" id="形状" ></path>
                    </g>
                </g>
            </g>
        </g>
    </g>
</svg>