<?xml version="1.0" encoding="UTF-8"?>
<svg width="26px" height="26px" viewBox="0 0 26 26" version="1.1" xmlns="http://www.w3.org/2000/svg" xmlns:xlink="http://www.w3.org/1999/xlink">
    <title>密码</title>
    <defs>
        <linearGradient x1="50%" y1="24.9353444%" x2="50%" y2="100%" id="linearGradient-1">
            <stop stop-color="#FFFFFF" offset="0%"></stop>
            <stop stop-color="#C4E9FF" offset="100%"></stop>
        </linearGradient>
    </defs>
    <g id="页面-1" stroke="none" stroke-width="1" fill="none" fill-rule="evenodd">
        <g id="Login" transform="translate(-781, -362.5)">
            <g id="内容" transform="translate(742, 135.6195)">
                <g id="编组-16" transform="translate(30, 215.3805)">
                    <g id="密码" transform="translate(9, 11.5)">
                        <rect id="矩形" fill="#D8D8D8" opacity="0" x="0" y="0" width="26" height="26"></rect>
                        <path d="M19.9094585,10.0723466 L18.065704,10.0723466 C18.065704,7.10801444 15.8037545,4.84606498 12.9156679,4.84606498 C10.0275812,4.84606498 7.76563177,7.11032491 7.76563177,10.0723466 L5.92187726,10.0723466 C5.92187726,6.5165343 9.05949458,3 12.9156679,3 C16.7718412,3.00231047 19.9094585,6.5165343 19.9094585,10.0723466 L19.9094585,10.0723466 Z M21,13.1036823 C21,12.0847653 20.172852,11.2599278 19.1562455,11.2599278 L6.84375451,11.2599278 C5.82483755,11.2599278 5,12.0870758 5,13.1036823 L5,21.860361 C5,22.879278 5.82714801,23.7041155 6.84375451,23.7041155 L19.1562455,23.7041155 C20.1751625,23.7041155 21,22.8769675 21,21.860361 L21,13.1036823 L21,13.1036823 Z M14.4798556,19.9496029 C14.4798556,20.7143682 13.8606498,21.333574 13.0958845,21.333574 L12.8994946,21.333574 C12.1347292,21.333574 11.5155235,20.7143682 11.5155235,19.9496029 L11.5155235,16.1974007 C11.5155235,15.4326354 12.1347292,14.8134296 12.8994946,14.8134296 L13.0958845,14.8134296 C13.8606498,14.8134296 14.4798556,15.4326354 14.4798556,16.1974007 L14.4798556,19.9496029 L14.4798556,19.9496029 Z" id="形状结合" fill="url(#linearGradient-1)" fill-rule="nonzero"></path>
                    </g>
                </g>
            </g>
        </g>
    </g>
</svg>