<?xml version="1.0" encoding="UTF-8"?>
<svg width="55px" height="52px" viewBox="0 0 55 52" version="1.1" xmlns="http://www.w3.org/2000/svg" xmlns:xlink="http://www.w3.org/1999/xlink">
    <title>Promotion</title>
    <defs>
        <linearGradient x1="50%" y1="13.1005188%" x2="50%" y2="100%" id="linearGradient-1">
            <stop stop-color="#F7FFD5" offset="0%"></stop>
            <stop stop-color="#CFFF00" offset="23.9064166%"></stop>
            <stop stop-color="#BFEB00" offset="82.4720742%"></stop>
            <stop stop-color="#98BB00" offset="100%"></stop>
        </linearGradient>
    </defs>
    <g id="APP" stroke="none" stroke-width="1" fill="none" fill-rule="evenodd">
        <g transform="translate(-192, -727)" id="导航栏2">
            <g transform="translate(0, 708)">
                <g id="Promotion01" transform="translate(164.5, 19)">
                    <g id="Promotion" transform="translate(27.5, 0)">
                        <rect id="矩形" fill="#D8D8D8" opacity="0" x="0" y="0" width="55" height="52"></rect>
                        <path d="M44.5840644,49 L30,49 L30,34 L48,34 L48,45.5967779 C48,47.4686644 46.4629559,49 44.5840644,49 Z M30.3000023,17.1498518 C29.6859245,16.9811481 28.6721734,16.7100513 28.23801,16.2997252 C28.2071249,16.2702025 28.1854002,16.234222 28.154462,16.2029234 C28.125427,16.2342758 28.1018522,16.2702025 28.070914,16.2997252 C27.6367507,16.7100513 27.2443349,16.9810944 26.630257,17.1498518 L26.630257,31 L8,31 L8,19.0659133 C8,17.1903966 9.51143423,15.656108 11.3590219,15.656108 L19.1581582,15.656108 C18.2788685,15.1554862 17.4576913,14.5754878 16.7709808,13.9254173 C13.6517936,10.9748234 13.0885709,6.72231251 15.5138431,4.42549689 C16.5293436,3.46560992 17.908331,3 19.3979929,3 C21.4653394,3 23.745288,3.89712829 25.5584387,5.61222342 C26.6121349,6.60986139 27.5113467,7.89333594 28.1544596,9.24139351 C28.7993749,7.89333594 29.6967843,6.60981293 30.7523359,5.61222342 C32.5654336,3.89712823 34.8454352,3 36.9127287,3 C38.4006412,3 39.781325,3.46566373 40.7968255,4.42549689 C43.2239479,6.72231251 42.658875,10.9748234 39.5396878,13.9254173 C38.8529773,14.575434 38.0317471,15.1554862 37.1525104,15.656108 L44.6410311,15.656108 C46.4886188,15.656108 48,17.1904558 48,19.0659133 L48,31 L30.300003,31 L30.300003,17.1498495 L30.3000023,17.1498518 Z M22.5272474,8.5862262 C21.4654706,7.59386209 20.1001345,7 18.8753521,7 C18.5092665,7 17.8309749,7.06022041 17.3989712,7.46655536 C17.3000612,7.55724222 17,7.8363214 17,8.52870329 C17,9.30658058 17.4198639,10.5291992 18.5978036,11.6340642 C20.0376589,12.9823048 22.414532,14 24.1233347,14 C24.7253302,14 24.9386768,13.8674561 24.940398,13.8656747 C25.2196627,13.3040555 24.5344406,10.4664289 22.5272474,8.5862262 Z M30.0742172,13.9127226 C30.0742172,13.9127226 30.0759458,13.9109921 30.0776745,13.9109921 C30.1177638,13.9109921 30.351187,14 30.847756,14 C32.5639205,14 34.9509829,12.9823025 36.3970923,11.634047 C37.5801067,10.5291688 38,9.3074117 38,8.53043977 C38,7.83805289 37.7004256,7.55811151 37.6010386,7.46655876 C37.1654451,7.06016995 36.4860108,7 36.1182463,7 C34.8865044,7 33.5170199,7.59386636 32.4506688,8.58623773 C30.4487895,10.4542033 29.7553328,13.2639744 30.0742172,13.9127226 Z M26,49 L11.245387,49 C9.46030279,49 8,47.4686644 8,45.596835 L8,34 L26,34 L26,49 L26,49 Z" id="形状" fill="url(#linearGradient-1)" fill-rule="nonzero"></path>
                    </g>
                </g>
            </g>
        </g>
    </g>
</svg>