<?xml version="1.0" encoding="UTF-8"?>
<svg width="30px" height="30px" viewBox="0 0 30 30" version="1.1" xmlns="http://www.w3.org/2000/svg" xmlns:xlink="http://www.w3.org/1999/xlink">
    <title>email</title>
    <defs>
        <linearGradient x1="50%" y1="24.9353444%" x2="50%" y2="100%" id="linearGradient-1">
            <stop stop-color="#FFFFFF" offset="0%"></stop>
            <stop stop-color="#C4E9FF" offset="100%"></stop>
        </linearGradient>
    </defs>
    <g id="页面-1" stroke="none" stroke-width="1" fill="none" fill-rule="evenodd">
        <g id="个人中心-Security-Center" transform="translate(-501, -684)">
            <g id="03" transform="translate(479, 562)">
                <g id="email" transform="translate(22, 122)">
                    <rect id="矩形" fill="#D8D8D8" opacity="0" x="0" y="0" width="30" height="30"></rect>
                    <g id="银行卡-F" transform="translate(4, 6)" fill="url(#linearGradient-1)" fill-rule="nonzero">
                        <path d="M12.5839263,0 C14.4656063,0 15.9420957,0 17.1070183,0.131150351 C18.2964978,0.266929539 19.2618948,0.547745585 20.0630668,1.184982 C20.3024976,1.37476427 20.5250453,1.58614778 20.7276406,1.81296074 C21.4090973,2.58289045 21.7129901,3.51328647 21.8587973,4.65660895 C21.8741454,4.7877593 21.8833543,4.85410595 21.8680061,4.91119493 C21.8430585,5.00547717 21.7762281,5.08291027 21.6868983,5.12103549 C21.631645,5.14263672 21.5625785,5.14263672 21.4244454,5.14263672 L0.575554625,5.14263672 C0.437421515,5.14263672 0.36835496,5.14263672 0.314636529,5.12103549 C0.223988733,5.08387946 0.155844714,5.00624033 0.130459048,4.91119493 C0.118967243,4.82636517 0.122605347,4.74015543 0.141202735,4.65660895 C0.285475094,3.51482942 0.590902749,2.58289045 1.27235943,1.81296074 C1.47533989,1.58464647 1.69770367,1.37452723 1.93693317,1.184982 C2.7381052,0.547745585 3.70196735,0.266929539 4.89144691,0.131150351 C6.05790428,0 7.53439375,0 9.41607367,0 L12.5839263,0 L12.5839263,0 Z M22,9.05400309 C22,10.8283902 22,12.2324704 21.8587973,13.3433911 C21.7129901,14.4851706 21.4090973,15.4171095 20.7276406,16.1854963 C20.5246988,16.4143182 20.3023355,16.6249532 20.0630668,16.815018 C19.2618948,17.4522544 18.2980326,17.7330705 17.1085531,17.8688496 C15.9420957,18 14.4656063,18 12.5839263,18 L9.41607367,18 C7.53439375,18 6.05636947,18 4.89144691,17.8688496 C3.70350216,17.7330705 2.7381052,17.4522544 1.93693317,16.815018 C1.69765434,16.624965 1.47529009,16.4143291 1.27235943,16.1854963 C0.590902749,15.4171095 0.285475094,14.4867135 0.141202735,13.3433911 C0,12.2324704 0,10.8283902 0,9.05400309 L0,8.94599691 C0,8.35350591 0,7.80267444 0.00613924934,7.28887365 C0.00920887401,7.00651466 0.00920887401,6.86456369 0.0982279894,6.77507286 C0.190316729,6.68558203 0.331519464,6.68558203 0.615459746,6.68558203 L21.3845403,6.68558203 C21.6684805,6.68558203 21.8096833,6.68558203 21.9002372,6.77507286 C21.9892563,6.86456369 21.9923259,7.00651466 21.9938608,7.28887365 C22,7.80267444 22,8.35350591 22,8.94445397 L22,9.05400309 Z M9.20887401,13.1150351 C9.20887401,13.5411077 9.55245345,13.8865078 9.97628017,13.8865078 L11.5110925,13.8865078 C11.9349192,13.8865078 12.2784987,13.5411077 12.2784987,13.1150351 C12.2784987,12.6889626 11.9349192,12.3435625 11.5110925,12.3435625 L9.97628017,12.3435625 C9.55245345,12.3435625 9.20887401,12.6889626 9.20887401,13.1150351 Z M14.5807172,12.3435625 C14.1568905,12.3435625 13.813311,12.6889626 13.813311,13.1150351 C13.813311,13.5411077 14.1568905,13.8865078 14.5807172,13.8865078 L18.1629692,13.8865078 C18.5867959,13.8865078 18.9303753,13.5411077 18.9303753,13.1150351 C18.9303753,12.6889626 18.5867959,12.3435625 18.1629692,12.3435625 L14.5807172,12.3435625 Z" id="形状"></path>
                    </g>
                </g>
            </g>
        </g>
    </g>
</svg>