<?xml version="1.0" encoding="UTF-8"?>
<svg width="21px" height="21px" viewBox="0 0 21 21" version="1.1" xmlns="http://www.w3.org/2000/svg" xmlns:xlink="http://www.w3.org/1999/xlink">
    <title>帮助</title>
    <g id="页面-1" stroke="none" stroke-width="1" fill="none" fill-rule="evenodd">
        <g id="VIP-Promotion-Bonus" transform="translate(-1124, -587)" fill="#BFDBFF" fill-rule="nonzero">
            <g id="03" transform="translate(480, 398)">
                <g id="矩形-2" transform="translate(24, 151)">
                    <g id="帮助" transform="translate(620, 38)">
                        <path d="M10.4882682,0 C11.9430168,0 13.3078212,0.277653631 14.5826816,0.832960894 C15.8575419,1.38826816 16.972067,2.13910615 17.926257,3.08547486 C18.8804469,4.03184358 19.6312849,5.1424581 20.1787709,6.41731844 C20.726257,7.69217877 21,9.05698324 21,10.5117318 C21,11.9664804 20.726257,13.3273743 20.1787709,14.5944134 C19.6312849,15.8614525 18.8804469,16.972067 17.926257,17.926257 C16.972067,18.8804469 15.8575419,19.6312849 14.5826816,20.1787709 C13.3078212,20.726257 11.9430168,21 10.4882682,21 C9.03351955,21 7.6726257,20.726257 6.40558659,20.1787709 C5.13854749,19.6312849 4.02793296,18.8804469 3.07374302,17.926257 C2.11955307,16.972067 1.36871508,15.8614525 0.82122905,14.5944134 C0.273743017,13.3273743 0,11.9664804 0,10.5117318 C0,9.05698324 0.273743017,7.69217877 0.82122905,6.41731844 C1.36871508,5.1424581 2.11955307,4.03184358 3.07374302,3.08547486 C4.02793296,2.13910615 5.13854749,1.38826816 6.40558659,0.832960894 C7.6726257,0.277653631 9.03351955,0 10.4882682,0 L10.4882682,0 Z M10.5117318,17.6916201 C10.9184358,17.6916201 11.2586592,17.5547486 11.5324022,17.2810056 C11.8061453,17.0072626 11.9430168,16.6748603 11.9430168,16.2837989 C11.9430168,15.877095 11.8061453,15.5368715 11.5324022,15.2631285 C11.2586592,14.9893855 10.9184358,14.852514 10.5117318,14.852514 C10.1050279,14.852514 9.76480447,14.9893855 9.49106145,15.2631285 C9.21731844,15.5368715 9.08044693,15.877095 9.08044693,16.2837989 C9.08044693,16.6748603 9.21731844,17.0072626 9.49106145,17.2810056 C9.76480447,17.5547486 10.1050279,17.6916201 10.5117318,17.6916201 Z M11.7083799,11.9195531 C11.6927374,11.6692737 11.849162,11.403352 12.1776536,11.1217877 C12.5061453,10.8402235 12.873743,10.5273743 13.2804469,10.1832402 C13.6871508,9.83910615 14.0625698,9.45195531 14.4067039,9.02178771 C14.750838,8.59162011 14.9385475,8.09497207 14.9698324,7.53184358 C15.0011173,6.92178771 14.9385475,6.35083799 14.7821229,5.81899441 C14.6256983,5.28715084 14.3675978,4.82960894 14.0078212,4.44636872 C13.6480447,4.06312849 13.1826816,3.75810056 12.6117318,3.53128492 C12.0407821,3.30446927 11.372067,3.19106145 10.6055866,3.19106145 C9.65139665,3.19106145 8.8575419,3.35921788 8.22402235,3.69553073 C7.59050279,4.03184358 7.07821229,4.43854749 6.68715084,4.91564246 C6.29608939,5.39273743 6.02234637,5.88547486 5.86592179,6.39385475 C5.70949721,6.90223464 5.63910615,7.32849162 5.6547486,7.6726257 C5.67039106,8.07932961 5.79944134,8.37653631 6.04189944,8.56424581 C6.28435754,8.75195531 6.54636872,8.84972067 6.82793296,8.8575419 C7.10949721,8.86536313 7.36759777,8.78715084 7.60223464,8.62290503 C7.83687151,8.45865922 7.95418994,8.22011173 7.95418994,7.90726257 C7.95418994,7.71955307 8.01284916,7.48882682 8.1301676,7.2150838 C8.24748603,6.94134078 8.40782123,6.67932961 8.61117318,6.42905028 C8.81452514,6.17877095 9.06089385,5.96759777 9.35027933,5.79553073 C9.6396648,5.62346369 9.96424581,5.53743017 10.3240223,5.53743017 C11.027933,5.53743017 11.5910615,5.71340782 12.0134078,6.06536313 C12.4357542,6.41731844 12.6312849,6.85921788 12.6,7.39106145 C12.6,7.65698324 12.5217877,7.90335196 12.3653631,8.1301676 C12.2089385,8.35698324 12.0094972,8.57597765 11.7670391,8.78715084 C11.524581,8.99832402 11.2664804,9.20949721 10.9927374,9.42067039 C10.7189944,9.63184358 10.4608939,9.85083799 10.2184358,10.0776536 C9.97597765,10.3044693 9.7726257,10.550838 9.60837989,10.8167598 C9.44413408,11.0826816 9.35418994,11.372067 9.33854749,11.6849162 L9.36201117,12.5765363 C9.36201117,12.8111732 9.47150838,13.0340782 9.69050279,13.2452514 C9.90949721,13.4564246 10.1988827,13.5698324 10.5586592,13.5854749 C10.9184358,13.5698324 11.2039106,13.452514 11.4150838,13.2335196 C11.626257,13.0145251 11.7240223,12.7642458 11.7083799,12.4826816 L11.7083799,11.9195531 L11.7083799,11.9195531 Z" id="形状"></path>
                    </g>
                </g>
            </g>
        </g>
    </g>
</svg>