<?xml version="1.0" encoding="UTF-8"?>
<svg width="35px" height="35px" viewBox="0 0 35 35" version="1.1" xmlns="http://www.w3.org/2000/svg" xmlns:xlink="http://www.w3.org/1999/xlink">
    <title>Agent</title>
    <g id="APP" stroke="none" stroke-width="1" fill="none" fill-rule="evenodd">
        <g id="个人中心" transform="translate(-37, -711)">
            <g id="02" transform="translate(0, 691)">
                <g id="Agent" transform="translate(37, 20)">
                    <rect id="矩形" fill="#D8D8D8" opacity="0" x="0" y="0" width="35" height="35"></rect>
                    <g id="钱包-F" transform="translate(4, 3)" fill="#BFDBFF" fill-rule="nonzero">
                        <path d="M20.3716025,9.57513604 C23.8185186,12.8767938 26.1072145,17.1688711 26.9070524,21.8313102 C27.307791,24.1963165 26.3784185,26.2745919 24.7797272,27.7249895 C23.1959571,29.1607367 20.9513945,30 18.6109105,30 L8.38781274,30 C6.04732872,30 3.80489777,29.1628296 2.21899603,27.7249895 C0.620304761,26.2745919 -0.309067764,24.1984094 0.0938024361,21.8313102 C0.891320531,17.1865022 3.16561538,12.908699 6.59088375,9.61071578 C6.72304223,9.48514023 6.85306912,9.36375052 7.00228031,9.2570113 C7.32201856,9.02888238 7.89328424,8.80075345 8.2854965,8.74843031 C8.47947104,8.72122227 8.61802428,8.72122227 8.90152554,8.72122227 L18.0971977,8.72122227 C18.3785674,8.72122227 18.5192522,8.72122227 18.7153583,8.74843031 C19.105439,8.80075345 19.6788363,9.02888238 19.9985745,9.2570113 C20.1563121,9.37212223 20.2287861,9.44118878 20.3716025,9.57513604 Z M11.5681426,0.914608623 C11.9177231,0.571368774 12.5785155,0 13.4993616,0 C14.4180762,0 15.0788686,0.571368774 15.4305807,0.916701549 C15.8547668,1.33528673 16.1915577,1.95897865 16.7308496,2.23943072 C17.1763515,2.46965257 17.7497488,2.2457095 18.1931192,2.1326915 C18.6173053,2.02385936 19.2631765,1.86061113 19.9452848,1.94851402 C20.2437072,1.98827961 20.6337879,2.08036835 20.9343418,2.34616995 C21.2924487,2.65801591 21.3500016,3.04730013 21.2967118,3.34030975 C21.2327642,3.69820008 21.0089474,3.99120971 20.7872622,4.27166178 L19.5189672,5.87484303 C19.1928341,6.28924236 18.8688327,6.71410632 18.4339887,7.02595228 C18.1142504,7.26035998 17.7049855,7.32524069 17.3063784,7.32524069 L9.69234482,7.32524069 C9.29160621,7.32524069 8.88447283,7.26035998 8.56260299,7.02804521 C8.12989055,6.71410632 7.80588912,6.28924236 7.4797561,5.87484303 L6.21146103,4.27166178 C5.98977584,3.99120971 5.76382747,3.69820008 5.69987982,3.34030975 C5.6314523,2.96857361 5.76946454,2.58914845 6.06224984,2.34407702 C6.34477699,2.118983 6.68900545,1.98131243 7.05130684,1.94851402 C7.7355467,1.86061113 8.38141798,2.02385936 8.80560406,2.1326915 C9.24897444,2.2457095 9.82237171,2.46965257 10.2678737,2.2373378 C10.8071655,1.95897865 11.1439565,1.33528673 11.5681426,0.916701549 L11.5681426,0.914608623 Z" id="形状"></path>
                    </g>
                </g>
            </g>
        </g>
    </g>
</svg>