<?xml version="1.0" encoding="UTF-8"?>
<svg width="25px" height="25px" viewBox="0 0 25 25" version="1.1" xmlns="http://www.w3.org/2000/svg" xmlns:xlink="http://www.w3.org/1999/xlink">
    <title>Quit</title>
    <g id="页面-1" stroke="none" stroke-width="1" fill="none" fill-rule="evenodd">
        <g id="个人中心" transform="translate(-1447, -679)">
            <g id="内容" transform="translate(1438, 79)">
                <g id="Quit" transform="translate(9, 600)">
                    <rect id="矩形" fill="#D8D8D8" opacity="0" x="0" y="0" width="25" height="25"></rect>
                    <g id="退出" transform="translate(4, 4)" fill="#BFDBFF" fill-rule="nonzero">
                        <path d="M5.79839811,17.1288337 C5.59621018,17.0338933 5.37995701,16.9618089 5.1971088,16.838738 C4.94745066,16.6699551 4.79800742,16.4062317 4.78218401,16.1091033 C4.75756983,15.6133034 4.77515139,15.1157452 4.7751514,14.6041219 L5.8353194,14.6041219 C5.8353194,14.7887283 5.83356125,14.9733346 5.8353194,15.157941 C5.84059388,15.653741 6.16585272,16.0352608 6.65462005,16.1143778 C6.76186756,16.1319593 6.87087322,16.1354757 6.97987888,16.1354757 C9.90896659,16.1372338 12.8398125,16.1372338 15.7689002,16.1354757 C16.5460051,16.1354757 16.9240086,15.7521977 16.9240086,14.9698183 L16.9240086,2.11242428 C16.9240086,1.3546591 16.5495214,0.983688194 15.7882399,0.983688211 C12.8433288,0.983688211 9.89665949,0.994237144 6.95174839,0.974897431 C6.28540731,0.971381127 5.819496,1.40916193 5.82477045,2.09835904 C5.84762649,4.79361202 5.83356123,7.49062315 5.83356123,10.1858761 L5.83356123,10.4953116 C5.46962296,10.4566322 5.13205704,10.421469 4.76636062,10.3845477 L4.76636062,10.127857 L4.76636062,1.22103925 C4.76636062,0.505469796 5.24809534,0.00263721108 5.96014846,0.00263722867 C9.56788435,-0.000879076223 13.1756202,-0.000879076223 16.7833561,0.00263722867 C17.3811291,0.00263722867 17.7925376,0.333170539 17.9578043,0.913361973 C17.9648369,0.941492465 17.9859347,0.964348499 18,0.990720839 L18,16.0950381 C17.9349482,16.2497558 17.8857199,16.4115061 17.8048447,16.5556749 C17.6219965,16.8791756 17.3090447,17.0198281 16.9714788,17.1235593 C13.2494628,17.1288337 9.52393045,17.1288337 5.79839811,17.1288337 Z" id="路径"></path>
                        <path d="M0,11.6099824 C0.138894307,11.4710881 0.260207072,11.3040633 0.420199261,11.1950576 C1.43817152,10.5058605 2.46669272,9.82897048 3.4916976,9.14856416 C3.55674937,9.10461026 3.61652667,9.04834928 3.68861106,9.02549325 C3.77827701,8.99736275 3.90486424,8.95516701 3.96288337,8.9956046 C4.02266068,9.03780035 4.04727485,9.1749365 4.03672592,9.26284428 C3.98573939,9.65667121 3.91717132,10.0469818 3.85563586,10.4390506 C3.84332878,10.5216839 3.83629615,10.6060754 3.82223089,10.7221137 C4.44637623,10.7977144 5.05294002,10.8873803 5.66302011,10.9436413 C6.8357101,11.0544051 8.01015822,11.0913264 9.18284821,10.9559484 C10.3221332,10.8240867 11.4332878,10.5779449 12.3879664,9.9080875 C12.7765188,9.63557334 13.0929869,9.25756983 13.4393436,8.92527836 C13.4762649,8.89011524 13.5043954,8.8479195 13.5553819,8.82682163 C12.5936706,10.7098066 11.2240672,12.2024809 9.32525884,13.1747411 C7.4176597,14.1522758 5.3887478,14.3175425 3.28423521,14.008107 C3.21918344,14.3966595 3.16468061,14.7729049 3.0890799,15.1456339 C3.06974019,15.2405743 2.99238132,15.3917757 2.93612034,15.395292 C2.84293808,15.4005665 2.71635086,15.3284821 2.65305723,15.2476069 C1.8091424,14.1874389 0.974018355,13.1202383 0.138894307,12.0530377 C0.0879077806,11.9879859 0.0457120516,11.9141434 0,11.8438171 L0,11.6099824 L0,11.6099824 Z" id="路径"></path>
                        <path d="M6.49990233,10.5269584 L6.49990233,10.2948818 L6.49990233,1.95067394 C6.49990233,1.48300447 6.65286189,1.36872434 7.10998241,1.50058603 C8.70287164,1.95770657 10.2940027,2.4148271 11.8851338,2.87194763 C12.3229146,2.99853486 12.4758742,3.20599725 12.4758742,3.67015041 C12.4758742,5.47050203 12.474116,7.26909552 12.4793905,9.06944714 C12.4793905,9.23647196 12.4301621,9.34020315 12.2947841,9.43690173 C11.5229537,9.99072084 10.6456339,10.2667513 9.72436022,10.4232272 C8.69759718,10.5972846 7.66380152,10.6148662 6.62648955,10.5550889 C6.59308459,10.5533307 6.55440516,10.5392655 6.49990233,10.5269584 L6.49990233,10.5269584 Z M12.0714983,8.52969329 C12.067982,8.31168196 11.9273296,8.11828481 11.7708537,8.11652665 C11.6091033,8.11301035 11.4614182,8.32047274 11.4631764,8.5455167 C11.4649345,8.76352802 11.6020707,8.94989255 11.763821,8.9516507 C11.9361203,8.95340885 12.0750146,8.76176987 12.0714983,8.52969329 L12.0714983,8.52969329 Z M6.50341864,14.5126978 C8.88571986,14.1786482 10.8390311,13.0674936 12.4565345,11.267142 C12.4670834,11.3603243 12.4758742,11.4095526 12.4758742,11.4605392 C12.4776323,12.1462199 12.4776323,12.8301426 12.4758742,13.5158234 C12.474116,13.8955851 12.2965423,14.1241453 11.9308459,14.2296347 C10.3326822,14.6902715 8.73451845,15.1509084 7.13811292,15.6115452 C7.071303,15.6308849 7.00449307,15.6554991 6.93592498,15.6678062 C6.70736472,15.7152764 6.5210002,15.5904473 6.50693494,15.3601289 C6.49111153,15.0805821 6.50341864,14.8010353 6.50341864,14.5126978 L6.50341864,14.5126978 Z" id="形状"></path>
                    </g>
                </g>
            </g>
        </g>
    </g>
</svg>