<?xml version="1.0" encoding="UTF-8"?>
<svg width="48px" height="35px" viewBox="0 0 48 35" version="1.1" xmlns="http://www.w3.org/2000/svg" xmlns:xlink="http://www.w3.org/1999/xlink">
    <title>编组 2</title>
    <g id="页面-1" stroke="none" stroke-width="1" fill="none" fill-rule="evenodd">
        <g id="首页" transform="translate(-37, -273)">
            <g id="左侧" transform="translate(0, 79)">
                <g id="Recent01" transform="translate(11, 187)">
                    <g id="编组-2" transform="translate(26, 7)">
                        <rect id="矩形" fill="#D8D8D8" opacity="0" x="0" y="0" width="48" height="35"></rect>
                        <g id="recently" transform="translate(9, 3)" fill="#BFDBFF" fill-rule="nonzero">
                            <path d="M14.9985257,30 C12.5109886,30 10.1670061,29.3905808 8.10426997,28.3180195 L2.7511263,29.2791071 L2.73357197,23.6267637 C1.01365947,21.1857952 0,18.2115977 0,15.0000857 C0,6.71622959 6.71542107,0 14.9984914,0 C23.2844075,0 30,6.71619527 30,15.0000857 C30,23.2838047 23.2844418,30 14.9985257,30 Z M14.9984914,2.15235767 C7.9055152,2.15235767 2.15352493,7.90492792 2.15352493,15.0000857 C2.15352493,17.8867433 3.10430424,20.5498363 4.71062793,22.694376 L4.71062793,26.7090746 L7.99784686,25.7702405 C10.01248,27.0830995 12.4145426,27.8476423 14.9984914,27.8476423 C22.0945191,27.8476423 27.8463722,22.0967522 27.8463722,15.0000857 C27.8463722,7.90492792 22.0945191,2.15235767 14.9984914,2.15235767 Z" id="形状"></path>
                            <path d="M15.0015837,4 C8.92373376,4 4,8.92524705 4,15.0000704 C4,21.0762662 8.92373376,26 15.0015837,26 C21.0762662,26 26,21.0762662 26,15.0000704 C26,8.92524705 21.0762662,4 15.0015837,4 Z M21.7050578,19.2476077 C21.3837818,19.80172 20.6734834,19.9918672 20.1193711,19.6719285 L14.7258473,15.9790666 C13.8390564,15.3712499 13.8356779,15.3712499 13.8356779,14.200382 L13.8356779,9.55833221 C13.8356779,8.91729346 14.3544917,8.39714231 14.9970086,8.39714231 C15.636534,8.39714231 16.1551719,8.91729346 16.1551719,9.55833221 L16.1551719,14.1252451 L21.2777104,17.6619561 C21.8347085,17.9816837 22.0233425,18.6919821 21.7050578,19.2476077 Z" id="形状"></path>
                        </g>
                    </g>
                </g>
            </g>
        </g>
    </g>
</svg>