<?xml version="1.0" encoding="UTF-8"?>
<svg width="25px" height="25px" viewBox="0 0 25 25" version="1.1" xmlns="http://www.w3.org/2000/svg" xmlns:xlink="http://www.w3.org/1999/xlink">
    <title>Reorts</title>
    <g id="页面-1" stroke="none" stroke-width="1" fill="none" fill-rule="evenodd">
        <g id="个人中心" transform="translate(-1447, -251)">
            <g id="内容" transform="translate(1438, 79)">
                <g id="Reorts" transform="translate(9, 172)">
                    <rect id="矩形" fill="#D8D8D8" opacity="0" x="0" y="0" width="25" height="25"></rect>
                    <g id="tab_报告" transform="translate(4, 3)" fill="#BFDBFF" fill-rule="nonzero">
                        <path d="M3,0 L15,0 C16.6568543,0 18,1.34314575 18,3 L18,12 C18,12.7956495 17.6839295,13.5587112 17.1213204,14.1213203 C16.5587112,14.6839295 15.7956495,15 15,15 L3,15 C2.20435052,15 1.44128878,14.6839295 0.878679647,14.1213203 C0.316070513,13.5587112 0,12.7956495 0,12 L0,3 C0,1.34314575 1.34314575,0 3,0 Z M11.421,6.1035 L8.23875,9.285 L6.11775,7.164 C5.97739866,7.02284307 5.78655723,6.94347386 5.5875,6.94347386 C5.38844277,6.94347386 5.19760135,7.02284307 5.05725,7.164 L2.40525001,9.81599999 C2.12102119,10.1102842 2.12508622,10.5780634 2.41438643,10.8673636 C2.70368664,11.1566638 3.17146579,11.1607288 3.46575001,10.8765 L5.5875,8.75475 L7.69874999,10.86675 C7.83814871,11.0122185 8.03035192,11.0952779 8.2318208,11.0971444 C8.43328967,11.0989487 8.6269742,11.0194047 8.769,10.8765 L12.4815,7.164 L13.47075,8.15325 C13.6765709,8.35905009 13.982876,8.42718507 14.2565293,8.32803997 C14.5301827,8.22889487 14.7217631,7.98037503 14.748,7.69050001 L15.05175,4.34775001 C15.0717857,4.12619349 14.9924315,3.90717531 14.8351281,3.74987191 C14.6778247,3.5925685 14.4588065,3.51321431 14.23725,3.53325 L10.8945,3.83700001 C10.604625,3.86323687 10.3561051,4.05481735 10.25696,4.3284707 C10.1578149,4.60212404 10.2259499,4.90842915 10.43175,5.11425001 L11.421,6.1035 Z M2.99999999,16.5 L15,16.5 C15.4141651,16.5000685 15.749876,16.8358349 15.749876,17.25 C15.749876,17.6641651 15.4141651,17.9999315 15,18 L2.99999999,18 C2.58583486,17.9999315 2.250124,17.6641651 2.250124,17.25 C2.250124,16.8358349 2.58583486,16.5000685 2.99999999,16.5 L2.99999999,16.5 Z" id="形状"></path>
                    </g>
                </g>
            </g>
        </g>
    </g>
</svg>