<?xml version="1.0" encoding="UTF-8"?>
<svg width="65px" height="65px" viewBox="0 0 65 65" version="1.1" xmlns="http://www.w3.org/2000/svg" xmlns:xlink="http://www.w3.org/1999/xlink">
    <title>Saque</title>
    <defs>
        <linearGradient x1="50%" y1="24.9353444%" x2="50%" y2="100%" id="linearGradient-1">
            <stop stop-color="#DBF2FF" offset="0%"></stop>
            <stop stop-color="#98D9FF" offset="100%"></stop>
        </linearGradient>
    </defs>
    <g id="APP" stroke="none" stroke-width="1" fill="none" fill-rule="evenodd">
        <g id="个人中心" transform="translate(-88, -299)">
            <g id="01" transform="translate(0, 115)">
                <g id="Saque" transform="translate(88, 184)">
                    <rect id="矩形" fill="#D8D8D8" opacity="0" x="0" y="0" width="65" height="65"></rect>
                    <g id="cw_yhzhgl" transform="translate(6, 12)" fill="url(#linearGradient-1)" fill-rule="nonzero">
                        <path d="M54,16 L54,38 C54,39.6568542 52.6568542,41 51,41 L3,41 C1.34314575,41 1.01453063e-16,39.6568542 0,38 L0,16 L54,16 Z M13.457098,21.5434259 C11.4656888,21.5434259 9.83635411,22.5391304 9.83635411,24.3796752 L9.83635411,24.8624411 C9.83635411,25.1943426 9.89669984,25.5262441 9.98721844,25.8581456 C9.62514405,25.8883185 9.53462546,26.3710843 9.56479832,26.5219487 C9.62514405,26.7029859 9.77600838,27.6986904 10.31912,27.9400733 C10.3794657,28.5435306 10.982923,29.9918282 11.5562074,30.2935568 C11.6768989,30.6858041 11.5562074,31.2289157 11.5562074,31.2289157 C11.5562074,31.2289157 9.11220534,32.284966 8.32771084,32.6470403 C6.03457307,33.7030906 5.34059717,33.612572 5.34059717,35.5436354 L5.34059717,35.8755369 L21.5735987,35.8755369 L21.5735987,35.5436354 C21.5735987,33.612572 20.8796228,33.7030906 18.5864851,32.6470403 C17.8019906,32.284966 15.3579885,31.2289157 15.3579885,31.2289157 C15.3579885,31.2289157 15.2071241,30.715977 15.3579885,30.2935568 C15.9312729,29.9616553 16.5347302,28.5133578 16.595076,27.9400733 C17.1381875,27.6986904 17.2890519,26.7029859 17.3493976,26.5219487 C17.3795705,26.3710843 17.2890519,25.8883185 16.9269775,25.8581456 C17.0174961,25.556417 17.0778418,25.2245155 17.0778418,24.8624411 L17.0778418,24.3796752 C17.0778418,22.5391304 15.4485071,21.5434259 13.457098,21.5434259 Z M0,8.96134102 L0,2.74573075 C0,1.23708748 1.20691461,0 2.68538502,0 L51.2335254,0 C52.7119958,0 53.9189104,1.23708748 53.9189104,2.74573075 L53.9189104,8.96134102 L0,8.96134102 Z" id="形状结合"></path>
                    </g>
                </g>
            </g>
        </g>
    </g>
</svg>