<?xml version="1.0" encoding="UTF-8"?>
<svg width="28px" height="28px" viewBox="0 0 28 28" version="1.1" xmlns="http://www.w3.org/2000/svg" xmlns:xlink="http://www.w3.org/1999/xlink">
    <title>放大镜</title>
    <g id="页面-1" stroke="none" stroke-width="1" fill="none" fill-rule="evenodd">
        <g id="首页" transform="translate(-1607, -843)" fill="#BFDBFF" fill-rule="nonzero">
            <g id="04" transform="translate(479, 801)">
                <g id="编组-4" transform="translate(33, 22)">
                    <g id="放大镜" transform="translate(1095, 20)">
                        <path d="M27.6859457,26.0590646 L24.3485108,22.9254211 C24.0903767,22.6318967 23.7080651,22.5141516 23.3485435,22.617449 C22.989022,22.7207465 22.708252,23.0290077 22.6141668,23.4237314 C22.5200816,23.8184551 22.627326,24.2382003 22.8946734,24.5216092 L26.2321344,27.6552241 C26.4902684,27.9487485 26.87258,28.0664936 27.2321016,27.9631961 C27.5916232,27.8598987 27.8723931,27.5516375 27.9664784,27.1569138 C28.0605636,26.7621901 27.9533192,26.3424449 27.6859718,26.059036 L27.6859457,26.0590646 Z" id="路径"></path>
                        <path d="M13.0967742,23.9505701 C19.0911602,23.9505701 23.9505701,19.0911602 23.9505701,13.0967742 C23.9505701,7.10238823 19.0911602,2.24297828 13.0967742,2.24297828 C7.10238823,2.24297828 2.24297828,7.10238823 2.24297828,13.0967742 C2.24297828,19.0911602 7.10238823,23.9505701 13.0967742,23.9505701 Z M13.0967742,26.1935484 C5.86362553,26.1935484 0,20.3299229 0,13.0967742 C0,5.86362553 5.86362553,0 13.0967742,0 C20.3299229,0 26.1935484,5.86362553 26.1935484,13.0967742 C26.1935484,20.3299229 20.3299229,26.1935484 13.0967742,26.1935484 Z" id="形状"></path>
                    </g>
                </g>
            </g>
        </g>
    </g>
</svg>