<?xml version="1.0" encoding="UTF-8"?>
<svg width="25px" height="25px" viewBox="0 0 25 25" version="1.1" xmlns="http://www.w3.org/2000/svg" xmlns:xlink="http://www.w3.org/1999/xlink">
    <title>Security Center</title>
    <g id="页面-1" stroke="none" stroke-width="1" fill="none" fill-rule="evenodd">
        <g id="个人中心" transform="translate(-1447, -518)">
            <g id="内容" transform="translate(1438, 79)">
                <g id="Security-Center" transform="translate(9, 439)">
                    <rect id="矩形" fill="#D8D8D8" opacity="0" x="0" y="0" width="25" height="25"></rect>
                    <g id="safetyCenter" transform="translate(4, 3)" fill="#BFDBFF" fill-rule="nonzero">
                        <path d="M16.59375,3.515625 L16.3125,3.375 C15.328125,3.09375 14.203125,2.671875 13.21875,2.25 C12.234375,1.828125 11.390625,1.265625 10.546875,0.5625 L10.265625,0.421875 C9.984375,0.140625 9.421875,0 9,0 C8.578125,0 8.15625,0.140625 7.734375,0.421875 L7.453125,0.5625 C6.609375,1.265625 5.765625,1.828125 4.78125,2.25 C3.796875,2.671875 2.8125,3.09375 1.6875,3.515625 L1.40625,3.515625 C0.5625,3.796875 0,4.640625 0,5.625 C0.140625,7.171875 0.5625,11.25 1.828125,13.78125 C3.234375,16.734375 6.75,18.84375 8.015625,19.546875 C8.296875,19.546875 8.71875,19.6875 9,19.6875 C9.28125,19.6875 9.703125,19.546875 9.984375,19.40625 C11.109375,18.703125 14.625,16.59375 16.171875,13.640625 C17.4375,11.109375 17.859375,7.171875 18,5.625 C18,4.640625 17.4375,3.796875 16.59375,3.515625 Z M8.015625,13.359375 L7.03125,12.375 L4.078125,9.28125 L5.0625,8.296875 L8.015625,11.25 L12.9375,6.328125 L13.921875,7.3125 L8.015625,13.359375 Z" id="形状"></path>
                    </g>
                </g>
            </g>
        </g>
    </g>
</svg>