<?xml version="1.0" encoding="UTF-8"?>
<svg width="24px" height="15.996431px" viewBox="0 0 24 15.996431" version="1.1" xmlns="http://www.w3.org/2000/svg" xmlns:xlink="http://www.w3.org/1999/xlink">
    <title>显示</title>
    <g id="页面-1" stroke="none" stroke-width="1" fill="none" fill-rule="evenodd">
        <g id="钱包-Manage-Account02" transform="translate(-1583, -237)" fill="#BFDBFF" fill-rule="nonzero">
            <g id="02" transform="translate(480, 177)">
                <g id="编组-2" transform="translate(1103, 56)">
                    <g id="显示" transform="translate(0, 4)">
                        <path d="M12,0 C6.54472451,0 1.85768459,3.31117555 0,7.99821548 C1.85768459,12.6852554 6.54472451,15.996431 12,15.996431 C17.4552755,15.996431 22.1423154,12.6852554 24,7.99821548 C22.1423154,3.31117555 17.4552755,0 12,0 Z M12,13.3250056 C8.94311845,13.3250056 6.54472451,10.9721169 6.54472451,7.99821548 C6.54472451,5.00557662 8.94311845,2.67142538 12,2.67142538 C15.0568816,2.67142538 17.4552755,5.02431408 17.4552755,7.99821548 C17.4552755,10.9908543 15.0568816,13.3250056 12,13.3250056 Z M12,4.79946464 C10.1449922,4.79946464 8.7209458,6.19138969 8.7209458,7.99821548 C8.7209458,9.80504127 10.1449922,11.1969663 12,11.1969663 C13.8550078,11.1969663 15.2790542,9.80504127 15.2790542,7.99821548 C15.2790542,6.19138969 13.8550078,4.79946464 12,4.79946464 Z" id="形状"></path>
                    </g>
                </g>
            </g>
        </g>
    </g>
</svg>