<?xml version="1.0" encoding="UTF-8"?>
<svg width="18px" height="18px" viewBox="0 0 18 18" version="1.1" xmlns="http://www.w3.org/2000/svg" xmlns:xlink="http://www.w3.org/1999/xlink">
    <title>刷新2</title>
    <g id="页面-1" stroke="none" stroke-width="1" fill="none" fill-rule="evenodd">
        <g id="首页" transform="translate(-749, -33)" fill="#BFDBFF" fill-rule="nonzero">
            <g id="编组" transform="translate(628, 22)">
                <g id="刷新2" transform="translate(121, 11)">
                    <path d="M13.2441429,5.44718234 C12.4765714,4.55624598 11.007,3.17034498 9,2.76923077 C5.77542857,2.12513392 4.06671429,2.76923077 0,5.53846154 C0,5.53846154 2.29242857,0 9,0 C12.4907143,0 14.4501429,1.37047354 15.921,2.77180201 L18,0.692950504 L18,8.30769231 L10.3847143,8.30769231 L13.2441429,5.44718234 Z M4.75585714,12.551532 C5.52342857,13.4424684 6.993,14.8283694 9,15.2294836 C12.2245714,15.8748661 13.9332857,15.2294836 18,12.4615385 C18,12.4615385 15.7075714,18 9,18 C5.50928571,18 3.54985714,16.6295265 2.079,15.2294836 L0,17.3070495 L0,9.69230769 L7.61528571,9.69230769 L4.75585714,12.551532 Z" id="形状"></path>
                </g>
            </g>
        </g>
    </g>
</svg>