<svg t="1718030679397" class="icon" viewBox="0 0 1250 1024" version="1.1" xmlns="http://www.w3.org/2000/svg"
  p-id="23260" width="200" height="200">
  <path
    d="M531.153226 530.323277m-493.676723 0a493.676723 493.676723 0 1 0 987.353446 0 493.676723 493.676723 0 1 0-987.353446 0Z"
     p-id="23261"></path>
  <path
    d="M1207.175529 353.973365c-1.531113-40.896466-32.539735-45.790305-48.09413-48.838222 40.152373-7.440925 48.280153-32.42526 48.09413-53.045206 1.430947 26.801638 8.929109 50.941714 43.529408 53.045206-38.134738 5.265885-41.010942 32.382331-43.529408 48.838222zM48.108439 983.590056c-1.531113-40.896466-32.539735-45.790305-48.09413-48.838222 40.152373-7.440925 48.280153-32.42526 48.09413-53.045206 1.430947 26.801638 8.929109 50.941714 43.529408 53.045206-38.134738 5.265885-41.010942 32.382331-43.529408 48.838222zM1060.417602 253.993097c-4.04958-101.969285-85.656489-114.146644-126.624502-121.759282 105.718366-18.602311 127.068096-80.848507 126.624502-132.233815 3.834938 66.825226 23.51046 126.996548 114.575928 132.233815-100.352315 13.136094-107.922025 80.76265-114.575928 121.759282z"
    p-id="23262"></path>
  <path
    d="M685.309149 373.248222L467.146966 609.053982l-89.248166-98.921368a46.391303 46.391303 0 0 0-64.893448-3.677534 45.217926 45.217926 0 0 0-3.706153 64.278141l123.233158 136.512346a46.46285 46.46285 0 0 0 33.984992 15.182348h0.243261a46.548707 46.548707 0 0 0 33.999301-14.810302l252.447674-272.924526a45.189307 45.189307 0 0 0-2.861894-64.27814 46.491469 46.491469 0 0 0-65.022233 2.861894"
    fill="#ffffff" p-id="23263"></path>
</svg>