<?xml version="1.0" encoding="UTF-8"?>
<svg width="48px" height="35px" viewBox="0 0 48 35" version="1.1" xmlns="http://www.w3.org/2000/svg" xmlns:xlink="http://www.w3.org/1999/xlink">
    <title>编组 2</title>
    <g id="页面-1" stroke="none" stroke-width="1" fill-rule="evenodd">
        <g id="首页" transform="translate(-145, -113)">
            <g id="左侧" transform="translate(0, 79)">
                <g id="Slot01" transform="translate(119, 27)">
                    <g id="编组-2" transform="translate(26, 7)">
                        <rect id="矩形"  opacity="0" x="0" y="0" width="48" height="35"></rect>
                        <g id="unfavor1" transform="translate(5, 5)"  fill-rule="nonzero">
                            <path d="M18.9357143,0 C20.1921793,0.00111084656 21.3164289,0.780772686 21.7578572,1.95714285 L32.3721428,1.95714285 L32.3721428,3.91428572 L37.0728572,3.91428572 L37.0728572,11.4764286 L37.605,11.4764286 L37.605,3.52785715 C37.1711953,3.32087948 36.8951684,2.88279447 36.8957143,2.40214285 C36.8957143,1.71428569 37.4514286,1.15642856 38.1371428,1.15642856 C38.8228571,1.15642856 39.3792857,1.71357141 39.3792857,2.40214285 C39.3792857,2.89857141 39.0892857,3.32785713 38.67,3.52785715 L38.6692857,11.4807143 L38.6778572,11.4807143 C39.423623,11.5364286 40,12.1578702 40,12.9057143 L40,13.6071428 C40,14.3961211 39.3604068,15.0357143 38.5714286,15.0357143 L37.0728572,15.035 L37.0728572,20.64 L37.8714286,20.64 L37.8714286,23.2207143 L23.9657143,23.2207143 C23.5642857,24.2307143 21.485,25 18.98,25 C16.475,25 14.3957143,24.2307143 13.9942857,23.2214286 L0,23.22 L0,20.64 L0.886428564,20.64 L0.886428564,3.91428572 L5.58714285,3.91428572 L5.58714285,1.95714285 L16.1142857,1.95714285 C16.5556219,0.78101707 17.6795107,0.00140813319 18.9357143,0 L18.9357143,0 Z M19.1128572,20.6407143 C16.4435714,20.6407143 14.2792857,21.2178571 14.2792857,21.9307143 C14.2792857,22.6428571 16.4435714,23.2207143 19.1128572,23.2207143 C21.7828572,23.2207143 23.9464286,22.6428571 23.9464286,21.9307143 C23.9464286,21.2178571 21.7821428,20.6407143 19.1128572,20.6407143 Z M12.5057143,6.76214285 L2.66071428,6.76214285 L2.66071428,19.0392857 L12.5057143,19.0392857 L12.5057143,6.76142856 L12.5057143,6.76214285 Z M23.6807143,6.76214285 L13.8357143,6.76214285 L13.8357143,19.0392857 L23.6807143,19.0392857 L23.6807143,6.76142856 L23.6807143,6.76214285 Z M34.8557143,6.76214285 L25.0114286,6.76214285 L25.0114286,19.0392857 L34.8557143,19.0392857 L34.8557143,6.76142856 L34.8557143,6.76214285 Z M10,10 L10,11.2057143 L9.78857144,11.4128572 C9.45475408,11.7525023 9.16027679,12.1286857 8.91071428,12.5342857 C8.54654221,13.1386817 8.26521663,13.7892621 8.07428572,14.4685714 C7.91142856,15.0207143 7.80214287,15.6742857 7.74571428,16.4285714 L6.03857144,16.4285714 L6.08142856,16.1185714 C6.21642856,15.2042857 6.41357141,14.4278572 6.67428572,13.7885714 C6.96214287,13.0785714 7.41928572,12.3185714 8.04428572,11.5085714 L5,11.5085714 L5,10 L10,10 Z M21.4285714,10 L21.4285714,11.2057143 L21.2171428,11.4128572 C20.8833255,11.7525023 20.5888482,12.1286857 20.3392857,12.5342857 C19.9751136,13.1386817 19.6937881,13.7892621 19.5028572,14.4685714 C19.34,15.0207143 19.2307143,15.6742857 19.1742857,16.4285714 L17.4671428,16.4285714 L17.51,16.1185714 C17.645,15.2042857 17.8421428,14.4278572 18.1028572,13.7885714 C18.3907143,13.0785714 18.8478572,12.3185714 19.4728572,11.5085714 L16.4285714,11.5085714 L16.4285714,10 L21.4285714,10 L21.4285714,10 Z M32.8571428,10 L32.8571428,11.2057143 L32.6457143,11.4128572 C32.3118969,11.7525023 32.0174197,12.1286857 31.7678572,12.5342857 C31.4036851,13.1386817 31.1223595,13.7892621 30.9314286,14.4685714 C30.7685714,15.0207143 30.6592857,15.6742857 30.6028572,16.4285714 L28.8957143,16.4285714 L28.9385714,16.1185714 C29.0735714,15.2042857 29.2707143,14.4278572 29.5314286,13.7885714 C29.8192857,13.0785714 30.2764286,12.3185714 30.9014286,11.5085714 L27.8571428,11.5085714 L27.8571428,10 L32.8571428,10 Z" id="形状"></path>
                        </g>
                    </g>
                </g>
            </g>
        </g>
    </g>
</svg>