<?xml version="1.0" encoding="UTF-8"?>
<svg width="48px" height="35px" viewBox="0 0 48 35" version="1.1" xmlns="http://www.w3.org/2000/svg" xmlns:xlink="http://www.w3.org/1999/xlink">
    <title>编组 2</title>
    <g id="页面-1" stroke="none" stroke-width="1" fill="none" fill-rule="evenodd">
        <g id="首页" transform="translate(-145, -193)">
            <g id="左侧" transform="translate(0, 79)">
                <g id="Sports01" transform="translate(119, 107)">
                    <g id="编组-2" transform="translate(26, 7)">
                        <rect id="矩形" fill="#D8D8D8" opacity="0" x="0" y="0" width="48" height="35"></rect>
                        <g id="足球" transform="translate(7, 1)" fill="#BFDBFF" fill-rule="nonzero">
                            <path d="M16.5125469,33 C15.185742,33 13.8537384,32.8375632 12.553527,32.5171888 C10.3915288,31.98442 8.39832227,31.0439929 6.62936018,29.7220693 C4.92091645,28.445304 3.49267001,26.8683939 2.38427773,25.0350976 C1.27591878,23.201768 0.543200166,21.2043352 0.206450197,19.0981557 C-0.142230153,16.9174233 -0.0488865937,14.7153947 0.483814867,12.5532589 C0.937002679,10.7139637 1.69061612,8.98658125 2.72369371,7.41916941 C3.72217986,5.90431456 4.95930694,4.57099301 6.40071678,3.45629793 C7.82843001,2.35223424 9.41607032,1.49345878 11.1196153,0.903967149 C12.8529528,0.304144087 14.6589391,0 16.4874198,0 C17.8142247,0 19.1462616,0.162470132 20.446473,0.482844568 C22.6084712,1.01557996 24.6016444,1.95600708 26.3706065,3.27793072 C28.0790836,4.55469601 29.50733,6.13157278 30.6156889,7.96490241 C31.7240812,9.79823204 32.4567998,11.7956648 32.7935498,13.9018443 C33.1422302,16.0826101 33.0488866,18.2846053 32.5161851,20.4467744 C32.0629973,22.286103 31.3093839,24.0134854 30.276273,25.5808972 C29.2778201,27.0957521 28.0406931,28.4290736 26.5992499,29.5437687 C25.17157,30.6478324 23.5839297,31.5065745 21.8803514,32.0960662 C20.1470472,32.6958892 18.3410609,33 16.5125469,33 L16.5125469,33 Z M16.4847747,1 C9.34431478,1 3.1625449,5.84925627 1.45182234,12.7925103 C-0.592376113,21.0890505 4.49386039,29.5019658 12.7898721,31.5462617 C14.0116998,31.8473232 15.2631435,32 16.5094438,32 C23.6499365,32 29.8317063,27.1507765 31.5424289,20.2075224 C32.5326679,16.1885198 31.898641,12.0244086 29.7571747,8.48227508 C27.6157083,4.94014154 24.2231258,2.44404036 20.2043791,1.45377105 C18.9825515,1.15267676 17.7311077,1 16.4847747,1 Z" id="形状"></path>
                            <line x1="20" y1="1" x2="15" y2="22" id="路径"></line>
                            <polygon id="路径" points="20.25726 1 21 1.17635134 15.7427052 22 15 21.8236824"></polygon>
                            <line x1="16" y1="17" x2="5" y2="27" id="路径"></line>
                            <polygon id="路径" points="13.996064 18.4640148 14.4642156 19 6.0685147 25.4610775 5.60036317 24.9250923"></polygon>
                            <line x1="33" y1="17" x2="11" y2="16" id="路径"></line>
                            <polygon id="路径" points="12.0384344 16 31.5708596 16.2221022 31.5324578 17 12 16.7778978"></polygon>
                            <line x1="22" y1="32" x2="15" y2="12" id="路径"></line>
                            <polygon id="路径" points="18.5 20.635826 20 27.8980254 19.2929075 28.1208455 17.7929075 20.8586461"></polygon>
                            <line x1="3" y1="11" x2="22" y2="19" id="路径"></line>
                            <path d="M3.30504724,10 L14.3050472,14.9225536 C16.7517791,16.5349571 16.6500967,16.7487117 14,15.5638174 C11.3499033,14.378923 9.93974259,13.7469757 9.76951778,13.6679754 L3,10.6412317 L3.30504724,10 Z" id="路径"></path>
                            <path d="M7.07743882,4.07244888 L6.71029165,4 C4.18059001,6.10273606 1.8522293,9.04993323 1,12.4596906 C0.786221573,13.3153881 0.644030196,14.1869395 0.574857526,15.0655696 L7.95749781,12.4596906 L7.07743882,4.07244888 Z" id="路径"></path>
                            <path d="M8.06615875,23.3947616 L1,22 C2.36982042,25.9299931 5.21009096,29.2310309 9,31 L8.06615875,23.3947616 Z" id="路径"></path>
                            <path d="M14.6123608,32.5166854 C18.9818377,33.0254359 22.7644209,32.244753 26,29.3176809 L18.9075895,26 L14.4642156,32.2668015 L14.6123608,32.5166854 Z" id="路径"></path>
                            <path d="M27,16.5509956 L31.2409129,23 C31.7783039,21.9923511 32.2072452,20.9154508 32.5084825,19.7778869 C33.3069711,16.7623981 33.1054409,13.7356742 32.1008772,11 L27,16.5509956 L27,16.5509956 Z" id="路径"></path>
                            <path d="M14,0.264616527 L18.9447783,7 L26,3.58440056 C24.3791742,2.1874711 22.4997903,1.13251785 20.4203193,0.535298809 C18.2486128,-0.0883716351 16.0714844,-0.151378206 14,0.264616527 Z" id="路径"></path>
                            <polygon id="路径" points="18.9701565 23 23 16.683074 18.0741076 11 11 13.8045988 11.5537377 21.2209527"></polygon>
                        </g>
                    </g>
                </g>
            </g>
        </g>
    </g>
</svg>