<?xml version="1.0" encoding="UTF-8"?>
<svg width="25px" height="25px" viewBox="0 0 25 25" version="1.1" xmlns="http://www.w3.org/2000/svg" xmlns:xlink="http://www.w3.org/1999/xlink">
    <title>Statement</title>
    <g id="页面-1" stroke="none" stroke-width="1" fill="none" fill-rule="evenodd">
        <g id="个人中心" transform="translate(-1447, -150)">
            <g id="内容" transform="translate(1438, 79)">
                <g id="Statement" transform="translate(9, 71)">
                    <rect id="矩形" fill="#D8D8D8" opacity="0" x="0" y="0" width="25" height="25"></rect>
                    <path d="M18.6669459,11.4938355 C18.9057085,11.4929535 19.1348392,11.5897643 19.3029958,11.7625811 L21.7446887,14.2519922 L21.7370485,14.2519922 C21.9051337,14.4207658 22,14.6518558 22,14.8926828 L22,20.9789195 C22,21.5430129 21.5517727,22 20.9984921,22 L14.6902017,22 C14.4245853,22 14.1698479,21.8924222 13.9820287,21.7009325 C13.7942095,21.5094427 13.6886938,21.2497269 13.6886938,20.9789195 L13.6886938,12.5149221 C13.6886938,11.9514778 14.1369211,11.4938355 14.6902017,11.4938355 L18.6669459,11.4938355 Z M19.6684539,18.7608446 L15.8305073,18.7608446 C15.5034893,18.7608446 15.2383889,19.0311259 15.2383889,19.3645349 C15.2383889,19.6979438 15.5034893,19.9682251 15.8305073,19.9682251 L19.6684539,19.9682251 C19.9954719,19.9682251 20.2605723,19.6979438 20.2605723,19.3645349 C20.2605723,19.0311259 19.9954719,18.7608446 19.6684539,18.7608446 L19.6684539,18.7608446 Z M5.21248577,6.21836743 C6.01840839,3.98146148 8.28306398,2.65718622 10.5837925,3.07745334 C12.8845211,3.49772046 14.5573493,5.54124396 14.5514199,7.92427936 L14.5437638,7.92427936 C14.5446479,9.66910196 13.6374818,11.2834056 12.1606461,12.1650413 L12.5044568,12.2916215 C12.5006367,12.3662714 12.5006367,12.4409213 12.5044568,12.5149221 L12.5044568,19.4099739 L3,19.4099739 L3,18.858214 C3,16.1039582 4.73751758,13.0121551 7.30591115,12.1572518 C5.28766245,10.9573011 4.4049221,8.45379705 5.21184908,6.21836743 L5.21248577,6.21836743 Z M19.6684539,16.3311535 L15.8305073,16.3311535 C15.6130687,16.3239044 15.409034,16.438036 15.2982102,16.6289063 C15.1873865,16.8197767 15.1873865,17.0570513 15.2982102,17.2479216 C15.409034,17.4387919 15.6130687,17.5529235 15.8305073,17.5456745 L19.6684539,17.5456745 C19.9898281,17.5349604 20.2449162,17.2662439 20.2449162,16.938414 C20.2449162,16.610584 19.9898281,16.3418675 19.6684539,16.3311535 L19.6684539,16.3311535 Z M17.5412841,13.9163923 L15.8305073,13.9163923 C15.6189638,13.9163923 15.4234894,14.031455 15.3177177,14.2182374 C15.2119459,14.4050199 15.2119459,14.6351453 15.3177177,14.8219277 C15.4234894,15.0087102 15.6189638,15.1237729 15.8305073,15.1237729 L17.5412841,15.1237729 C17.7528277,15.1237729 17.948302,15.0087102 18.0540738,14.8219277 C18.1598456,14.6351453 18.1598456,14.4050199 18.0540738,14.2182374 C17.948302,14.031455 17.7528277,13.9163923 17.5412841,13.9163923 L17.5412841,13.9163923 Z" id="形状" fill="#BFDBFF" fill-rule="nonzero"></path>
                </g>
            </g>
        </g>
    </g>
</svg>