<?xml version="1.0" encoding="UTF-8"?>
<svg width="28px" height="22.2352941px" viewBox="0 0 28 22.2352941" version="1.1" xmlns="http://www.w3.org/2000/svg" xmlns:xlink="http://www.w3.org/1999/xlink">
    <title>随机播放</title>
    <g id="APP" stroke="none" stroke-width="1">
        <g id="个人中心-Music" transform="translate(-76, -1221)">
            <g id="内容" transform="translate(30, 221)">
                <g id="04" transform="translate(34, 890)">
                    <g id="随机播放" transform="translate(12, 110)">
                        <path d="M27.8548543,17.8999947 L23.9908625,14.3371342 C23.7054913,14.0737065 23.2462732,14.277863 23.2462732,14.6664189 L23.2462732,17.3402107 C20.9665837,17.2809395 18.8509006,16.0329505 17.6930151,14.0539494 L16.213677,11.5184572 L17.7553375,8.87759384 C18.9001025,6.91505701 20.9895446,5.67036082 23.2462732,5.5913325 L23.2462732,7.57033357 C23.2462732,7.95888952 23.7054913,8.15975319 23.9908625,7.89961827 L27.8548543,4.34005062 C28.0451018,4.16223688 28.0451018,3.85929495 27.8548543,3.68477406 L23.9908625,0.118620712 C23.7054913,-0.144807051 23.2462732,0.0593494654 23.2462732,0.447905416 L23.2462732,2.95046917 L22.731293,2.95046917 C22.577127,2.95046917 22.426241,2.97681194 22.2884756,3.02620465 C21.0912286,3.18096846 19.9267828,3.57281726 18.8738615,4.17870111 C17.4765266,4.98215579 16.3055206,6.14782365 15.4920486,7.54399079 L14.6949773,8.91052231 L13.897906,7.54399079 C13.084434,6.14782365 11.913428,4.98544864 10.5160931,4.17870111 C9.11875824,3.37524644 7.52789574,2.95046917 5.91407234,2.95046917 L1.31205154,2.95046917 C0.587143066,2.95046917 0,3.53988879 0,4.26760798 C0,4.99532718 0.587143066,5.5847468 1.31205154,5.5847468 L5.91407234,5.5847468 C8.25608435,5.5847468 10.4504906,6.84590722 11.6346171,8.874301 L13.1762776,11.5151643 L11.6969395,14.0506565 C10.5095329,16.0823432 8.31840679,17.3402107 5.97639479,17.3402107 L1.31205154,17.3402107 C0.587143066,17.3402107 0,17.9296304 0,18.6573496 C0,19.3850688 0.587143066,19.9744884 1.31205154,19.9744884 L5.96983453,19.9777812 L5.97639479,19.9777812 C7.58693806,19.9777812 9.17780056,19.553004 10.5751355,18.7495493 C11.9757505,17.9460946 13.1434764,16.7804267 13.9602284,15.3842596 L14.6949773,14.1230992 L15.4297262,15.3842596 C16.2431981,16.7804267 17.4142041,17.9460946 18.8148192,18.7495493 C19.9005418,19.3718974 21.0977888,19.767039 22.3343974,19.9152171 C22.4590423,19.9547313 22.5902475,19.9744884 22.7247328,19.9744884 L23.2462732,19.9777812 L23.2462732,21.7888471 C23.2462732,22.177403 23.7054913,22.3782667 23.9908625,22.1181318 L27.8548543,18.5585641 C28.0483819,18.3774576 28.0483819,18.0745156 27.8548543,17.8999947 Z" id="路径"></path>
                    </g>
                </g>
            </g>
        </g>
    </g>
</svg>