<?xml version="1.0" encoding="UTF-8"?>
<svg width="26px" height="26px" viewBox="0 0 26 26" version="1.1" xmlns="http://www.w3.org/2000/svg" xmlns:xlink="http://www.w3.org/1999/xlink">
    <title>Telegram</title>
    <g id="页面-1" stroke="none" stroke-width="1" fill="none" fill-rule="evenodd">
        <g id="个人中心-Support" transform="translate(-514, -408)">
            <g id="03" transform="translate(479, 388)">
                <g id="Telegram" transform="translate(35, 20)">
                    <ellipse id="椭圆形" fill="#FFFFFF" cx="12.5666667" cy="13.3775931" rx="9.96666667" ry="9.925311"></ellipse>
                    <path d="M19.3916661,8.84648434 C19.5,8.41494699 19.3916661,8.09129398 19.2833323,7.98340964 C19.0666646,7.76764096 18.8499969,7.76764096 18.5249953,7.8755253 L5.95836217,12.6224048 C5.6333606,12.7302892 5.52502674,12.9460578 5.41669288,13.0539422 C5.30835902,13.1618265 5.30835902,13.2697108 5.41669288,13.4854795 C5.52502674,13.5933639 5.6333606,13.7012482 5.85002831,13.8091325 L9.10004404,14.7800916 L16.5750173,10.1410651 C16.7194624,10.0691422 16.8435242,9.98493976 16.9471397,9.88842651 L16.9812064,9.88842651 L10.8333228,15.6431663 L10.6166551,18.9875181 C10.8333228,18.9875181 11.0499906,18.8796337 11.2666583,18.6638651 L12.7833323,17.1534843 L16.033348,19.5269398 C16.6833197,19.7427084 17.1166866,19.6348241 17.224989,18.8796337 L19.3916661,8.84645301 L19.3916661,8.84648434 Z M26,12.9460578 C26,14.6722072 25.6749984,16.3983253 24.9166614,18.0165904 C24.2666583,19.6348554 23.2916536,21.0373518 22.1000126,22.1161952 C20.9083401,23.1950386 19.6083339,24.1659663 17.983326,24.9211566 C16.3583181,25.5684627 14.7333103,26 12.8916661,26 C11.0499906,26 9.42501416,25.676347 7.80000629,24.9211566 C6.17499843,24.2738506 4.76665828,23.3028916 3.6833197,22.1161952 C2.59998113,20.9294675 1.73334172,19.5269711 1.08333858,18.0165904 C0.43333543,16.3983253 0,14.7800602 0,12.9460578 C0,11.1120241 0.325001573,9.49379036 1.08333858,7.8755253 C1.84167558,6.25726024 2.70834644,4.85476386 3.89998742,3.77592048 C5.09165985,2.69707711 6.39166614,1.7261494 7.90834015,1.07881205 C9.42501416,0.431568675 11.1583244,0 13,0 C14.8416756,0 16.466652,0.323653012 18.0916599,1.07884337 C19.7166677,1.7261494 21.1250079,2.69710843 22.2083464,3.88380482 C23.291685,5.07053253 24.2666583,6.36514458 25.0249953,7.98340964 C25.6749984,9.49379036 26,11.2199398 26,12.9460578 Z" id="形状" fill="#41AADE" fill-rule="nonzero"></path>
                    <path d="M10.6166551,18.8796651 C10.1833197,18.8796651 10.2916536,18.7717807 10.0749858,18.4481277 L8.99164727,14.7800916 L17.3333543,9.49375904" id="路径" fill="#C8DAEA" fill-rule="nonzero"></path>
                </g>
            </g>
        </g>
    </g>
</svg>