<?xml version="1.0" encoding="UTF-8"?>
<svg width="22px" height="22px" viewBox="0 0 22 22" version="1.1" xmlns="http://www.w3.org/2000/svg" xmlns:xlink="http://www.w3.org/1999/xlink">
    <title>whatsapp</title>
    <g id="页面-1" stroke="none" stroke-width="1" fill="none" fill-rule="evenodd">
        <g id="个人中心-Profile" transform="translate(-800, -588)">
            <g id="02" transform="translate(479, 177)">
                <g id="编组-16" transform="translate(308, 397)">
                    <g id="whatsapp" transform="translate(13, 14)">
                        <circle id="椭圆形" fill="#26B64A" cx="11" cy="11" r="11"></circle>
                        <path d="M14.2071667,12.3895 C14.0315833,12.302 13.1764167,11.88375 13.0171667,11.826 C12.8579167,11.7670833 12.74125,11.7385 12.6245833,11.9135 C12.5096667,12.0855833 12.1748333,12.4758333 12.0739167,12.5913333 C11.9718333,12.7050833 11.8703333,12.7138333 11.6970833,12.6350833 C11.5220833,12.5475833 10.9603333,12.3638333 10.2953333,11.7688333 C9.77733334,11.3050833 9.42966668,10.7363333 9.327,10.5613333 C9.2255,10.3863333 9.31591666,10.2900833 9.40283334,10.2025833 C9.48216668,10.1238333 9.57841668,10.0013333 9.66591666,9.8975 C9.75108332,9.79191666 9.77908332,9.72191666 9.83916666,9.60816666 C9.8975,9.48566666 9.86775,9.38941666 9.82458334,9.3025 C9.78083334,9.215 9.43258334,8.3575 9.28675,8.01566666 C9.14675,7.675 9.00266666,7.71816666 8.89475,7.71816666 C8.79441666,7.70941666 8.67833334,7.70941666 8.56166666,7.70941666 C8.445,7.70941666 8.25658332,7.75258332 8.09675,7.91883334 C7.9375,8.09383334 7.48716666,8.51383334 7.48716666,9.36258334 C7.48716666,10.2113333 8.11133332,11.0338333 8.19825,11.1563333 C8.28516666,11.2700833 9.42616666,13.0200833 11.17325,13.7725833 C11.58975,13.9475833 11.9140833,14.0525833 12.16725,14.1395 C12.58375,14.2719167 12.9635,14.25325 13.2639167,14.2100833 C13.59875,14.157 14.2946667,13.7895 14.4399167,13.37825 C14.5886667,12.967 14.5886667,12.62575 14.5449167,12.547 C14.50175,12.46825 14.3874167,12.4245 14.2124167,12.34575 M11.0355833,16.6875 L11.02625,16.6875 C9.99375,16.6875 8.97058334,16.4075 8.0775,15.8825 L7.8675,15.7576667 L5.68,16.3264167 L6.26625,14.2001667 L6.12683334,13.9814167 C5.54862239,13.0624897 5.24204981,11.998788 5.2424995,10.9130833 C5.2424995,7.73683334 7.84125,5.14681511 11.042,5.14681511 C12.5791156,5.1429671 14.053891,5.75421855 15.1375833,6.84433334 C16.2272712,7.92085365 16.8387091,9.39007034 16.8345216,10.9218333 C16.8321667,14.0975 14.2328333,16.6880833 11.0390833,16.6880833 M15.97,6.01191666 C14.64,4.72625 12.89,4 11.02625,4 C7.18675,4 4.06066666,7.1115 4.05891666,10.9375833 C4.05891666,12.16025 4.37916666,13.3525833 4.98933334,14.4055 L4,18 L7.69541666,17.0363333 C8.71887547,17.5886396 9.86327666,17.8786481 11.02625,17.8804167 L11.02975,17.8804167 C14.871,17.8804167 17.99825,14.76775 18,10.9410833 C18,9.08841668 17.2766667,7.34483334 15.96125,6.03466666" id="形状" fill="#FFFFFF" fill-rule="nonzero"></path>
                    </g>
                </g>
            </g>
        </g>
    </g>
</svg>