<?xml version="1.0" encoding="UTF-8"?>
<svg width="25px" height="25px" viewBox="0 0 25 25" version="1.1" xmlns="http://www.w3.org/2000/svg" xmlns:xlink="http://www.w3.org/1999/xlink">
    <title>Withdrawal Manage…</title>
    <g id="页面-1" stroke="none" stroke-width="1" fill="none" fill-rule="evenodd">
        <g id="个人中心" transform="translate(-1447, -416)">
            <g id="内容" transform="translate(1438, 79)">
                <g id="Withdrawal-Manage…" transform="translate(9, 337)">
                    <rect id="矩形" fill="#D8D8D8" opacity="0" x="0" y="0" width="25" height="25"></rect>
                    <g id="cw_yhzhgl" transform="translate(4, 6)" fill="#BFDBFF" fill-rule="nonzero">
                        <path d="M17.8397067,13.2572027 L16.9628078,13.4269251 C16.9062336,13.6060765 16.8402305,13.7852279 16.7459403,13.9455212 L17.2551074,14.6809848 C17.3022525,14.746988 17.2928235,14.8507072 17.2362493,14.9167103 L16.604505,15.5484547 C16.5479309,15.6050288 16.4442116,15.6144578 16.3687795,15.5673127 L15.6238869,15.0581456 C15.4635935,15.1430068 15.2844421,15.218439 15.1052907,15.2750131 L14.9449974,16.151912 C14.9261393,16.2367732 14.8507072,16.3027763 14.765846,16.3027763 L13.8795181,16.3027763 C13.7946569,16.3027763 13.7192247,16.2367732 13.7003667,16.151912 L13.5306443,15.2655841 C13.3514929,15.20901 13.1911996,15.1430068 13.0309062,15.0581456 L12.2954426,15.5578837 C12.2294395,15.6050288 12.1257203,15.5955998 12.0597171,15.5390257 L11.4279728,14.9072813 C11.3713986,14.8507072 11.3619696,14.746988 11.4091147,14.6715558 L11.9088528,13.9360922 C11.8239916,13.7757988 11.7485595,13.5966475 11.6919853,13.4174961 L10.8150864,13.2477737 C10.7302252,13.2289157 10.6642221,13.1534835 10.6642221,13.0686223 L10.6642221,12.1822944 C10.6642221,12.0974332 10.7302252,12.022001 10.8150864,12.003143 L11.7014144,11.8334206 C11.7579885,11.6542693 11.8239916,11.4845469 11.9088528,11.3336826 L11.3996857,10.5887899 C11.3525406,10.5227868 11.3619696,10.4190676 11.4185437,10.3530644 L12.0502881,9.72132006 C12.1068622,9.66474594 12.2105815,9.65531692 12.2860136,9.70246202 L13.0214772,10.2022001 C13.1817706,10.1173389 13.3514929,10.0419068 13.5306443,9.99476166 L13.7003667,9.10843373 C13.7192247,9.02357255 13.7946569,8.95756941 13.8795181,8.95756941 L14.765846,8.95756941 C14.8507072,8.95756941 14.9261393,9.02357255 14.9449974,9.10843373 L15.1052907,9.98533263 C15.2844421,10.0419068 15.4635935,10.1079099 15.6333159,10.2022001 L16.3782085,9.693033 C16.4442116,9.6458879 16.5479309,9.65531692 16.613934,9.71189104 L17.2456784,10.3436354 C17.3022525,10.4002095 17.3116815,10.5039288 17.2645364,10.5793609 L16.7553693,11.3242535 C16.8402305,11.4845469 16.9156627,11.6542693 16.9628078,11.8334206 L17.8491357,12.003143 C17.9339969,12.022001 18,12.0974332 18,12.1822944 L18,13.0686223 C17.990571,13.1629125 17.9245678,13.2383447 17.8397067,13.2572027 L17.8397067,13.2572027 Z M14.322682,11.2865375 C13.5777894,11.2865375 12.9743321,11.8899948 12.9743321,12.6348874 C12.9743321,13.37978 13.5777894,13.9832373 14.322682,13.9832373 C15.0675746,13.9832373 15.671032,13.37978 15.671032,12.6348874 C15.671032,11.8899948 15.0675746,11.2865375 14.322682,11.2865375 Z M0,2.80041907 L0,0.858040859 C0,0.386589838 0.377160817,0 0.839182818,0 L16.0104767,0 C16.4724987,0 16.8496595,0.386589838 16.8496595,0.858040859 L16.8496595,2.80041907 L0,2.80041907 Z M16.8590885,8.58983761 C16.1236249,8.12781561 15.2561551,7.86380304 14.3321111,7.86380304 C11.6919853,7.86380304 9.56102672,10.0041907 9.56102672,12.6348874 C9.56102672,12.7291776 9.57045574,12.8234678 9.57988476,12.927187 L0.848611839,12.927187 C0.386589838,12.927187 0.00942902043,12.5405972 0.00942902043,12.0691461 L0.00942902043,5.06338397 L16.8590885,5.06338397 L16.8590885,8.58983761 L16.8590885,8.58983761 Z M6.74174961,11.2111053 L6.74174961,11.1073861 C6.74174961,10.5039288 6.52488214,10.5322158 5.80827658,10.2022001 C5.56312205,10.0890519 4.7993714,9.75903614 4.7993714,9.75903614 C4.7993714,9.75903614 4.7522263,9.5987428 4.7993714,9.46673651 C4.97852279,9.36301729 5.1671032,8.91042431 5.18596124,8.73127292 C5.3556836,8.65584075 5.40282871,8.34468308 5.42168675,8.28810896 C5.43111577,8.24096386 5.40282871,8.09009953 5.28968046,8.08067051 C5.31796752,7.9863803 5.33682556,7.88266108 5.33682556,7.76951283 L5.33682556,7.69408067 L5.33682556,7.61864851 C5.33682556,7.04347826 4.82765846,6.73232059 4.20534311,6.73232059 C3.58302776,6.73232059 3.07386066,7.04347826 3.07386066,7.61864851 L3.07386066,7.76951283 C3.07386066,7.87323206 3.0927187,7.97695128 3.12100576,8.08067051 C3.00785752,8.09009953 2.97957046,8.24096386 2.98899948,8.28810896 C3.00785752,8.34468308 3.05500262,8.65584075 3.22472499,8.73127292 C3.24358303,8.91985333 3.43216344,9.37244631 3.61131482,9.46673651 C3.64903091,9.58931378 3.61131482,9.75903614 3.61131482,9.75903614 C3.61131482,9.75903614 2.84756417,10.0890519 2.60240964,10.2022001 C1.88580409,10.5322158 1.66893662,10.5039288 1.66893662,11.1073861 L1.66893662,11.2111053 L6.74174961,11.2111053 C6.74174961,11.2393924 6.74174961,11.2111053 6.74174961,11.2111053 L6.74174961,11.2111053 Z" id="形状"></path>
                    </g>
                </g>
            </g>
        </g>
    </g>
</svg>