<?xml version="1.0" encoding="UTF-8"?>
<svg width="20px" height="20px" viewBox="0 0 20 20" version="1.1" xmlns="http://www.w3.org/2000/svg" xmlns:xlink="http://www.w3.org/1999/xlink">
    <title>下载</title>
    <g id="页面-1" stroke="none" stroke-width="1" fill="none" fill-rule="evenodd">
        <g id="个人中心-Music" transform="translate(-1275, -541)" fill="#FFFFFF" fill-rule="nonzero">
            <g id="内容" transform="translate(655, 40)">
                <g id="03" transform="translate(74, 352)">
                    <g id="下载" transform="translate(546, 149)">
                        <path d="M19.1666667,18.3333333 L0.833333333,18.3333333 C0.373096042,18.3333333 0,18.7064294 0,19.1666667 C0,19.626904 0.373096042,20 0.833333333,20 L19.1666667,20 C19.626904,20 20,19.626904 20,19.1666667 C20,18.7064294 19.626904,18.3333333 19.1666667,18.3333333 Z M17.5333333,7.1 L13.3333333,7.1 L13.3333333,0.883333333 C13.3333333,0.395481804 12.9378515,-7.40148683e-16 12.45,-7.40148683e-16 L7.45,-7.40148683e-16 C7.00156528,0.0510852232 6.66376626,0.432007525 6.66666667,0.883333333 L6.66666667,7.1 L2.46666667,7.1 C2.14177445,7.08908702 1.84390358,7.27997114 1.71808672,7.5797113 C1.59226987,7.87945146 1.66465581,8.22575202 1.9,8.45 L9.43333333,16 C9.75296097,16.296431 10.247039,16.296431 10.5666667,16 L18.1,8.45 C18.3353442,8.22575202 18.4077301,7.87945146 18.2819133,7.5797113 C18.1560964,7.27997114 17.8582255,7.08908702 17.5333333,7.1 L17.5333333,7.1 Z" id="形状"></path>
                    </g>
                </g>
            </g>
        </g>
    </g>
</svg>