<?xml version="1.0" encoding="UTF-8"?>
<svg width="17px" height="18px" viewBox="0 0 17 18" version="1.1" xmlns="http://www.w3.org/2000/svg" xmlns:xlink="http://www.w3.org/1999/xlink">
    <title>循环</title>
    <g id="页面-1" stroke="none" stroke-width="1" >
        <g id="首页" transform="translate(-132, -359)">
            <g id="左侧" transform="translate(0, 79)">
                <g id="07" transform="translate(11, 267)">
                    <g id="循环" transform="translate(121, 13)">
                        <path d="M14.9534444,3.82047611 C13.6311253,2.53758766 11.8739231,1.83170732 10.006451,1.83170732 L5.34522123,1.83170732 L5.34522123,0.469646142 C5.34522123,0.0352660912 5.03817225,-0.127715588 4.65929036,0.108197702 L1.28080648,2.22418289 C0.903499883,2.46149727 0.906650431,2.84161803 1.28886668,3.0711374 L4.6528317,5.09253818 C5.03184486,5.32218492 5.34522123,5.15303857 5.34522123,4.71868401 L5.34522123,3.36136094 L10.0080525,3.36136094 C12.9947109,3.36136094 15.4250317,5.72092706 15.4250317,8.61725267 C15.4250317,9.09814796 15.3595524,9.57287861 15.2284101,10.0288605 C15.1116554,10.4368496 15.3579509,10.8573719 15.7784465,10.9689983 C15.8488355,10.9907785 15.9190931,11 15.989482,11 C16.3348103,11 16.6514948,10.7766708 16.7489523,10.4400593 C16.9167988,9.84898963 17,9.23611431 17,8.61875562 C17,6.80687723 16.2724816,5.10038415 14.9534444,3.82047611 Z" id="路径"></path>
                        <path d="M16.7039367,14.8429388 L13.2577783,12.7656767 C12.8660666,12.5298438 12.544883,12.7019608 12.544883,13.1499099 L12.544883,14.5416883 L7.16939687,14.5416883 C4.10827675,14.5416883 1.6174352,12.1185431 1.61743518,9.14064467 C1.61743518,8.09804777 1.92387279,7.08576438 2.50238544,6.2136876 C2.74494152,5.84856403 2.63666044,5.36082511 2.26308534,5.12488745 C1.88776115,4.89052043 1.38639607,4.99572773 1.14548144,5.3591236 C0.396609053,6.48624761 0,7.79506955 0,9.14218914 C0,11.0057644 0.745643327,12.7562267 2.09915683,14.0729542 C3.45280486,15.3913833 5.25375819,16.1167352 7.16939687,16.1167353 L12.5465244,16.1167353 L12.5465244,17.5164454 C12.5465244,17.9643684 12.8628375,18.1317211 13.2495442,17.8878778 L16.7121977,15.7118481 C17.0989043,15.4694446 17.0956752,15.0789027 16.7039367,14.8429388 Z" id="路径"></path>
                    </g>
                </g>
            </g>
        </g>
    </g>
</svg>