<?xml version="1.0" encoding="UTF-8"?>
<svg width="36px" height="28.8px" viewBox="0 0 36 28.8" version="1.1" xmlns="http://www.w3.org/2000/svg" xmlns:xlink="http://www.w3.org/1999/xlink">
    <title>音量-F</title>
    <g id="页面-1" stroke="none" stroke-width="1" fill="none" fill-rule="evenodd">
        <g id="个人中心-Music" transform="translate(-1277, -132)" fill="#D3DF18" fill-rule="nonzero">
            <g id="内容" transform="translate(655, 40)">
                <g id="01" transform="translate(74, 75)">
                    <g id="音量-F" transform="translate(548, 17)">
                        <path d="M16.2447753,1.19395042 C17.390438,0.325182324 18.7512251,-0.378223665 20.2045657,0.226458676 C21.6453991,0.828672927 22.1056653,2.27497436 22.305781,3.69906298 C22.5108997,5.15770487 22.5108997,7.1667311 22.5108997,9.66443939 L22.5108997,19.1345053 C22.5108997,21.6322136 22.5108997,23.6412398 22.3082825,25.1023498 C22.1081667,26.5239703 21.6453991,27.9702717 20.2070671,28.572486 C18.7512251,29.1796364 17.390438,28.4737623 16.2447753,27.6049942 C15.0715968,26.7164814 13.5857374,25.2183501 11.8347246,23.456133 C10.9342037,22.5478754 10.3363579,22.1085552 9.73350924,21.8642141 C9.12315621,21.617405 8.38522939,21.5112771 7.09698427,21.5112771 C5.98133898,21.5112771 4.9832617,21.5112771 4.22782475,21.4322982 C3.43736755,21.3508512 2.70194218,21.1756167 2.03905877,20.7288922 C0.780831014,19.8798688 0.298051775,18.638419 0.112944709,17.4956927 C-0.0196319734,16.6466694 -0.00462329241,15.7112628 0.00788394177,14.958495 L0.00788394177,13.8429178 C-0.00462329241,13.09015 -0.0171305266,12.1547434 0.117947603,11.3007838 C0.300553221,10.1605257 0.783332461,8.91907585 2.04406167,8.07005248 C2.70444363,7.62579606 3.439869,7.4480935 4.2303262,7.36664649 C4.98576314,7.29013566 5.98133898,7.29013566 7.09698427,7.29013566 C8.38773084,7.29013566 9.12565766,7.18400774 9.73350924,6.93719862 C10.3388594,6.6903895 10.9342037,6.25106927 11.8347246,5.3452798 C13.5857374,3.58306269 15.0740982,2.08246325 16.2472768,1.19395042 L16.2447753,1.19395042 Z M25.2549868,8.15643567 C25.9874088,7.60657328 27.0327728,7.7457162 27.5913382,8.46741516 C28.8520674,10.0963553 29.6,12.1646158 29.6,14.4007064 C29.6,16.6343289 28.8520674,18.7025893 27.5913382,20.3339976 C27.2405471,20.8296233 26.6426593,21.0956789 26.033937,21.0270293 C25.4252148,20.9583797 24.9035956,20.5660701 24.6752033,20.005126 C24.446811,19.444182 24.5483916,18.804854 24.9398045,18.3397799 C25.7627806,17.2735645 26.2655714,15.906242 26.2655714,14.4007064 C26.2655714,12.8951708 25.7627806,11.5278482 24.9398045,10.4616328 C24.3819556,9.73962259 24.5218455,8.70830306 25.2524854,8.15643567 L25.2549868,8.15643567 Z" id="形状"></path>
                        <path d="M32.4066035,4.59516636 C32.0309985,4.12593792 31.4403137,3.91063047 30.8682724,4.03443725 C30.296231,4.15824403 29.8350147,4.60121417 29.6671185,5.18807244 C29.4992223,5.77493071 29.6517018,6.4111077 30.0642237,6.84487973 C31.8084984,8.84712463 32.823609,11.3543052 32.823609,14.0539612 C32.823609,16.7536173 31.8084984,19.2607979 30.0642237,21.2605431 C29.5167812,21.9444414 29.5802252,22.959383 30.2081148,23.5624328 C30.8360044,24.1654826 31.8053548,24.1424772 32.4066035,23.5102565 C34.6369875,20.9580816 36,17.666001 36,14.0539612 C36,10.4419214 34.6369875,7.14984088 32.4066035,4.59516636 Z" id="路径"></path>
                    </g>
                </g>
            </g>
        </g>
    </g>
</svg>