<?xml version="1.0" encoding="UTF-8"?>
<svg width="26px" height="26px" viewBox="0 0 26 26" version="1.1" xmlns="http://www.w3.org/2000/svg" xmlns:xlink="http://www.w3.org/1999/xlink">
    <title>信息</title>
    <defs>
        <linearGradient x1="50%" y1="24.9353444%" x2="50%" y2="100%" id="linearGradient-1">
            <stop stop-color="#FFFFFF" offset="0%"></stop>
            <stop stop-color="#C4E9FF" offset="100%"></stop>
        </linearGradient>
    </defs>
    <g id="页面-1" stroke="none" stroke-width="1" fill="none" fill-rule="evenodd">
        <g id="个人中心-Profile" transform="translate(-796, -520.5)">
            <g id="02" transform="translate(479, 177)">
                <g id="编组-16" transform="translate(308, 332)">
                    <g id="信息" transform="translate(9, 11.5)">
                        <rect id="矩形" fill="#D8D8D8" opacity="0" x="0" y="0" width="26" height="26"></rect>
                        <path d="M4.55649151,10.2626907 L12.7969886,5.5539265 C12.9227798,5.4820245 13.0772202,5.4820245 13.2030114,5.5539265 L21.4435085,10.2626907 L13,15.2520657 L4.55649151,10.2626907 Z M22,10.8842532 L15.4623437,14.7473498 L21.9291761,21.2141821 C21.9760078,21.0952994 22,20.9686611 22,20.8408867 L22,10.8842532 Z M14.7561506,15.1983725 C14.7491193,15.1913412 14.7423437,15.1840543 14.7359517,15.1766395 L13.208125,16.079452 C13.0797452,16.1553169 12.9202548,16.1553169 12.791875,16.079452 L11.2640483,15.1766395 C11.2576563,15.1840543 11.2512642,15.1913412 11.2438494,15.1983725 L4.64943184,21.7927901 C4.76831456,21.8396218 4.89495285,21.863614 5.0227273,21.863614 L20.9772727,21.863614 C21.1050472,21.863614 21.2316854,21.8396218 21.3505682,21.7927901 L14.7561506,15.1983725 Z M4,10.8842532 L4,20.8408867 C4,20.9686611 4.02399218,21.0952994 4.07082389,21.2141821 L10.5376563,14.7473498 L4,10.8842532 Z" id="形状" fill="url(#linearGradient-1)" fill-rule="nonzero"></path>
                    </g>
                </g>
            </g>
        </g>
    </g>
</svg>