<?xml version="1.0" encoding="UTF-8"?>
<svg width="12.9090883px" height="20px" viewBox="0 0 12.9090883 20" version="1.1" xmlns="http://www.w3.org/2000/svg" xmlns:xlink="http://www.w3.org/1999/xlink">
    <title>暂停</title>
    <g id="PC" stroke="none" stroke-width="1" >
        <g id="首页" transform="translate(-70, -1490)">
            <g id="左侧" transform="translate(0, 79)">
                <g id="07" transform="translate(11, 1387)">
                    <g id="暂停" transform="translate(59, 24)">
                        <path d="M10,1.66645404 C10.000123,0.746055624 10.6513086,0 11.4545442,0 C12.2577798,0 12.9089653,0.746055624 12.9090883,1.66645404 L12.9090883,18.333546 C12.9089653,19.2539444 12.2577798,20 11.4545442,20 C10.6513086,20 10.000123,19.2539444 10,18.333546 L10,1.66645404 L10,1.66645404 Z" id="路径"></path>
                        <path d="M0,1.66645404 C0.000122969833,0.746055624 0.651308552,0 1.45454416,0 C2.25777976,0 2.90896534,0.746055624 2.90908831,1.66645404 L2.90908831,18.333546 C2.90896534,19.2539444 2.25777976,20 1.45454416,20 C0.651308552,20 0.000122969833,19.2539444 0,18.333546 L0,1.66645404 L0,1.66645404 Z" id="路径"></path>
                    </g>
                </g>
            </g>
        </g>
    </g>
</svg>