<svg width="55" height="55" viewBox="0 0 55 55" fill="none" xmlns="http://www.w3.org/2000/svg">
<g filter="url(#filter0_di_162_24)">
<rect x="6" y="5" width="43" height="43" rx="16" fill="url(#paint0_linear_162_24)"/>
<rect x="6.25" y="5.25" width="42.5" height="42.5" rx="15.75" stroke="url(#paint1_linear_162_24)" stroke-width="0.5"/>
</g>
<g clip-path="url(#clip0_162_24)">
<path d="M41 25.8867C40.8978 26.0766 40.8394 26.2921 40.6194 26.4054C40.4172 26.5106 40.2013 26.4943 40.0001 26.4606C39.6863 26.4095 39.3923 26.2768 39.1024 26.1461C38.677 25.9531 38.2537 25.756 37.8346 25.5487C37.4738 25.37 37.1224 25.1719 36.7648 24.9871C36.3822 24.789 36.0058 24.5796 35.6304 24.3693C35.3354 24.2049 35.0351 24.0497 34.7515 23.8659C34.5565 23.7403 34.4867 23.4329 34.6045 23.2389C34.6431 23.1756 34.69 23.1337 34.7744 23.1123C35.1508 23.0153 35.5366 22.9907 35.9203 22.9489C36.2883 22.908 36.6522 22.8376 37.0234 22.8263C37.0818 22.8243 37.1787 22.8233 37.1204 22.7038C36.917 22.2821 36.7398 21.8471 36.5146 21.4376C36.2727 20.9995 36.0027 20.5737 35.694 20.1755C35.2249 19.5699 34.6962 19.0205 34.103 18.5253C33.5827 18.0903 33.0239 17.7145 32.4389 17.3786C32.1011 17.1845 31.7456 17.0109 31.3692 16.8853C31.1502 16.8128 30.9417 16.7066 30.7228 16.6321C30.4757 16.5484 30.2254 16.4677 29.97 16.4146C29.7594 16.3717 29.5467 16.3298 29.3361 16.289C28.4947 16.1256 27.6501 16.0378 26.7962 16.1379C26.2572 16.2012 25.7192 16.2533 25.1864 16.387C24.4962 16.5606 23.8299 16.7894 23.1783 17.0651C22.5475 17.3316 21.972 17.69 21.4131 18.078C20.896 18.4365 20.4143 18.8398 19.9837 19.2891C19.4071 19.8895 18.8774 20.5288 18.4385 21.2405C18.0955 21.7991 17.8108 22.3811 17.5835 22.9877C17.4042 23.4666 17.277 23.9629 17.1675 24.4643C17.0997 24.7747 16.8495 24.9963 16.4658 24.9023C15.9184 24.7686 15.4002 24.5541 14.8768 24.354C14.8018 24.3254 14.735 24.2774 14.661 24.2416C14.4702 24.1487 14.4348 24.0272 14.4692 23.8015C14.5453 23.2991 14.7017 22.8151 14.8174 22.3229C14.8727 22.0881 14.9947 21.8685 15.0802 21.6388C15.173 21.3886 15.2824 21.1455 15.3877 20.8994C15.6202 20.3613 15.9143 19.8579 16.2208 19.3596C16.5357 18.8459 16.8912 18.3588 17.2832 17.8983C17.7733 17.3224 18.3081 16.7904 18.8826 16.2921C19.6365 15.6375 20.4654 15.0932 21.3412 14.6143C21.7853 14.3723 22.2493 14.1722 22.7164 13.9741C23.1387 13.7954 23.5724 13.6483 24.0082 13.5186C24.4847 13.3777 24.9747 13.2715 25.4689 13.1898C26.0486 13.0938 26.6284 13.0336 27.2164 13.0081C27.6835 12.9887 28.1475 13.003 28.6094 13.0275C29.0577 13.052 29.5039 13.1347 29.9491 13.2021C30.4006 13.2705 30.8333 13.4053 31.2733 13.5105C31.6038 13.5891 31.9197 13.729 32.2429 13.8423C32.7455 14.018 33.2282 14.2375 33.6974 14.4826C34.2802 14.7869 34.8453 15.1239 35.3781 15.5099C35.8369 15.8428 36.2769 16.1961 36.6908 16.581C37.1954 17.0508 37.6573 17.5562 38.0931 18.0872C38.4841 18.5641 38.8199 19.0767 39.142 19.5975C39.4246 20.0529 39.6446 20.54 39.8719 21.023C40.0032 21.3018 40.119 21.5857 40.2201 21.8736C40.3796 22.3229 40.5496 22.7702 40.6434 23.2399C40.6976 23.5125 40.7623 23.7842 40.8113 24.0578C40.8686 24.3744 40.8926 24.695 40.8957 25.0167C40.8957 25.0524 40.878 25.0963 40.9239 25.1311C41.0021 25.0626 40.9187 24.9483 40.9969 24.8829V25.8857L41 25.8867Z" fill="url(#paint2_linear_162_24)"/>
<path d="M27.5656 36.8621C27.991 36.8213 28.4184 36.8662 28.848 36.8029C29.4079 36.7202 29.9584 36.6048 30.5037 36.4669C30.7831 36.3965 31.0521 36.2841 31.3201 36.1779C31.5828 36.0738 31.8424 35.9604 32.0968 35.8369C32.5337 35.6255 32.9539 35.3855 33.3605 35.1221C34.1456 34.6125 34.8504 34.0039 35.4614 33.3085C36.013 32.6805 36.4905 31.9964 36.8565 31.2397C37.0952 30.7465 37.3267 30.2523 37.4956 29.7345C37.6374 29.3016 37.7656 28.8625 37.8199 28.4071C37.8636 28.0476 38.1431 27.9281 38.5257 28.0629C38.9125 28.1998 39.3181 28.2845 39.706 28.4193C40.0136 28.5255 40.3368 28.5786 40.6381 28.6991C40.8268 28.7747 40.7987 28.9411 40.782 29.0861C40.7079 29.6886 40.5401 30.2717 40.3462 30.8435C40.1491 31.4235 39.901 31.9872 39.6299 32.5396C39.2149 33.3861 38.6967 34.1663 38.1087 34.9066C37.48 35.698 36.7689 36.4077 35.9765 37.0418C35.4677 37.4482 34.9255 37.8077 34.3625 38.1416C33.984 38.3662 33.6024 38.5858 33.201 38.7614C32.7631 38.9534 32.3148 39.1239 31.8623 39.2863C31.4953 39.418 31.1209 39.5242 30.7477 39.6253C30.3796 39.7254 29.9959 39.7887 29.6112 39.8387C29.1879 39.8939 28.7636 39.9398 28.3382 39.9786C27.7668 40.0297 27.1986 39.9878 26.6282 39.9572C26.1945 39.9337 25.7649 39.8898 25.3354 39.8285C25.1738 39.805 25.0111 39.7795 24.8526 39.7427C24.3605 39.6294 23.8621 39.5365 23.3846 39.3731C23.003 39.2424 22.6277 39.0913 22.2534 38.9381C21.4276 38.6001 20.656 38.163 19.9147 37.676C19.1338 37.1633 18.4332 36.5578 17.7888 35.891C17.1361 35.216 16.5502 34.4869 16.0601 33.6884C15.7734 33.2207 15.4763 32.7571 15.2646 32.2537C15.0821 31.8207 14.8621 31.4021 14.7329 30.9456C14.6661 30.7128 14.5712 30.4851 14.5035 30.2502C14.3481 29.7059 14.2011 29.1617 14.1375 28.598C14.0989 28.2559 14.0499 27.9159 14.0103 27.5748C13.9749 27.2634 14.0249 26.9693 14.2532 26.7334C14.3398 26.6435 14.4555 26.5966 14.5911 26.5792C15.0112 26.5261 15.347 26.7201 15.6858 26.909C16.1706 27.1796 16.6534 27.4513 17.1372 27.7239C17.5824 27.9751 18.0255 28.2304 18.4707 28.4816C18.821 28.6797 19.1807 28.8625 19.5217 29.0749C19.8303 29.2679 20.1889 29.3914 20.4392 29.6641C20.5497 29.7836 20.6529 29.9347 20.5779 30.1154C20.5028 30.2951 20.3693 30.3932 20.1587 30.4269C19.5081 30.529 18.8502 30.5525 18.1975 30.626C18.0807 30.6393 18.0276 30.6689 18.0807 30.7822C18.4582 31.5838 18.9117 32.3354 19.4716 33.0338C20.1629 33.8988 20.9782 34.6187 21.903 35.2273C22.4358 35.5775 22.9988 35.8685 23.5931 36.1136C24.0352 36.2954 24.4919 36.4271 24.9454 36.5609C25.7034 36.7845 26.4875 36.8815 27.282 36.8662C27.3758 36.8641 27.4707 36.8662 27.5645 36.8662L27.5656 36.8621Z" fill="url(#paint3_linear_162_24)"/>
<path d="M28.4466 20.3789C28.4487 20.4085 28.4518 20.4391 28.4518 20.4688C28.4498 20.8864 28.4727 20.9191 28.9096 20.9262C29.3412 20.9324 29.7603 21.0069 30.1711 21.1182C30.6393 21.2458 31.0136 21.8687 30.8739 22.3334C30.7665 22.6908 30.6143 22.9757 30.2358 23.1053C30.0617 23.1646 29.8855 23.1574 29.7145 23.1247C29.3641 23.0574 29.0222 22.9389 28.6698 22.9011C28.0619 22.8358 27.4467 22.8061 26.8691 23.0696C26.3447 23.3086 26.254 24.0969 26.6085 24.4328C26.94 24.7473 27.3341 24.9536 27.7439 25.118C28.456 25.4039 29.2109 25.6082 29.8698 25.9972C30.4662 26.3495 31.0105 26.758 31.3274 27.4329C31.6715 28.1641 31.6882 28.8748 31.4995 29.6253C31.3285 30.3075 30.9291 30.8538 30.3797 31.2745C29.8479 31.6819 29.2244 31.9423 28.5572 32.072C28.4154 32.0996 28.3903 32.1476 28.3862 32.2711C28.3726 32.6275 28.456 32.9941 28.2975 33.3372C28.1578 33.6405 27.9347 33.8835 27.5906 33.9203C27.2497 33.956 26.9515 33.8263 26.7586 33.5169C26.549 33.1799 26.5105 32.8133 26.5689 32.4376C26.597 32.2538 26.5365 32.218 26.3687 32.2129C25.7254 32.1915 25.0946 32.0638 24.4878 31.8739C23.9748 31.7125 23.6265 31.1846 23.7162 30.5842C23.809 29.9613 24.3793 29.6611 24.9444 29.8071C25.3917 29.9225 25.8328 30.0787 26.2946 30.1165C26.9171 30.1676 27.5521 30.2329 28.1464 29.9746C28.7886 29.6958 29.0524 29.0269 28.6041 28.4132C28.3799 28.1059 28.0567 27.9425 27.7262 27.8036C27.0453 27.5177 26.3395 27.29 25.667 26.9877C25.0727 26.7212 24.5243 26.3577 24.1281 25.8369C23.8236 25.4356 23.6067 24.9853 23.5942 24.4604C23.5838 24.0172 23.5828 23.571 23.7464 23.1564C23.9195 22.7204 24.1885 22.3354 24.542 22.0097C24.9872 21.5992 25.5148 21.3326 26.0819 21.1356C26.2227 21.0865 26.377 21.0743 26.5219 21.0263C26.6439 20.9865 26.6929 20.9293 26.6877 20.8006C26.6783 20.575 26.6856 20.3493 26.6856 20.1236C26.6856 19.658 27.0683 19.2812 27.5573 19.2832C27.9931 19.2853 28.4143 19.612 28.4362 20.1287C28.4393 20.2114 28.4362 20.2941 28.4362 20.3769C28.4393 20.3769 28.4414 20.3769 28.4445 20.3769L28.4466 20.3789Z" fill="url(#paint4_linear_162_24)"/>
</g>
<defs>
<filter id="filter0_di_162_24" x="0" y="0" width="55" height="55" filterUnits="userSpaceOnUse" color-interpolation-filters="sRGB">
<feFlood flood-opacity="0" result="BackgroundImageFix"/>
<feColorMatrix in="SourceAlpha" type="matrix" values="0 0 0 0 0 0 0 0 0 0 0 0 0 0 0 0 0 0 127 0" result="hardAlpha"/>
<feOffset dy="1"/>
<feGaussianBlur stdDeviation="3"/>
<feComposite in2="hardAlpha" operator="out"/>
<feColorMatrix type="matrix" values="0 0 0 0 0 0 0 0 0 0.40825 0 0 0 0 0.8875 0 0 0 1 0"/>
<feBlend mode="normal" in2="BackgroundImageFix" result="effect1_dropShadow_162_24"/>
<feBlend mode="normal" in="SourceGraphic" in2="effect1_dropShadow_162_24" result="shape"/>
<feColorMatrix in="SourceAlpha" type="matrix" values="0 0 0 0 0 0 0 0 0 0 0 0 0 0 0 0 0 0 127 0" result="hardAlpha"/>
<feOffset dy="4"/>
<feGaussianBlur stdDeviation="2"/>
<feComposite in2="hardAlpha" operator="arithmetic" k2="-1" k3="1"/>
<feColorMatrix type="matrix" values="0 0 0 0 0.25 0 0 0 0 0.819999 0 0 0 0 1 0 0 0 0.74 0"/>
<feBlend mode="normal" in2="shape" result="effect2_innerShadow_162_24"/>
</filter>
<linearGradient id="paint0_linear_162_24" x1="27.5" y1="5" x2="27.5" y2="48" gradientUnits="userSpaceOnUse">
<stop stop-color="#0B45D8"/>
<stop offset="1" stop-color="#0077E6"/>
</linearGradient>
<linearGradient id="paint1_linear_162_24" x1="27.5" y1="5" x2="27.5" y2="48" gradientUnits="userSpaceOnUse">
<stop stop-color="#C8F5FF"/>
<stop offset="1" stop-color="#759CFF"/>
</linearGradient>
<linearGradient id="paint2_linear_162_24" x1="27.7288" y1="12.999" x2="27.7288" y2="26.4861" gradientUnits="userSpaceOnUse">
<stop stop-color="white"/>
<stop offset="1" stop-color="#82F7FF"/>
</linearGradient>
<linearGradient id="paint3_linear_162_24" x1="27.397" y1="26.5703" x2="27.397" y2="40.0026" gradientUnits="userSpaceOnUse">
<stop stop-color="white"/>
<stop offset="1" stop-color="#82F7FF"/>
</linearGradient>
<linearGradient id="paint4_linear_162_24" x1="27.605" y1="19.2832" x2="27.605" y2="33.926" gradientUnits="userSpaceOnUse">
<stop stop-color="white"/>
<stop offset="1" stop-color="#82F7FF"/>
</linearGradient>
<clipPath id="clip0_162_24">
<rect width="27" height="27" fill="white" transform="translate(14 13)"/>
</clipPath>
</defs>
</svg>
